<svg width="32" height="32" viewBox="0 0 32 32" fill="none" xmlns="http://www.w3.org/2000/svg">
<path d="M13.7875 6.09998C14.6407 6.79648 15.3061 7.61209 15.8 8.59998C15.932 8.59998 16.064 8.59998 16.2 8.59998C16.4688 8.20141 16.7351 7.80114 17 7.39998C17.7629 6.55884 18.4524 5.87149 19.6102 5.72029C21.1773 5.73155 22.4434 5.75974 23.6875 6.81248C23.9412 7.10329 23.9412 7.10329 24.2 7.39998C24.3382 7.54951 24.4764 7.69904 24.6188 7.8531C25.0872 8.36213 25.5451 8.87888 26 9.39998C26.1124 9.52527 26.2248 9.65057 26.3406 9.77966C27.2805 10.9125 27.7556 12.2458 28.256 13.611C28.3933 13.9819 28.5383 14.35 28.6836 14.7179C29.136 15.8973 29.4451 16.9664 29.575 18.225C29.7594 19.8265 30.4533 21.2532 31.6 22.4C31.5655 23.0171 31.4559 23.3313 31.0641 23.8125C29.5826 25.12 28.2123 26 26.2 26C25.111 23.921 25.111 23.921 24 21.8C21.7603 21.7067 20.6137 21.8539 18.95 23.3375C18.8252 23.4579 18.7005 23.5783 18.5719 23.7023C18.1664 24.0269 17.9152 24.1484 17.4 24.2C17.2061 24.0969 17.0123 23.9937 16.8125 23.8875C16.2261 23.5303 16.2261 23.5303 15.675 23.75C15.5183 23.8325 15.3615 23.915 15.2 24C14.627 24.2403 14.4468 24.217 13.85 24C13.1541 23.5717 12.5959 23.0856 12.0055 22.5242C11.1234 21.8189 10.3459 21.7526 9.23751 21.775C8.82914 21.7832 8.42076 21.7915 8.00001 21.8C7.27401 23.186 6.54801 24.572 5.80001 26C3.58385 25.7537 2.20613 25.0889 0.609388 23.5617C0.400013 23.2 0.400013 23.2 0.42267 22.7242C0.62991 22.1116 0.920768 21.6572 1.28751 21.125C1.95681 20.0978 2.32025 19.2629 2.46798 18.0351C2.66134 16.5086 3.05628 15.2642 3.70236 13.8672C3.96425 13.2801 4.15462 12.7144 4.33751 12.1C4.82912 10.6978 5.79922 9.62224 6.7463 8.50212C6.95633 8.252 7.15959 7.99619 7.36095 7.73904C8.80106 5.92528 11.6015 4.98735 13.7875 6.09998ZM10.75 9.64998C9.5696 11.5046 9.5696 11.5046 9.2758 13.6437C9.75624 15.7951 11.0559 17.7812 12.9055 18.9676C13.0357 19.0484 13.1659 19.1292 13.3 19.2125C14.246 19.8054 15.0117 20.3988 15.8 21.2C16.2588 21.2471 16.2588 21.2471 16.65 20.7508C16.8315 20.569 17.013 20.3872 17.2 20.2C17.5931 19.9193 17.9934 19.6483 18.4 19.3875C19.7077 18.5452 20.6291 17.8651 21.4375 16.5125C21.5723 16.29 21.7072 16.0675 21.8461 15.8383C22.5291 14.6065 22.8491 13.6059 22.6 12.2C22.2304 11.2687 21.8176 10.3919 21.2 9.59998C20.4683 9.32346 20.2323 9.38884 19.475 9.64998C18.8216 9.94563 18.8216 9.94563 18.475 10.325C18.0678 10.7322 17.7708 10.7611 17.2 10.8C16.9773 10.7299 16.7545 10.6597 16.525 10.5875C15.7979 10.3333 15.7979 10.3333 15.075 10.6125C14.4 10.8 14.4 10.8 13.8375 10.55C13.4 10.2 13.4 10.2 13 9.79998C12.2322 9.50648 11.4945 9.2364 10.75 9.64998Z" fill="#DF9D00"/>
<path d="M13.8125 6.13753C14.3994 6.59953 14.8288 6.95037 15.2 7.60003C15.1708 8.34544 15.1316 8.66845 14.6 9.20003C13.9156 9.27442 13.5464 9.31094 12.9875 8.88753C12.6161 8.54418 12.6161 8.54418 12.125 8.65003C11.9518 8.69953 11.7785 8.74903 11.6 8.80003C11.2002 8.86792 10.8003 8.93487 10.4 9.00003C10.334 9.39603 10.268 9.79203 10.2 10.2C9.93602 10.266 9.67202 10.332 9.40002 10.4C9.21581 11.3286 9.17902 12.2198 9.19456 13.1625C9.19708 13.4631 9.19956 13.7636 9.20198 14.0641C9.20694 14.5328 9.21254 15.0015 9.21921 15.4701C9.22528 15.9259 9.22882 16.3817 9.23206 16.8375C9.23475 16.9763 9.23744 17.1151 9.24021 17.2581C9.24621 18.4317 9.0986 19.2716 8.30002 20.15C8.13502 20.2985 7.97002 20.447 7.80002 20.6C7.29716 21.1029 7.17592 21.5557 6.93752 22.225C6.52643 23.3209 6.08741 24.2525 5.40002 25.2C5.26802 25.2 5.13602 25.2 5.00002 25.2C5.00002 25.332 5.00002 25.464 5.00002 25.6C3.59265 25.7836 2.72366 25.2087 1.60002 24.4C1.10767 24.0178 0.791984 23.6979 0.400024 23.2C0.45078 22.3527 0.813927 21.8123 1.28752 21.125C1.95682 20.0979 2.32026 19.2629 2.46799 18.0352C2.66135 16.5086 3.05629 15.2642 3.70237 13.8672C3.96426 13.2802 4.15463 12.7145 4.33752 12.1C4.82913 10.6978 5.79923 9.62229 6.74631 8.50218C6.95634 8.25205 7.1596 7.99625 7.36096 7.73909C8.80543 5.91984 11.6389 4.96568 13.8125 6.13753Z" fill="#D99500"/>
<path d="M15.2 7.80005C15.3361 7.99805 15.3361 7.99805 15.475 8.20005C15.5823 8.33205 15.6895 8.46405 15.8 8.60005C15.932 8.60005 16.064 8.60005 16.2 8.60005C16.266 8.46805 16.332 8.33605 16.4 8.20005C16.532 8.20005 16.664 8.20005 16.8 8.20005C16.8 8.33205 16.8 8.46405 16.8 8.60005C16.932 8.60005 17.064 8.60005 17.2 8.60005C17.299 8.79805 17.299 8.79805 17.4 9.00005C18.2241 8.89649 18.2241 8.89649 18.9836 8.58521C19.6356 8.29528 20.1191 8.46254 20.7898 8.63599C21.2 8.80005 21.2 8.80005 21.575 9.23755C21.6493 9.42317 21.7235 9.6088 21.8 9.80005C21.9114 10.0393 22.0228 10.2785 22.1375 10.525C22.4 11.2 22.4 11.2 22.4 11.8C22.532 11.8 22.664 11.8 22.8 11.8C23.0241 12.4723 23.0266 12.9926 23.025 13.7C23.0258 14.0435 23.0258 14.0435 23.0266 14.3938C23 15 23 15 22.8 15.6C22.7016 17.0577 22.7545 18.2633 23.525 19.5375C23.8 20 23.8 20 23.8 20.6C23.932 20.6 24.064 20.6 24.2 20.6C25.5973 21.9158 26.0221 23.134 26.2 25C26.2512 25.4461 26.2512 25.4461 26.4 25.8C26.697 25.899 26.697 25.899 27 26C26.736 26 26.472 26 26.2 26C25.111 23.921 25.111 23.921 24 21.8C21.7603 21.7067 20.6137 21.854 18.95 23.3375C18.8252 23.4579 18.7004 23.5783 18.5719 23.7024C18.1664 24.027 17.9151 24.1484 17.4 24.2C17.2061 24.0969 17.0123 23.9938 16.8125 23.8875C16.2261 23.5304 16.2261 23.5304 15.675 23.75C15.5183 23.8325 15.3615 23.915 15.2 24C14.627 24.2403 14.4467 24.217 13.85 24C13.1541 23.5718 12.5959 23.0857 12.0055 22.5243C11.1234 21.819 10.3459 21.7527 9.2375 21.775C8.82913 21.7833 8.42075 21.7915 8 21.8C7.274 23.186 6.548 24.572 5.8 26C5.206 25.934 4.612 25.868 4 25.8C4 25.734 4 25.668 4 25.6C4.33 25.6 4.66 25.6 5 25.6C5 25.468 5 25.336 5 25.2C5.297 25.002 5.297 25.002 5.6 24.8C5.86247 24.3875 5.86247 24.3875 6.0875 23.9C6.21705 23.6324 6.21705 23.6324 6.34922 23.3594C6.58714 22.8287 6.79621 22.2946 7 21.75C7.34163 20.8696 7.73185 20.2682 8.4 19.6C8.532 19.6 8.664 19.6 8.8 19.6C8.98421 18.6715 9.021 17.7802 9.00547 16.8375C9.00294 16.537 9.00047 16.2365 8.99805 15.936C8.99308 15.4673 8.98748 14.9986 8.98081 14.5299C8.97474 14.0741 8.97121 13.6184 8.96797 13.1625C8.96528 13.0238 8.96258 12.885 8.95981 12.742C8.95544 11.8862 9.05596 11.1864 9.4 10.4C9.825 10.225 9.825 10.225 10.2 10.2C10.2 10.0144 10.2 9.8288 10.2 9.63755C10.4 9.00005 10.4 9.00005 10.7414 8.77974C11.5006 8.47831 12.0101 8.31644 12.8 8.60005C12.998 8.73205 13.196 8.86405 13.4 9.00005C14.025 9.03345 14.025 9.03345 14.6 9.00005C14.798 8.60405 14.996 8.20805 15.2 7.80005ZM10.75 9.65005C9.56959 11.5047 9.56959 11.5047 9.27578 13.6438C9.75623 15.7952 11.0559 17.7813 12.9055 18.9676C13.0357 19.0485 13.1659 19.1293 13.3 19.2125C14.246 19.8054 15.0117 20.3989 15.8 21.2C16.2588 21.2471 16.2588 21.2471 16.65 20.7508C16.8315 20.5691 17.013 20.3873 17.2 20.2C17.5931 19.9193 17.9934 19.6484 18.4 19.3875C19.7077 18.5452 20.6291 17.8651 21.4375 16.5125C21.5723 16.2901 21.7072 16.0676 21.8461 15.8383C22.5291 14.6065 22.8491 13.606 22.6 12.2C22.2304 11.2688 21.8176 10.392 21.2 9.60005C20.4683 9.32354 20.2323 9.38891 19.475 9.65005C18.8216 9.9457 18.8216 9.9457 18.475 10.325C18.0678 10.7323 17.7708 10.7611 17.2 10.8C16.9773 10.7299 16.7545 10.6598 16.525 10.5875C15.7979 10.3334 15.7979 10.3334 15.075 10.6125C14.4 10.8 14.4 10.8 13.8375 10.55C13.4 10.2 13.4 10.2 13 9.80005C12.2322 9.50655 11.4944 9.23647 10.75 9.65005Z" fill="#CB8300"/>
<path d="M21.6 9.19995C21.666 9.33195 21.732 9.46395 21.8 9.59995C21.932 9.59995 22.064 9.59995 22.2 9.59995C22.3656 9.89823 22.5273 10.1987 22.6875 10.5C22.8232 10.7505 22.8232 10.7505 22.9617 11.0062C23.5615 12.5009 23.4186 14.1422 23.4 15.725C23.3948 16.165 23.3906 16.6052 23.3875 17.0453C23.3852 17.2383 23.3828 17.4313 23.3804 17.6301C23.4012 18.235 23.4883 18.8057 23.6 19.4C25.3187 19.5328 26.5447 19.3566 28 18.4C28.5255 17.8744 28.4891 17.5571 28.55 16.825C28.5696 16.6151 28.5892 16.4052 28.6094 16.189C28.5996 15.5769 28.4704 15.3297 28.2 14.8C28.275 14.35 28.275 14.35 28.4 14C28.9646 15.4179 29.425 16.6983 29.575 18.225C29.7593 19.8264 30.4532 21.2532 31.6 22.4C31.5655 23.0171 31.4559 23.3313 31.064 23.8125C29.9181 24.8239 28.4739 26.0512 26.8594 25.9742C26.4 25.8 26.4 25.8 26.1461 25.4593C25.9747 24.9203 25.9186 24.4126 25.8625 23.85C25.6921 22.6981 25.3205 22.1059 24.4922 21.3046C24.2 21 24.2 21 24.2 20.6C24.068 20.6 23.936 20.6 23.8 20.6C22.9086 18.895 22.4683 17.5499 22.6 15.6C22.666 15.402 22.732 15.204 22.8 15C22.8141 14.4522 22.8187 13.9099 22.8125 13.3625C22.8116 13.2125 22.8107 13.0626 22.8097 12.9082C22.8074 12.5387 22.8038 12.1693 22.8 11.8C22.668 11.8 22.536 11.8 22.4 11.8C22.2654 11.4797 22.1323 11.1587 22 10.8375C21.9257 10.6588 21.8515 10.4801 21.775 10.296C21.6 9.79995 21.6 9.79995 21.6 9.19995Z" fill="#D28D00"/>
<path d="M13.0001 6.59995C13.0991 6.89695 13.0991 6.89695 13.2001 7.19995C13.5767 7.42162 13.5767 7.42162 14.0001 7.59995C14.1981 7.73195 14.3961 7.86395 14.6001 7.99995C14.6001 8.26395 14.6001 8.52795 14.6001 8.79995C13.907 8.87915 13.6437 8.82872 13.0501 8.43745C12.6001 7.99995 12.6001 7.99995 12.4001 7.39995C12.3341 7.59795 12.2681 7.79595 12.2001 7.99995C11.8149 8.14058 11.8149 8.14058 11.3376 8.24995C10.5937 8.46909 10.2669 8.65431 9.88756 9.33745C9.79268 9.55608 9.69781 9.7747 9.60006 9.99995C9.46806 9.99995 9.33606 9.99995 9.20006 9.99995C9.13406 10.396 9.06806 10.792 9.00006 11.2C8.86806 11.2 8.73606 11.2 8.60006 11.2C8.40948 12.734 8.3395 14.2562 8.29654 15.8007C8.25729 16.8687 8.14647 17.7874 7.80006 18.7999C7.37507 18.8053 6.95007 18.8092 6.52506 18.8124C6.28839 18.8148 6.05171 18.8171 5.80787 18.8195C5.20006 18.7999 5.20006 18.7999 4.80006 18.5999C4.47357 17.6205 4.49675 16.622 4.60006 15.5999C4.97506 14.9499 4.97506 14.9499 5.40006 14.5999C5.53206 14.5999 5.66406 14.5999 5.80006 14.5999C6.10942 13.7382 6.31668 12.8877 6.48756 11.9906C6.60006 11.6 6.60006 11.6 7.00006 11.2C7.14454 10.8584 7.28877 10.5168 7.43053 10.1742C7.77918 9.40457 8.23336 8.76189 8.83756 8.17495C9.23173 7.83667 9.23173 7.83667 9.27271 7.39917C9.40006 6.99995 9.40006 6.99995 9.75006 6.78354C10.9266 6.40158 11.7807 6.38704 13.0001 6.59995Z" fill="#FED554"/>
<path d="M21.7125 6.63753C22.5748 6.94464 23.1393 7.37315 23.8 8.00003C23.734 8.13203 23.668 8.26403 23.6 8.40003C23.534 8.40003 23.468 8.40003 23.4 8.40003C23.4722 8.49181 23.5444 8.58359 23.6188 8.67815C23.7116 8.80087 23.8044 8.92359 23.9 9.05003C23.9928 9.17068 24.0856 9.29134 24.1813 9.41565C24.4 9.80003 24.4 9.80003 24.4 10.6C24.532 10.6 24.664 10.6 24.8 10.6C25.5519 12.4141 25.5519 12.4141 25.7875 13.325C26.0181 14.0574 26.3443 14.5924 26.7758 15.2211C27.3005 16.1079 27.3635 17.1962 27.2 18.2C26.66 18.7569 26.1365 18.8426 25.3875 18.9C24.6 18.8 24.6 18.8 24.1563 18.443C23.6123 17.4613 23.7075 16.5161 23.7125 15.4125C23.6744 13.0716 23.4506 11.1214 22 9.20003C22 9.06803 22 8.93603 22 8.80003C21.877 8.76599 21.7541 8.73196 21.6274 8.6969C20.2906 8.29608 20.2906 8.29608 19.7875 7.76253C19.6947 7.58309 19.6947 7.58309 19.6 7.40003C19.4598 7.5939 19.3195 7.78778 19.175 7.98753C18.7457 8.51034 18.6284 8.59254 17.9375 8.77503C17.6715 8.7874 17.6715 8.7874 17.4 8.80003C17.4168 8.22801 17.5137 7.89073 17.911 7.47346C19.1642 6.39699 20.0672 6.14559 21.7125 6.63753Z" fill="#FED655"/>
<path d="M15.2 7.80005C15.3361 7.99805 15.3361 7.99805 15.475 8.20005C15.5822 8.33205 15.6895 8.46405 15.8 8.60005C15.932 8.60005 16.064 8.60005 16.2 8.60005C16.266 8.46805 16.332 8.33605 16.4 8.20005C16.532 8.20005 16.664 8.20005 16.8 8.20005C16.8 8.33205 16.8 8.46405 16.8 8.60005C16.932 8.60005 17.064 8.60005 17.2 8.60005C17.299 8.79805 17.299 8.79805 17.4 9.00005C18.2241 8.89649 18.2241 8.89649 18.9836 8.58521C19.6356 8.29528 20.1191 8.46254 20.7898 8.63599C21.2 8.80005 21.2 8.80005 21.575 9.23755C21.6492 9.42317 21.7235 9.6088 21.8 9.80005C21.8572 9.91735 21.9145 10.0347 21.9734 10.1555C22.4298 11.1106 22.4298 11.1106 22.2 11.8C22.1091 11.587 22.1091 11.587 22.0164 11.3696C21.9326 11.1858 21.8488 11.0019 21.7625 10.8125C21.6813 10.6292 21.6001 10.4459 21.5164 10.2571C21.2375 9.76037 21.2375 9.76037 20.7102 9.62114C19.9594 9.5901 19.4593 9.85816 18.8 10.2C18.6927 10.3073 18.5855 10.4145 18.475 10.525C18.0678 10.9323 17.7708 10.9611 17.2 11C16.9772 10.9299 16.7545 10.8598 16.525 10.7875C15.7979 10.5334 15.7979 10.5334 15.075 10.8125C14.4 11 14.4 11 13.8375 10.75C13.4 10.4 13.4 10.4 13 10C12.5824 9.84196 12.5824 9.84196 12.1125 9.73755C11.956 9.69707 11.7995 9.6566 11.6383 9.61489C11.1926 9.55491 11.1926 9.55491 10.8766 9.83442C9.97247 11.0297 9.45107 12.2149 9.52422 13.725C9.59991 14.1995 9.72698 14.5832 9.9125 15.025C10.3588 16.097 10.1746 16.939 9.77578 17.9922C9.6055 18.4015 9.43077 18.809 9.25078 19.2141C8.99947 19.8013 8.79402 20.3918 8.6 21C8.98362 21.0372 8.98362 21.0372 9.375 21.075C10.15 21.15 10.15 21.15 10.6 21.6C10.3568 21.5486 10.3568 21.5486 10.1086 21.4961C9.25305 21.4214 8.79292 21.4463 8 21.8C7.0123 23.0284 6.4067 24.5564 5.8 26C5.206 25.934 4.612 25.868 4 25.8C4 25.734 4 25.668 4 25.6C4.33 25.6 4.66 25.6 5 25.6C5 25.468 5 25.336 5 25.2C5.297 25.002 5.297 25.002 5.6 24.8C5.86247 24.3875 5.86247 24.3875 6.0875 23.9C6.21705 23.6324 6.21705 23.6324 6.34922 23.3594C6.58714 22.8287 6.79621 22.2946 7 21.75C7.34163 20.8696 7.73185 20.2682 8.4 19.6C8.532 19.6 8.664 19.6 8.8 19.6C8.98421 18.6715 9.021 17.7802 9.00547 16.8375C9.00294 16.537 9.00047 16.2365 8.99805 15.936C8.99308 15.4673 8.98748 14.9986 8.98081 14.5299C8.97474 14.0741 8.97121 13.6184 8.96797 13.1625C8.96528 13.0238 8.96258 12.885 8.95981 12.742C8.95544 11.8862 9.05596 11.1864 9.4 10.4C9.825 10.225 9.825 10.225 10.2 10.2C10.2 10.0144 10.2 9.8288 10.2 9.63755C10.4 9.00005 10.4 9.00005 10.7414 8.77974C11.5006 8.47831 12.0101 8.31644 12.8 8.60005C12.998 8.73205 13.196 8.86405 13.4 9.00005C14.025 9.03345 14.025 9.03345 14.6 9.00005C14.798 8.60405 14.996 8.20805 15.2 7.80005Z" fill="#BC7100"/>
<path d="M11.4125 5.87501C11.584 5.89305 11.7554 5.9111 11.9321 5.92969C12.4 6.00001 12.4 6.00001 13 6.20001C13 6.33201 13 6.46401 13 6.60001C12.7401 6.58763 12.4803 6.57526 12.2125 6.56251C11.2363 6.56405 10.2506 6.6912 9.40002 7.20001C9.2785 7.58288 9.2785 7.58288 9.20002 8.00001C8.93909 8.34923 8.93909 8.34923 8.62502 8.68751C7.87512 9.52891 7.41299 10.3538 7.00002 11.4C6.86802 11.598 6.73602 11.796 6.60002 12C6.48096 12.4283 6.48096 12.4283 6.40002 12.8875C6.21973 13.8389 6.02597 14.4039 5.27893 15.0524C4.66663 15.7525 4.68317 16.2818 4.73752 17.1625C4.75815 17.6369 4.77877 18.1113 4.80002 18.6C5.79002 18.6 6.78002 18.6 7.80002 18.6C7.93007 17.8198 8.02701 17.1576 8.04924 16.3836C8.05582 16.1971 8.06239 16.0105 8.06917 15.8184C8.08133 15.4335 8.0928 15.0486 8.10354 14.6637C8.14745 13.4599 8.30347 12.3682 8.60002 11.2C8.85303 11.9708 8.82026 12.7368 8.80393 13.5375C8.80111 13.6854 8.79828 13.8333 8.79537 13.9857C8.78876 14.2977 8.78149 14.6097 8.77361 14.9217C8.76256 15.3983 8.75685 15.8748 8.7512 16.3516C8.74411 16.6552 8.73669 16.9589 8.72893 17.2625C8.72806 17.4046 8.72718 17.5467 8.72628 17.6931C8.70276 18.3775 8.64526 18.7421 8.21873 19.2885C7.76281 19.6277 7.5109 19.7126 6.95002 19.75C6.70252 19.7665 6.45502 19.783 6.20002 19.8C6.20002 19.668 6.20002 19.536 6.20002 19.4C6.06802 19.4 5.93602 19.4 5.80002 19.4C5.80002 19.268 5.80002 19.136 5.80002 19C5.61027 18.9794 5.42052 18.9588 5.22502 18.9375C4.60002 18.8 4.60002 18.8 4.20002 18.2C4.06802 18.332 3.93602 18.464 3.80002 18.6C3.76312 16.718 3.76312 16.718 4.00002 15.8C3.80202 15.8 3.60402 15.8 3.40002 15.8C3.55021 14.8238 4.14182 14.0778 4.80081 13.3688C5.31628 12.6344 5.4377 11.953 5.62502 11.0875C6.13115 9.03596 7.11787 7.39521 8.97502 6.26251C9.85786 5.89171 10.4571 5.76836 11.4125 5.87501Z" fill="#E5A600"/>
<path d="M28.8 20.1999C29.5335 20.8356 30.3139 21.7436 30.4954 22.7046C30.5734 24.2031 30.5734 24.2031 30.0774 24.7664C29.4816 25.1557 28.9465 25.37 28.25 25.5124C27.6023 25.3505 27.4055 25.1362 27 24.5999C26.777 24.1474 26.5766 23.6913 26.386 23.2242C26.1946 22.7541 26.1946 22.7541 25.8 22.1999C25.675 21.7249 25.675 21.7249 25.8 21.1999C26.6633 20.3979 27.6214 19.938 28.8 20.1999Z" fill="#E9AC03"/>
<path d="M22 17.4C22.132 17.4 22.264 17.4 22.4 17.4C22.5295 17.8166 22.6586 18.2333 22.7875 18.65C22.8595 18.8821 22.9314 19.1141 23.0055 19.3531C23.1502 19.8342 23.2851 20.3113 23.4 20.8C22.8524 20.9406 22.3038 21.0615 21.75 21.175C20.8595 21.3701 20.0487 21.6692 19.2 22C18.9343 22.0703 18.6678 22.138 18.4 22.2C18.4 22.332 18.4 22.464 18.4 22.6C18.0001 22.6085 17.5999 22.6082 17.2 22.6C17 22.4 17 22.4 16.9625 21.775C17.0488 21.1914 17.1786 21.0187 17.6313 20.6242C17.9797 20.387 18.333 20.157 18.6914 19.9352C19.1985 19.601 19.575 19.2304 20 18.8C20.4 18.6 20.8 18.4 21.2 18.2C21.4704 17.9371 21.7381 17.6713 22 17.4Z" fill="#D58F00"/>
<path d="M4 20.6125C4.6069 20.8022 5.07476 21.0447 5.6 21.4C5.49252 22.6898 5.13492 23.8651 4.2 24.8C3.76719 24.8391 3.76719 24.8391 3.275 24.825C3.11155 24.8214 2.9481 24.8178 2.77969 24.8141C2.65439 24.8095 2.5291 24.8048 2.4 24.8C2.4 24.668 2.4 24.536 2.4 24.4C2.202 24.334 2.004 24.268 1.8 24.2C1.51339 23.6268 1.53871 23.2374 1.6 22.6C2.1401 21.5998 2.77311 20.587 4 20.6125Z" fill="#FCCF44"/>
<path d="M22.4 11.8C22.532 11.8 22.664 11.8 22.8 11.8C23.0241 12.4723 23.0266 12.9926 23.025 13.7C23.0258 14.0435 23.0258 14.0435 23.0266 14.3938C23 15 23 15 22.8 15.6C22.7016 17.0577 22.7545 18.2633 23.525 19.5375C23.8 20 23.8 20 23.8 20.6C23.932 20.6 24.064 20.6 24.2 20.6C25.5973 21.9158 26.0222 23.134 26.2 25.0001C26.2512 25.4461 26.2512 25.4461 26.4 25.8001C26.598 25.8661 26.796 25.9321 27 26.0001C26.736 26.0001 26.472 26.0001 26.2 26.0001C25.474 24.6141 24.748 23.228 24 21.8C22.944 21.8 21.888 21.8 20.8 21.8C21 21.4 21 21.4 21.3469 21.2758C21.8563 21.1906 22.3337 21.1808 22.85 21.1875C23.0284 21.1894 23.2068 21.1912 23.3906 21.193C23.5257 21.1953 23.6608 21.1977 23.8 21.2C23.6515 20.9897 23.503 20.7793 23.35 20.5625C22.6537 19.4615 22.3404 18.2475 22 17C21.8593 17.1235 21.7185 17.247 21.5735 17.3743C20.4511 18.3369 19.3156 19.2311 18.075 20.0375C17.9543 20.1172 17.8336 20.1968 17.7093 20.2789C17.4144 20.4662 17.108 20.6351 16.8 20.8C16.668 20.734 16.536 20.668 16.4 20.6C16.6917 20.3959 16.9834 20.1917 17.275 19.9875C17.4576 19.8579 17.6401 19.7282 17.8281 19.5946C18.1856 19.348 18.5496 19.1103 18.9219 18.8868C20.6287 17.8293 21.7935 16.1189 22.4 14.2C22.4481 13.5749 22.4481 13.5749 22.425 12.9375C22.4214 12.7238 22.4178 12.5101 22.4141 12.2899C22.4094 12.1282 22.4048 11.9666 22.4 11.8Z" fill="#B36700"/>
<path d="M11 19C11.87 19.0989 12.3208 19.2649 13 19.8C13.3465 19.9485 13.3465 19.9485 13.7 20.1C14.8052 20.5737 14.8052 20.5737 15.2 21C15.2936 21.6421 15.314 22.02 14.9625 22.575C14.4468 22.8951 14.1997 22.9116 13.6 22.8C13.1616 22.4988 12.7952 22.1601 12.4 21.8C12.268 21.734 12.136 21.668 12 21.6C12 21.468 12 21.336 12 21.2C11.8804 21.1711 11.7607 21.1423 11.6375 21.1125C11.2877 21.0226 10.9426 20.9142 10.6 20.8C10.775 19.45 10.775 19.45 11 19Z" fill="#E09F00"/>
<path d="M4.04996 20.1375C4.89586 20.4336 5.78087 20.7619 6.19996 21.6C6.30076 22.7438 6.06952 23.401 5.49996 24.3875C5.37003 24.6162 5.24009 24.8449 5.10621 25.0805C5.00515 25.252 4.90409 25.4234 4.79996 25.6C3.29326 25.692 2.35441 24.9846 1.19762 24.0883C0.862465 23.7875 0.862465 23.7875 0.399965 23.2C0.385611 22.5972 0.540328 22.3094 0.824965 21.7875C1.35768 21.2371 1.91642 20.948 2.59996 20.6C2.73196 20.6 2.86396 20.6 2.99996 20.6C2.99996 20.468 2.99996 20.336 2.99996 20.2C3.39996 20 3.39996 20 4.04996 20.1375ZM2.30309 21.4524C1.80483 22.0238 1.61177 22.4554 1.54996 23.2125C1.55565 23.838 1.55565 23.838 1.99996 24.4C2.13196 24.4 2.26396 24.4 2.39996 24.4C2.39996 24.532 2.39996 24.664 2.39996 24.8C3.01041 24.8587 3.59093 24.8822 4.19996 24.8C5.05801 24.0549 5.49847 22.9582 5.69996 21.85C5.63937 21.3593 5.63937 21.3593 5.17496 21.05C3.86408 20.4801 3.35103 20.5012 2.30309 21.4524Z" fill="#E4A500"/>
<path d="M23.2 11.6C23.7417 12.4126 23.8255 12.9689 23.8421 13.9242C23.8506 14.2543 23.8506 14.2543 23.8593 14.591C23.8697 15.0545 23.8786 15.518 23.8859 15.9816C23.8952 16.3121 23.8952 16.3121 23.9046 16.6492C23.9086 16.8507 23.9126 17.0521 23.9166 17.2597C24.0113 17.8735 24.1743 18.1541 24.6 18.6C25.1671 18.7325 25.6084 18.6563 26.2 18.6C26.332 18.468 26.464 18.336 26.6 18.2C26.798 18.2 26.996 18.2 27.2 18.2C27.101 16.913 27.101 16.913 27 15.6C27.198 15.666 27.396 15.732 27.6 15.8C27.6247 15.9939 27.6495 16.1877 27.675 16.3875C27.7162 16.5896 27.7575 16.7917 27.8 17C27.932 17.066 28.064 17.132 28.2 17.2C28.2546 17.6594 28.2546 17.6594 28.2 18.2C27.8203 18.5531 27.8203 18.5531 27.325 18.85C27.1625 18.95 27.0001 19.05 26.8328 19.1531C26.1577 19.5381 25.7791 19.6272 25 19.625C24.8226 19.6255 24.6452 19.626 24.4625 19.6265C24 19.6 24 19.6 23.6 19.4C23.2019 18.479 23.1461 17.6272 23.1609 16.639C23.1615 16.4942 23.162 16.3494 23.1626 16.2003C23.1648 15.7418 23.1698 15.2834 23.175 14.825C23.177 14.5125 23.1788 14.2 23.1804 13.8875C23.1848 13.1249 23.1917 12.3625 23.2 11.6Z" fill="#EAAE07"/>
<path d="M11.2 5.80004C12.529 5.69155 13.3112 5.81012 14.4 6.60004C14.9 7.07504 14.9 7.07504 15.2 7.60004C15.1708 8.34545 15.1316 8.66846 14.6 9.20004C13.9157 9.27443 13.5465 9.31095 12.9875 8.88754C12.6161 8.54419 12.6161 8.54419 12.125 8.65004C11.9518 8.69954 11.7785 8.74904 11.6 8.80004C11.2003 8.86793 10.8003 8.93488 10.4 9.00004C10.334 9.39604 10.268 9.79204 10.2 10.2C9.93605 10.266 9.67205 10.332 9.40005 10.4C9.3318 10.7998 9.26554 11.1998 9.20005 11.6C9.16705 11.7939 9.13405 11.9878 9.10005 12.1875C8.94501 13.281 8.92746 14.3852 8.88755 15.4875C8.87891 15.7102 8.87028 15.9328 8.86138 16.1621C8.84029 16.7081 8.81987 17.254 8.80005 17.8C8.73405 17.8 8.66805 17.8 8.60005 17.8C8.58504 17.0107 8.57425 16.2214 8.56709 15.4319C8.56265 15.0337 8.55502 14.6356 8.54732 14.2375C8.5358 12.7177 8.6424 11.4213 9.20005 10C9.33205 10 9.46405 10 9.60005 10C9.68667 9.82679 9.68667 9.82679 9.77505 9.65004C9.8493 9.50154 9.92355 9.35304 10 9.20004C10.0516 9.06391 10.1032 8.92779 10.1563 8.78754C10.4 8.40004 10.4 8.40004 10.8329 8.23441C10.9953 8.20657 11.1577 8.17872 11.325 8.15004C11.4885 8.12013 11.652 8.09022 11.8204 8.05941C12.0083 8.03002 12.0083 8.03002 12.2 8.00004C12.266 7.73604 12.332 7.47204 12.4 7.20004C12.4867 7.35679 12.5733 7.51354 12.6625 7.67504C13.0731 8.31374 13.397 8.55281 14.1375 8.72504C14.2902 8.74979 14.4428 8.77454 14.6 8.80004C14.5905 8.42427 14.5905 8.42427 14.4 8.00004C14.202 7.87216 14.004 7.74429 13.8 7.61254C13.2 7.20004 13.2 7.20004 13.025 6.65004C13.0168 6.50154 13.0085 6.35304 13 6.20004C12.406 6.13404 11.812 6.06804 11.2 6.00004C11.2 5.93404 11.2 5.86804 11.2 5.80004Z" fill="#DC9A01"/>
<path d="M28.0625 20.875C28.7464 21.034 29.0908 21.2923 29.568 21.8C30.0029 22.5497 29.8893 23.3633 29.8 24.2C28.7018 24.7712 28.7018 24.7712 28 24.6C27.3887 23.9252 27.0383 23.2487 26.9 22.35C27.0465 21.5441 27.2422 21.0967 28.0625 20.875Z" fill="#FED553"/>
<path d="M22 16.8C22.066 16.998 22.132 17.196 22.2 17.4C21.9469 17.6303 21.6924 17.8592 21.4375 18.0875C21.296 18.2152 21.1544 18.3428 21.0086 18.4743C20.6 18.8 20.6 18.8 20 19C19.8928 19.1114 19.7855 19.2228 19.675 19.3375C19.2198 19.7808 18.8054 20.0408 18.2625 20.3625C17.6188 20.7619 17.6188 20.7619 17.2391 21.3883C17.1724 21.8133 17.1724 21.8133 17.2 22.4C17.596 22.466 17.992 22.532 18.4 22.6C18.4 22.468 18.4 22.336 18.4 22.2C19.9046 21.392 21.4548 20.6723 23.2 20.8C23.398 20.8 23.596 20.8 23.8 20.8C23.8 20.932 23.8 21.064 23.8 21.2C23.6164 21.222 23.4329 21.2439 23.2438 21.2665C20.9959 21.4612 20.9959 21.4612 19.0836 22.5196C18.8 22.8 18.8 22.8 18.4 22.8C18.334 22.998 18.268 23.196 18.2 23.4C17.1247 23.4956 17.1247 23.4956 16.625 23.1125C16.2852 22.3386 16.2083 21.6285 16.4 20.8C16.8416 20.2969 17.3777 20.0154 17.9625 19.7C18.2746 19.5165 18.5861 19.3319 18.8969 19.1461C19.0504 19.0557 19.2039 18.9654 19.3621 18.8722C20.3164 18.2791 21.1557 17.5386 22 16.8Z" fill="#CD8500"/>
<path d="M14.6 20C15.575 20.525 15.575 20.525 15.8 21.2C15.932 21.2 16.064 21.2 16.2 21.2C16.266 21.068 16.332 20.936 16.4 20.8C16.4147 20.9845 16.4147 20.9845 16.4297 21.1727C16.4446 21.3343 16.4596 21.496 16.475 21.6625C16.4889 21.8226 16.5028 21.9827 16.5172 22.1477C16.5791 22.6544 16.5791 22.6544 17 23.2C17.5743 23.3336 17.5743 23.3336 18.2 23.2C18.7584 22.7416 18.7584 22.7416 19.2 22.2C19.6 21.8 19.6 21.8 20.225 21.775C20.4147 21.7832 20.6045 21.7915 20.8 21.8C20.668 21.9031 20.536 22.0062 20.4 22.1125C19.7751 22.6202 19.1839 23.1559 18.5929 23.7023C18.1771 24.0173 17.9172 24.1479 17.4 24.2C17.2061 24.0969 17.0122 23.9937 16.8125 23.8875C16.226 23.5304 16.226 23.5304 15.675 23.75C15.5182 23.8325 15.3615 23.915 15.2 24C14.627 24.2403 14.4467 24.217 13.85 24C13.1488 23.5685 12.5874 23.0693 11.9804 22.5172C11.5491 22.1576 11.1407 21.9521 10.6 21.8C10.925 21.65 10.925 21.65 11.4 21.6C12.0317 21.9553 12.5065 22.2839 12.9625 22.85C13.5718 23.3375 14.0553 23.2713 14.8148 23.2477C15.201 23.2399 15.201 23.2399 15.4 23C15.5886 22.2017 15.5886 22.2017 15.6 21.4C15.1374 20.8206 15.1374 20.8206 14.6 20.4C14.6 20.268 14.6 20.136 14.6 20Z" fill="#B06400"/>
<path d="M22.4 9.59998C23 9.79998 23 9.79998 23.3125 10.3125C24.004 11.9661 24.071 13.5125 24.1133 15.2797C24.1459 16.26 24.2208 17.0794 24.6 18C24.996 18.066 25.392 18.132 25.8 18.2C26.1584 17.7803 26.1584 17.7803 26.4 17.2C26.2531 16.5313 26.2531 16.5313 25.9375 15.85C25.4744 14.6799 25.2925 13.8477 25.4 12.6C25.466 12.6 25.532 12.6 25.6 12.6C25.6681 12.897 25.6681 12.897 25.7375 13.2C25.9529 13.9695 26.3261 14.5659 26.7758 15.2211C27.3005 16.1078 27.3635 17.1962 27.2 18.2C26.66 18.7569 26.1365 18.8426 25.3875 18.9C24.6 18.8 24.6 18.8 24.1563 18.4429C23.6124 17.4613 23.7073 16.516 23.7125 15.4125C23.6798 13.2278 23.3847 11.5693 22.4 9.59998Z" fill="#F8C835"/>
<path d="M21.7125 6.63753C22.5748 6.94464 23.1393 7.37315 23.8 8.00003C23.734 8.13203 23.668 8.26403 23.6 8.40003C23.534 8.40003 23.468 8.40003 23.4 8.40003C23.5118 8.5377 23.5118 8.5377 23.6258 8.67815C23.7677 8.86223 23.7677 8.86223 23.9125 9.05003C24.0077 9.17068 24.1028 9.29134 24.2008 9.41565C24.4 9.80003 24.4 9.80003 24.3305 10.2469C24.2874 10.3634 24.2444 10.48 24.2 10.6C23.0613 9.11484 23.0613 9.11484 22.7 8.43753C22.1895 7.69295 21.4792 7.46679 20.625 7.26253C20.4146 7.23159 20.4146 7.23159 20.2 7.20003C20.332 7.53003 20.464 7.86003 20.6 8.20003C19.825 7.85003 19.825 7.85003 19.6 7.40003C19.4598 7.5939 19.3195 7.78778 19.175 7.98753C18.7457 8.51034 18.6284 8.59254 17.9375 8.77503C17.6715 8.7874 17.6715 8.7874 17.4 8.80003C17.4168 8.22801 17.5137 7.89073 17.911 7.47346C19.1642 6.39699 20.0672 6.14559 21.7125 6.63753Z" fill="#F1BA14"/>
<path d="M7.00006 11.2C7.00006 12.6547 6.56854 14.0226 5.76256 15.225C5.10707 16.2219 5.066 17.0332 5.20006 18.2C5.57749 18.2185 5.57749 18.2185 5.96256 18.2375C6.1041 18.2444 6.24564 18.2514 6.39146 18.2585C6.80784 18.2272 6.80784 18.2272 7.13834 17.9867C7.52979 17.4083 7.54844 16.8646 7.62506 16.175C7.64884 15.9744 7.64884 15.9744 7.6731 15.7698C7.74164 15.1837 7.80034 14.5969 7.85475 14.0093C7.89256 13.6051 7.94458 13.2022 8.00006 12.8C8.13206 12.734 8.26406 12.668 8.40006 12.6C8.37793 13.3709 8.35184 14.1417 8.32506 14.9125C8.31578 15.2383 8.31578 15.2383 8.30631 15.5707C8.26462 16.7137 8.18158 17.719 7.80006 18.8C7.37507 18.8053 6.95007 18.8092 6.52506 18.8125C6.28839 18.8148 6.05171 18.8171 5.80787 18.8195C5.20006 18.8 5.20006 18.8 4.80006 18.6C4.47357 17.6205 4.49675 16.622 4.60006 15.6C4.97506 14.95 4.97506 14.95 5.40006 14.6C5.53206 14.6 5.66406 14.6 5.80006 14.6C6.10942 13.7382 6.31668 12.8877 6.48756 11.9906C6.60006 11.6 6.60006 11.6 7.00006 11.2Z" fill="#F5C226"/>
<path d="M5.99995 9.40002C6.2679 10.2039 6.03247 10.7715 5.78745 11.55C5.74238 11.6944 5.69731 11.8389 5.65088 11.9877C5.28553 13.0862 4.84472 13.7928 3.99995 14.6C3.50386 15.3442 3.51119 15.9731 3.47495 16.8375C3.46722 16.9874 3.45948 17.1374 3.45151 17.2918C3.43269 17.6611 3.41611 18.0306 3.39995 18.4C3.26795 18.202 3.13595 18.004 2.99995 17.8C2.93395 18.46 2.86795 19.12 2.79995 19.8C2.50295 19.899 2.50295 19.899 2.19995 20C2.45258 17.7973 2.74224 15.8366 3.70542 13.8227C3.98548 13.2306 4.19665 12.6468 4.39995 12.025C4.75837 10.9999 5.29544 10.2196 5.99995 9.40002Z" fill="#D48E00"/>
<path d="M13 6.59995C13.066 6.79795 13.132 6.99595 13.2 7.19995C13.5766 7.42162 13.5766 7.42162 14 7.59995C14.198 7.73195 14.396 7.86395 14.6 7.99995C14.6 8.26395 14.6 8.52795 14.6 8.79995C13.9069 8.87915 13.6436 8.82872 13.05 8.43745C12.6 7.99995 12.6 7.99995 12.4 7.39995C12.334 7.59795 12.268 7.79595 12.2 7.99995C12.068 7.99995 11.936 7.99995 11.8 7.99995C11.8 7.73595 11.8 7.47195 11.8 7.19995C9.94518 7.83438 8.71615 8.48774 7.81245 10.275C7.67169 10.5818 7.53301 10.8897 7.39995 11.2C7.26636 10.8562 7.26636 10.8562 7.19995 10.4C7.41479 9.9562 7.41479 9.9562 7.73745 9.49995C7.84831 9.34243 7.95917 9.1849 8.07339 9.02261C8.41737 8.57741 8.80272 8.19718 9.19995 7.79995C9.22341 7.66847 9.24687 7.53698 9.27104 7.40151C9.39995 6.99995 9.39995 6.99995 9.74995 6.78354C10.9265 6.40158 11.7806 6.38704 13 6.59995Z" fill="#F0B914"/>
<path d="M21.2 19.6C21.1539 20.0664 21.1539 20.0664 21 20.6C20.6148 20.9024 20.6148 20.9024 20.1375 21.1375C19.9035 21.2563 19.9035 21.2563 19.6648 21.3774C19.5114 21.4509 19.358 21.5243 19.2 21.6C18.9332 21.7332 18.6665 21.8665 18.4 22C18.4 22.198 18.4 22.396 18.4 22.6C18.0001 22.6085 17.5999 22.6082 17.2 22.6C17.134 22.534 17.068 22.468 17 22.4C17.0305 21.5913 17.0688 21.1428 17.625 20.5375C18.2725 20.1575 18.8719 19.9753 19.6 19.8C20.1856 19.6048 20.5912 19.5836 21.2 19.6Z" fill="#EBAF02"/>
<path d="M8.60003 11.2C8.85304 11.9707 8.82026 12.7367 8.80394 13.5375C8.80111 13.6854 8.79829 13.8333 8.79538 13.9856C8.78877 14.2977 8.7815 14.6097 8.77362 14.9216C8.76257 15.3983 8.75686 15.8748 8.7512 16.3515C8.74411 16.6552 8.7367 16.9588 8.72894 17.2625C8.72806 17.4046 8.72719 17.5467 8.72629 17.6931C8.70276 18.3775 8.64527 18.742 8.21873 19.2884C7.76281 19.6276 7.51091 19.7126 6.95003 19.75C6.70253 19.7665 6.45503 19.783 6.20003 19.8C6.20003 19.668 6.20003 19.536 6.20003 19.4C6.06803 19.4 5.93603 19.4 5.80003 19.4C5.80003 19.268 5.80003 19.136 5.80003 19C5.60616 18.9711 5.41228 18.9422 5.21253 18.9125C4.60003 18.8 4.60003 18.8 4.40003 18.6C4.38562 18.2627 4.38326 17.9249 4.38753 17.5875C4.38934 17.4036 4.39114 17.2198 4.393 17.0304C4.39532 16.8884 4.39764 16.7463 4.40003 16.6C4.46603 16.6 4.53203 16.6 4.60003 16.6C4.66603 17.26 4.73203 17.92 4.80003 18.6C5.79003 18.6 6.78003 18.6 7.80003 18.6C7.93007 17.8197 8.02702 17.1576 8.04925 16.3835C8.05582 16.197 8.0624 16.0105 8.06917 15.8183C8.08134 15.4334 8.0928 15.0485 8.10355 14.6636C8.14746 13.4598 8.30347 12.3682 8.60003 11.2Z" fill="#EBB007"/>
<path d="M19.4875 5.85003C19.5906 5.89953 19.6937 5.94903 19.8 6.00003C19.5154 6.06809 19.5154 6.06809 19.225 6.13753C18.5661 6.33346 18.5661 6.33346 18.3625 6.88753C18.3089 7.05665 18.2552 7.22578 18.2 7.40003C18 7.60003 17.8 7.80003 17.6 8.00003C17.4571 8.42069 17.4571 8.42069 17.4 8.80003C18.4319 8.41558 19.0511 8.03965 19.8 7.20003C19.8371 7.31965 19.8742 7.43928 19.9125 7.56253C20.3328 8.2022 20.9035 8.31184 21.6 8.60003C22.4524 9.23326 22.886 10.2024 23.2 11.2C23.134 11.332 23.068 11.464 23 11.6C22.8657 11.3422 22.7326 11.0837 22.6 10.825C22.5257 10.6812 22.4515 10.5373 22.375 10.3891C22.2 10 22.2 10 22.2 9.60003C22.068 9.60003 21.936 9.60003 21.8 9.60003C21.8 9.46803 21.8 9.33603 21.8 9.20003C21.5176 9.09324 21.234 8.9897 20.95 8.88753C20.7922 8.82952 20.6344 8.77151 20.4719 8.71175C19.7685 8.54522 19.3544 8.72876 18.7125 9.02503C18.1187 9.2278 17.7952 9.17008 17.2 9.00003C17.2 8.86803 17.2 8.73603 17.2 8.60003C17.068 8.60003 16.936 8.60003 16.8 8.60003C16.6375 8.27503 16.6375 8.27503 16.6 7.80003C17.2384 6.84232 18.2299 5.72104 19.4875 5.85003Z" fill="#DC9902"/>
<path d="M4 20.6125C4.6069 20.8022 5.07476 21.0447 5.6 21.4C5.49252 22.6898 5.13492 23.8651 4.2 24.8C3.76719 24.8391 3.76719 24.8391 3.275 24.825C3.11155 24.8214 2.9481 24.8178 2.77969 24.8141C2.65439 24.8095 2.5291 24.8048 2.4 24.8C2.4 24.668 2.4 24.536 2.4 24.4C2.202 24.334 2.004 24.268 1.8 24.2C1.51339 23.6268 1.53871 23.2374 1.6 22.6C2.1401 21.5998 2.77311 20.587 4 20.6125ZM2.42656 22.0422C2.05004 22.6369 2.09779 23.1229 2.2 23.8C2.53331 24.4261 2.53331 24.4261 3.0625 24.575C3.75706 24.6073 4.06253 24.43 4.6 24C4.6 23.802 4.6 23.604 4.6 23.4C4.732 23.4 4.864 23.4 5 23.4C5.0108 23.1084 5.01856 22.8167 5.025 22.525C5.03196 22.2814 5.03196 22.2814 5.03906 22.0328C5.04274 21.5573 5.04274 21.5573 4.6 21.2C3.57618 21.0139 3.09177 21.3074 2.42656 22.0422Z" fill="#F7C52C"/>
<path d="M28.8 20.8C29.1969 21.1484 29.1969 21.1484 29.55 21.575C29.7279 21.7846 29.7279 21.7846 29.9094 21.9984C30.4713 22.7748 30.4175 23.4719 30.4 24.4C29.6636 24.7682 29.1898 25 28.3625 25C27.3913 24.6546 27.096 23.9919 26.65 23.1C26.263 22.0164 26.263 22.0164 26.4 21.4C26.875 21.05 26.875 21.05 27.4 20.8C27.9521 20.5239 28.2163 20.6199 28.8 20.8ZM27.2375 21.325C26.9186 21.9628 26.8908 22.2902 27 23C27.2929 23.5633 27.6325 24.0828 28 24.6C28.9292 24.503 28.9292 24.503 29.8 24.2C29.9461 22.9565 29.9461 22.9565 29.568 21.8C29.0908 21.2923 28.7464 21.034 28.0625 20.875C27.5812 20.9678 27.5812 20.9678 27.2375 21.325Z" fill="#F3BF22"/>
<path d="M11.4 19.6C11.895 19.798 11.895 19.798 12.4 20C12.4 20.132 12.4 20.264 12.4 20.4C12.5774 20.4124 12.7548 20.4247 12.9375 20.4375C13.7544 20.6378 14.0695 20.9602 14.6 21.6C14.6 21.732 14.6 21.864 14.6 22C14.2416 21.9718 13.8833 21.9424 13.525 21.9125C13.3255 21.8962 13.126 21.88 12.9204 21.8633C12.4 21.8 12.4 21.8 12 21.6C12 21.468 12 21.336 12 21.2C11.8763 21.1835 11.7525 21.167 11.625 21.15C11.2 21 11.2 21 10.95 20.5875C10.8758 20.3957 10.8758 20.3957 10.8 20.2C10.998 20.002 11.196 19.804 11.4 19.6Z" fill="#E8AB01"/>
<path d="M23 7.80005C23.8625 8.02735 24.1917 8.3863 24.6371 9.14966C24.7363 9.32929 24.7363 9.32929 24.8375 9.51255C25.2761 10.3926 25.2761 10.3926 26 11C26 11.132 26 11.264 26 11.4C26.132 11.4 26.264 11.4 26.4 11.4C26.466 11.796 26.532 12.192 26.6 12.6C26.468 12.666 26.336 12.732 26.2 12.8C26.134 12.668 26.068 12.536 26 12.4C25.934 12.862 25.868 13.324 25.8 13.8C25.734 13.8 25.668 13.8 25.6 13.8C25.2848 12.742 25.0301 11.6796 24.8 10.6C24.668 10.6 24.536 10.6 24.4 10.6C24.3175 10.3897 24.235 10.1793 24.15 9.96255C23.8616 9.28078 23.4729 8.77075 23 8.20005C23 8.06805 23 7.93605 23 7.80005Z" fill="#EAAF05"/>
<path d="M19.4 8.40002C20.0323 8.42042 20.6112 8.57231 21.2 8.80002C21.575 9.23752 21.575 9.23752 21.8 9.80002C21.8572 9.91733 21.9144 10.0346 21.9734 10.1555C22.4298 11.1106 22.4298 11.1106 22.2 11.8C22.1394 11.658 22.0788 11.5159 22.0164 11.3696C21.9326 11.1857 21.8488 11.0019 21.7625 10.8125C21.6406 10.5376 21.6406 10.5376 21.5164 10.2571C21.2375 9.76035 21.2375 9.76035 20.7101 9.62112C19.9594 9.59008 19.4593 9.85814 18.8 10.2C18.6927 10.3073 18.5855 10.4145 18.475 10.525C18.0917 10.9083 17.7251 10.9291 17.2 11C17.2 10.868 17.2 10.736 17.2 10.6C17.3567 10.5423 17.5135 10.4845 17.675 10.425C18.2193 10.2302 18.2193 10.2302 18.6 9.80002C18.666 9.63502 18.732 9.47002 18.8 9.30002C19 8.80002 19 8.80002 19.4 8.40002Z" fill="#AE6300"/>
<path d="M16.9125 8.87496C17.0734 9.04821 17.2342 9.22146 17.4 9.39996C17.8347 9.5722 17.8347 9.5722 18.2 9.59996C18.068 9.86396 17.936 10.128 17.8 10.4C17.3375 10.45 17.3375 10.45 16.8 10.4C16.4048 9.99111 16.2 9.77643 16.2 9.19996C16.068 9.19996 15.936 9.19996 15.8 9.19996C15.7587 9.36084 15.7175 9.52171 15.675 9.68746C15.5842 9.85659 15.4935 10.0257 15.4 10.2C14.775 10.3625 14.775 10.3625 14.2 10.4C14.134 10.136 14.068 9.87196 14 9.59996C14.1567 9.54634 14.3135 9.49271 14.475 9.43746C15.0562 9.23033 15.0562 9.23033 15.4 8.59996C16.1469 8.27697 16.3045 8.31144 16.9125 8.87496Z" fill="#CF8800"/>
<path d="M10.8 5.80005C11.526 5.93205 12.252 6.06405 13 6.20005C13 6.33205 13 6.46405 13 6.60005C12.7401 6.58767 12.4802 6.5753 12.2125 6.56255C11.2362 6.5641 10.2505 6.69124 9.39995 7.20005C9.2783 7.58237 9.2783 7.58237 9.19995 8.00005C8.93901 8.3563 8.93901 8.3563 8.62495 8.70005C8.19099 9.18513 7.78075 9.67116 7.39995 10.2C7.26558 9.84927 7.26558 9.84927 7.19995 9.40005C7.42183 9.00708 7.42183 9.00708 7.74995 8.61255C8.11847 8.15677 8.42659 7.7521 8.71245 7.23755C9.07168 6.6909 9.40957 6.47364 9.99995 6.20005C10.264 6.20005 10.528 6.20005 10.8 6.20005C10.8 6.06805 10.8 5.93605 10.8 5.80005Z" fill="#ECB103"/>
<path d="M24 7.40002C26.1889 9.04168 27.655 11.3248 28.2 14C27.5817 13.4941 27.4181 12.9551 27.2 12.2C27.002 12.332 26.804 12.464 26.6 12.6C26.4 12.4 26.4 12.4 26.3875 11.8875C26.3916 11.7266 26.3957 11.5658 26.4 11.4C26.268 11.4 26.136 11.4 26 11.4C26 11.2103 26 11.0205 26 10.825C25.8692 9.82346 25.2046 9.18535 24.5625 8.4469C24.2 8.00002 24.2 8.00002 24 7.40002Z" fill="#D18B00"/>
<path d="M25.8 22.6C25.998 22.6 26.196 22.6 26.4 22.6C26.4606 22.7495 26.5212 22.899 26.5836 23.0531C27.2004 24.5507 27.2004 24.5507 28.4 25.6C27.075 26.025 27.075 26.025 26.4 25.8C25.9558 25.1533 25.9252 24.5192 25.875 23.75C25.8601 23.5344 25.8451 23.3189 25.8297 23.0969C25.8199 22.9329 25.8101 22.7689 25.8 22.6Z" fill="#CF8700"/>
<path d="M4.06245 21.4376C4.17383 21.4912 4.2852 21.5448 4.39995 21.6001C4.56245 22.2376 4.56245 22.2376 4.59995 23.0001C4.11245 23.5876 4.11245 23.5876 3.59995 24.0001C2.82495 23.6251 2.82495 23.6251 2.59995 23.4001C2.52495 22.9501 2.52495 22.9501 2.59995 22.4001C3.39553 21.3835 3.39553 21.3835 4.06245 21.4376Z" fill="#FED759"/>
<path d="M3.79995 13.6C3.92495 13.95 3.92495 13.95 3.99995 14.4C3.91101 14.5717 3.91101 14.5717 3.82026 14.7469C3.49266 15.4206 3.50616 16.114 3.47495 16.85C3.46722 16.999 3.45948 17.148 3.45151 17.3015C3.43274 17.6676 3.41613 18.0338 3.39995 18.4C3.26795 18.202 3.13595 18.004 2.99995 17.8C2.93395 18.46 2.86795 19.12 2.79995 19.8C2.60195 19.866 2.40395 19.932 2.19995 20C2.47596 17.729 2.7421 15.6571 3.79995 13.6Z" fill="#C98100"/>
<path d="M28.0625 20.875C28.7464 21.034 29.0908 21.2923 29.568 21.8C30.0028 22.5497 29.8893 23.3633 29.8 24.2C29.1567 24.5491 28.736 24.6409 28 24.6C27.868 24.336 27.736 24.072 27.6 23.8C28.128 23.932 28.656 24.064 29.2 24.2C29.3876 23.19 29.3876 23.19 29.2 22.2C29.002 22.068 28.804 21.936 28.6 21.8C28.6 21.668 28.6 21.536 28.6 21.4C28.336 21.4 28.072 21.4 27.8 21.4C27.668 22.06 27.536 22.72 27.4 23.4C27 23 27 23 26.9375 22.425C27.0226 21.5744 27.2037 21.1071 28.0625 20.875Z" fill="#FBCC3C"/>
<path d="M7.99998 20.6C8.13198 20.6 8.26398 20.6 8.39998 20.6C8.39998 20.732 8.39998 20.864 8.39998 21C8.52527 21.0098 8.65057 21.0196 8.77966 21.0297C8.94312 21.0446 9.10657 21.0596 9.27498 21.075C9.51861 21.0959 9.51861 21.0959 9.76716 21.1172C10.2 21.2 10.2 21.2 10.6 21.6C10.4378 21.5657 10.2756 21.5314 10.1086 21.4961C9.25302 21.4214 8.7929 21.4462 7.99998 21.8C7.01228 23.0283 6.40668 24.5563 5.79998 26C5.40398 26 5.00798 26 4.59998 26C4.59998 25.934 4.59998 25.868 4.59998 25.8C4.92998 25.8 5.25998 25.8 5.59998 25.8C5.64948 25.6332 5.69898 25.4664 5.74998 25.2945C6.03223 24.5104 6.39733 23.8147 6.79998 23.0875C7.24889 22.2718 7.67707 21.4762 7.99998 20.6Z" fill="#A65B00"/>
<path d="M2.00002 21C2.00002 21.7705 1.88675 22.518 1.78518 23.2813C1.74812 23.8113 1.74812 23.8113 2.09612 24.1688C2.19641 24.2451 2.2967 24.3214 2.40002 24.4C2.33402 24.532 2.26802 24.664 2.20002 24.8C1.93507 24.5906 1.67314 24.3773 1.41252 24.1625C1.26634 24.0442 1.12017 23.9258 0.969556 23.8039C0.533305 23.3271 0.437113 23.0408 0.400024 22.4C0.832927 21.7106 1.24012 21.2985 2.00002 21Z" fill="#E5A603"/>
<path d="M8.19998 12.6C8.45118 13.1024 8.40857 13.4132 8.38279 13.9734C8.37402 14.167 8.36526 14.3606 8.35623 14.5601C8.34591 14.763 8.3356 14.9659 8.32498 15.175C8.31621 15.3763 8.30744 15.5777 8.29841 15.7851C8.2199 17.4274 8.2199 17.4274 7.99998 18.2C7.86798 18.2 7.73598 18.2 7.59998 18.2C7.59998 18.332 7.59998 18.464 7.59998 18.6C6.38904 18.639 6.38904 18.639 5.99998 18.6C5.86798 18.468 5.73598 18.336 5.59998 18.2C5.87841 18.2185 5.87841 18.2185 6.16248 18.2375C6.77571 18.2545 6.77571 18.2545 7.12576 17.9867C7.53421 17.4107 7.54755 16.8718 7.62498 16.175C7.64069 16.0413 7.6564 15.9076 7.67258 15.7698C7.74065 15.1835 7.80035 14.5964 7.86169 14.0094C7.98714 12.8128 7.98714 12.8128 8.19998 12.6Z" fill="#F8C834"/>
<path d="M19.8 20.2C19.866 20.398 19.932 20.596 20 20.8C19.802 20.866 19.604 20.932 19.4 21C19.2633 21.2649 19.1301 21.5317 19 21.8C18.3544 22.2303 18.1432 22.2401 17.4 22.2C17.4 21.4 17.4 21.4 17.8125 20.975C18.4856 20.5453 19.0271 20.3818 19.8 20.2Z" fill="#F0BA13"/>
<path d="M30.2 21C30.332 21 30.464 21 30.6 21C31.1575 21.5708 31.5874 22.1304 31.625 22.9375C31.4 23.4 31.4 23.4 30.4 24.2C30.334 23.144 30.268 22.088 30.2 21Z" fill="#DB9700"/>
<path d="M19.8 7.00005C18.9385 8.38466 18.9385 8.38466 18.2 8.80005C17.936 8.80005 17.672 8.80005 17.4 8.80005C17.4696 8.17371 17.5626 7.84654 17.9625 7.35005C18.6406 6.80758 18.9742 6.72478 19.8 7.00005Z" fill="#F7C52F"/>
<path d="M10.8 5.80005C10.8 5.93205 10.8 6.06405 10.8 6.20005C10.5607 6.26192 10.3215 6.3238 10.075 6.38755C9.10385 6.73756 8.76263 7.34535 8.28433 8.22739C8.14356 8.41186 8.14356 8.41186 7.99995 8.60005C7.73595 8.60005 7.47195 8.60005 7.19995 8.60005C6.84513 8.98409 6.84513 8.98409 6.59995 9.40005C6.46795 9.33405 6.33595 9.26805 6.19995 9.20005C8.85687 5.80005 8.85687 5.80005 10.8 5.80005Z" fill="#DB9900"/>
<path d="M12.2 6.80005C13.1413 6.88563 13.955 7.31049 14.6 8.00005C14.6 8.26405 14.6 8.52805 14.6 8.80005C13.9346 8.87609 13.6438 8.82658 13.0625 8.47505C12.5397 7.93813 12.38 7.52008 12.2 6.80005Z" fill="#F7C630"/>
<path d="M16.4 8.19995C16.532 8.19995 16.664 8.19995 16.8 8.19995C16.8 8.33195 16.8 8.46395 16.8 8.59995C16.932 8.59995 17.064 8.59995 17.2 8.59995C17.266 8.73195 17.332 8.86395 17.4 8.99995C17.928 8.93395 18.456 8.86795 19 8.79995C18.592 10.212 18.592 10.212 18 10.6C17.2625 10.7375 17.2625 10.7375 16.6 10.8C16.468 10.602 16.336 10.404 16.2 10.2C16.266 10.002 16.332 9.80395 16.4 9.59995C16.598 9.89695 16.598 9.89695 16.8 10.2C17.3 10.3 17.3 10.3 17.8 10.2C17.932 10.002 18.064 9.80395 18.2 9.59995C18.0143 9.5917 17.8287 9.58345 17.6375 9.57495C17 9.39995 17 9.39995 16.625 8.78745C16.5507 8.59358 16.4765 8.3997 16.4 8.19995Z" fill="#BB6E00"/>
<path d="M20 6.99996C21.1342 6.90738 21.9098 7.09764 22.8 7.79996C23.4125 8.4181 23.9178 9.07663 24.4 9.79996C24.325 10.2375 24.325 10.2375 24.2 10.6C23.0612 9.11478 23.0612 9.11478 22.7 8.43746C22.1894 7.69289 21.4792 7.46673 20.625 7.26246C20.4146 7.23153 20.4146 7.23153 20.2 7.19996C20.332 7.52996 20.464 7.85996 20.6 8.19996C20.402 8.13396 20.204 8.06796 20 7.99996C20 7.66996 20 7.33996 20 6.99996Z" fill="#F7C52D"/>
<path d="M7 21C7.15764 21.4591 7.22712 21.716 7.07583 22.1846C7.00775 22.3144 6.93967 22.4443 6.86953 22.5781C6.7967 22.7199 6.72387 22.8617 6.64883 23.0078C6.57084 23.1537 6.49285 23.2997 6.4125 23.45C6.33529 23.599 6.25807 23.748 6.17852 23.9016C5.98782 24.2688 5.79419 24.6346 5.6 25C5.402 25 5.204 25 5 25C5.09784 24.8113 5.09784 24.8113 5.19766 24.6188C5.62021 23.7911 6.02505 22.9761 6.3375 22.1C6.6 21.4 6.6 21.4 7 21Z" fill="#CC8300"/>
<path d="M11.8 18.2C12.1594 18.3507 12.1594 18.3507 12.6 18.6C12.7702 18.6925 12.9403 18.7851 13.1156 18.8804C13.292 18.9817 13.4683 19.0831 13.65 19.1875C13.8284 19.2883 14.0068 19.3891 14.1906 19.4929C14.3257 19.5942 14.4608 19.6956 14.6 19.8C14.6 19.998 14.6 20.196 14.6 20.4C14.3122 20.3094 14.0247 20.2175 13.7375 20.125C13.4974 20.0484 13.4974 20.0484 13.2524 19.9703C12.8 19.8 12.8 19.8 12.2 19.4C12.2 19.268 12.2 19.136 12.2 19C12.068 19 11.936 19 11.8 19C11.8 18.868 11.8 18.736 11.8 18.6C11.668 18.534 11.536 18.468 11.4 18.4C11.532 18.334 11.664 18.268 11.8 18.2Z" fill="#C67D00"/>
<path d="M4 20.6125C4.6069 20.8021 5.07476 21.0447 5.6 21.4C5.45 22.725 5.45 22.725 5 23.4C4.99252 23.2747 4.98505 23.1494 4.97734 23.0203C4.9642 22.8568 4.95105 22.6934 4.9375 22.525C4.9259 22.3625 4.9143 22.2001 4.90234 22.0328C4.83402 21.5241 4.83402 21.5241 4.2 21.2C3.65053 21.096 3.33708 21.1072 2.86875 21.4242C2.57038 21.6726 2.28426 21.9355 2 22.2C2.37079 21.2561 2.9418 20.5904 4 20.6125Z" fill="#F3BE1D"/>
<path d="M8.8 13C8.866 13 8.932 13 9 13C9.41752 18.4576 9.41752 18.4576 8.8 19.6C8.375 19.775 8.375 19.775 8 19.8C8.066 19.668 8.132 19.536 8.2 19.4C8.332 19.4 8.464 19.4 8.6 19.4C8.666 17.288 8.732 15.176 8.8 13Z" fill="#CF8800"/>
<path d="M12.2 20.4C13.0738 20.4514 13.5036 20.5201 14.1875 21.0875C14.6 21.6 14.6 21.6 14.6 22C13.7261 21.9486 13.2963 21.88 12.6125 21.3125C12.2 20.8 12.2 20.8 12.2 20.4Z" fill="#F3BF21"/>
<path d="M7.8 8.40002C7.73813 8.6104 7.67625 8.82077 7.6125 9.03752C7.39649 9.76375 7.39649 9.76375 7.3 10.375C7.267 10.5153 7.234 10.6555 7.2 10.8C7.002 10.899 7.002 10.899 6.8 11C6.8 10.868 6.8 10.736 6.8 10.6C6.536 10.534 6.272 10.468 6 10.4C6.06176 9.67954 6.1989 9.40133 6.675 8.83752C7.2 8.40002 7.2 8.40002 7.8 8.40002Z" fill="#E7A800"/>
<path d="M12 7.00004C12 7.33004 12 7.66004 12 8.00004C11.934 7.73604 11.868 7.47204 11.8 7.20004C9.94518 7.83447 8.71615 8.48783 7.81245 10.275C7.67169 10.5819 7.53301 10.8898 7.39995 11.2C7.2687 10.8547 7.2687 10.8547 7.19995 10.4C7.8443 8.97104 8.99238 7.75537 10.425 7.12504C10.9718 7.00615 11.4426 6.96725 12 7.00004Z" fill="#F8C733"/>
<path d="M9.20004 12.2C9.26604 12.2 9.33204 12.2 9.40004 12.2C9.42427 12.376 9.4485 12.5521 9.47347 12.7335C9.50699 12.9658 9.5405 13.1981 9.57504 13.4375C9.60752 13.6672 9.64 13.8969 9.67347 14.1335C9.7745 14.7911 9.7745 14.7911 10.025 15.3375C10.2882 16.0329 10.04 16.5202 9.80003 17.2C9.66803 17.2 9.53604 17.2 9.40004 17.2C9.23138 15.5285 9.17565 13.8796 9.20004 12.2Z" fill="#AF6200"/>
<path d="M22 6.20005C22.066 6.39805 22.132 6.59605 22.2 6.80005C21.9142 6.77143 21.9142 6.77143 21.6227 6.74224C21.3718 6.72007 21.121 6.69789 20.8625 6.67505C20.6143 6.65185 20.366 6.62864 20.1102 6.60474C19.4143 6.60014 19.0151 6.69195 18.4 7.00005C18.425 6.62505 18.425 6.62505 18.6 6.20005C19.7083 5.55844 20.8235 5.9279 22 6.20005Z" fill="#EBAE02"/>
<path d="M12.4001 9.39996C12.4661 9.53196 12.5321 9.66396 12.6001 9.79996C12.3814 9.75459 12.1628 9.70921 11.9376 9.66246C11.2347 9.52111 11.2347 9.52111 10.8876 9.83121C10.541 10.2757 10.3066 10.7296 10.0626 11.2375C9.97516 11.4177 9.88776 11.5979 9.79771 11.7836C9.73249 11.921 9.66726 12.0584 9.60006 12.2C9.35522 11.4124 9.50341 10.9677 9.80006 10.2C9.93206 10.2 10.0641 10.2 10.2001 10.2C10.2496 10.0762 10.2991 9.95246 10.3501 9.82496C10.9007 8.88879 11.4953 8.91089 12.4001 9.39996Z" fill="#AA5F00"/>
<path d="M15.4 21C15.8 21.6 15.8 21.6 15.75 22.3125C15.6 23 15.6 23 15.2 23.4C14.5796 23.5402 14.0197 23.5422 13.4 23.4C12.902 22.9949 12.5488 22.5363 12.2 22C12.9656 22.3578 12.9656 22.3578 13.275 22.7375C13.61 23.0685 13.61 23.0685 14.2125 22.9625C14.819 22.8467 14.819 22.8467 15.2 22.4C15.28 21.9354 15.3479 21.4685 15.4 21Z" fill="#C47A00"/>
<path d="M21.2 20C21.6 20.4 21.6 20.4 21.6 21C21.217 21.1632 20.8336 21.3255 20.45 21.4875C20.2366 21.578 20.0231 21.6685 19.8031 21.7617C19.3317 21.948 18.894 22.0957 18.4 22.2C19.0881 21.4259 19.7181 20.9975 20.6656 20.5789C21.0375 20.4214 21.0375 20.4214 21.2 20Z" fill="#E09E00"/>
<path d="M22 16.8C22.066 16.998 22.132 17.196 22.2 17.4C21.9509 17.6261 21.7007 17.8509 21.45 18.075C21.3107 18.2003 21.1715 18.3256 21.0281 18.4547C20.6236 18.781 20.2868 19.02 19.8 19.2C19.602 19.134 19.404 19.068 19.2 19C19.3183 18.9083 19.4366 18.8165 19.5585 18.7219C20.3767 18.0866 21.1936 17.4503 22 16.8Z" fill="#C27600"/>
<path d="M19.4875 5.85005C19.5906 5.89955 19.6937 5.94905 19.8 6.00005C19.5154 6.06811 19.5154 6.06811 19.225 6.13755C18.5594 6.33272 18.5594 6.33272 18.375 6.91255C18.2884 7.15386 18.2884 7.15386 18.2 7.40005C17.9333 7.46672 17.6666 7.53338 17.4 7.60005C17.1407 8.09812 17.1407 8.09812 17 8.60005C16.868 8.33605 16.736 8.07205 16.6 7.80005C17.3011 6.86517 18.1909 5.71707 19.4875 5.85005Z" fill="#D59200"/>
<path d="M25.4 12.6C25.466 12.6 25.532 12.6 25.6 12.6C25.6454 12.798 25.6908 12.996 25.7375 13.2C25.953 13.9754 26.3345 14.5672 26.7953 15.2211C27 15.6 27 15.6 27 16.4C26.868 16.4 26.736 16.4 26.6 16.4C26.5302 16.2724 26.4603 16.1447 26.3883 16.0133C26.2973 15.848 26.2063 15.6827 26.1125 15.5125C26.022 15.3477 25.9315 15.183 25.8383 15.0133C25.6327 14.6154 25.6327 14.6154 25.4 14.4C25.3857 14.0961 25.3832 13.7916 25.3875 13.4875C25.3893 13.3222 25.3911 13.157 25.393 12.9867C25.3953 12.8591 25.3976 12.7315 25.4 12.6Z" fill="#F7C62F"/>
<path d="M13.6 7.19995C14.062 7.26595 14.524 7.33195 15 7.39995C15.125 7.86245 15.125 7.86245 15.2 8.39995C15.002 8.69695 15.002 8.69695 14.8 8.99995C14.175 9.03745 14.175 9.03745 13.6 8.99995C13.6 8.93395 13.6 8.86795 13.6 8.79995C13.93 8.79995 14.26 8.79995 14.6 8.79995C14.4915 8.04077 14.1597 7.70553 13.6 7.19995Z" fill="#DD9A00"/>
<path d="M5.80002 15C5.99328 15.5218 6.02547 15.7372 5.81252 16.2625C5.54839 16.9306 5.5721 17.4881 5.60002 18.2C5.46802 18.2 5.33602 18.2 5.20002 18.2C4.8478 16.2628 4.8478 16.2628 5.38752 15.475C5.5917 15.2399 5.5917 15.2399 5.80002 15Z" fill="#FBCD3F"/>
<path d="M20.6 8.19995C21.5786 8.52617 22.1417 8.91698 22.6344 9.83823C23.0516 10.7285 23.0516 10.7285 23.2 11.2C23.134 11.332 23.068 11.464 23 11.6C22.8657 11.3421 22.7326 11.0837 22.6 10.825C22.5257 10.6811 22.4515 10.5372 22.375 10.389C22.2 9.99995 22.2 9.99995 22.2 9.59995C22.068 9.59995 21.936 9.59995 21.8 9.59995C21.8 9.46795 21.8 9.33595 21.8 9.19995C21.6391 9.14633 21.4782 9.0927 21.3125 9.03745C21.1434 8.95908 20.9742 8.8807 20.8 8.79995C20.734 8.60195 20.668 8.40395 20.6 8.19995Z" fill="#E7AA07"/>
<path d="M8.00005 20.6C8.13205 20.6 8.26405 20.6 8.40005 20.6C8.40005 20.732 8.40005 20.864 8.40005 21C8.52535 21.0098 8.65064 21.0196 8.77974 21.0297C9.02492 21.0521 9.02492 21.0521 9.27505 21.075C9.51868 21.0959 9.51868 21.0959 9.76724 21.1172C10.2 21.2 10.2 21.2 10.6 21.6C9.67605 21.6 8.75205 21.6 7.80005 21.6C7.86605 21.27 7.93205 20.94 8.00005 20.6Z" fill="#B16400"/>
<path d="M23.8 20.8001C23.8 20.9321 23.8 21.0641 23.8 21.2001C23.5107 21.2399 23.5107 21.2399 23.2156 21.2805C22.8366 21.3335 22.8366 21.3335 22.45 21.3876C22.1994 21.4224 21.9488 21.4572 21.6906 21.493C21.18 21.5722 20.6962 21.6609 20.2 21.8001C20.6596 21.2626 20.9965 21.1032 21.6875 20.9751C21.8398 20.9457 21.9922 20.9163 22.1492 20.886C22.2979 20.8576 22.4467 20.8293 22.6 20.8001C22.7425 20.7593 22.8851 20.7186 23.032 20.6766C23.4 20.6001 23.4 20.6001 23.8 20.8001Z" fill="#C67C00"/>
<path d="M21.6 9.19995C21.666 9.33195 21.732 9.46395 21.8 9.59995C21.932 9.59995 22.064 9.59995 22.2 9.59995C22.6306 10.3715 22.8785 10.9102 22.8 11.8C22.668 11.8 22.536 11.8 22.4 11.8C22.2654 11.4797 22.1323 11.1587 22 10.8375C21.9257 10.6588 21.8515 10.4801 21.775 10.296C21.6 9.79995 21.6 9.79995 21.6 9.19995Z" fill="#CA8200"/>
<path d="M17.6001 7.19995C17.7321 7.19995 17.8641 7.19995 18.0001 7.19995C17.9382 7.31545 17.8763 7.43095 17.8126 7.54995C17.6149 7.96854 17.4967 8.34902 17.4001 8.79995C17.7961 8.73395 18.1921 8.66795 18.6001 8.59995C18.6001 8.73195 18.6001 8.86395 18.6001 8.99995C18.2041 9.06595 17.8081 9.13195 17.4001 9.19995C17.0001 8.59995 17.0001 8.59995 17.0501 8.08745C17.2001 7.59995 17.2001 7.59995 17.6001 7.19995Z" fill="#E5A602"/>
<path d="M4.80002 23.8C4.86602 23.998 4.93202 24.196 5.00002 24.4C4.70002 24.95 4.70002 24.95 4.20002 25.4C3.40115 25.3863 2.97374 25.3738 2.40002 24.8C2.523 24.7949 2.64598 24.7897 2.77268 24.7844C3.79853 24.7438 3.79853 24.7438 4.61252 24.1875C4.6744 24.0597 4.73627 23.9318 4.80002 23.8Z" fill="#EBB00B"/>
<path d="M12.2 7.19995C12.6 7.39995 12.6 7.39995 12.7875 7.78745C12.9907 8.26389 12.9907 8.26389 13.6 8.59995C13.6 8.73195 13.6 8.86395 13.6 8.99995C13.93 8.99995 14.26 8.99995 14.6 8.99995C14.6 9.06595 14.6 9.13195 14.6 9.19995C13.8335 9.27295 13.4271 9.21298 12.725 8.87495C12.2 8.39995 12.2 8.39995 12.125 7.74995C12.1497 7.56845 12.1745 7.38695 12.2 7.19995Z" fill="#D69200"/>
<path d="M2.59995 16.8C2.73195 16.8 2.86395 16.8 2.99995 16.8C2.93395 17.79 2.86795 18.78 2.79995 19.8C2.60195 19.866 2.40395 19.932 2.19995 20C2.33195 18.944 2.46395 17.888 2.59995 16.8Z" fill="#B76F00"/>
<path d="M22.4 9.59998C23 9.79998 23 9.79998 23.3125 10.3125C24.1428 12.298 24.1428 12.298 23.8 13.4C23.7157 13.1592 23.6314 12.9184 23.5446 12.6703C23.4339 12.3552 23.3232 12.0401 23.2125 11.725C23.1292 11.4868 23.1292 11.4868 23.0442 11.2437C22.9907 11.0916 22.9372 10.9395 22.8821 10.7828C22.8328 10.6424 22.7836 10.5021 22.7329 10.3575C22.6025 9.98697 22.6025 9.98697 22.4 9.59998Z" fill="#F9CA39"/>
<path d="M26.4 23.2C26.7315 23.6262 27.0228 24.0406 27.2875 24.5125C27.6086 25.0133 27.9065 25.2766 28.4 25.6C27.8375 25.6625 27.8375 25.6625 27.2 25.6C26.5694 24.8823 26.4912 24.1303 26.4 23.2Z" fill="#DA9600"/>
<path d="M17.6 20.6C17.732 20.666 17.864 20.732 18 20.8C17.868 20.932 17.736 21.064 17.6 21.2C17.4705 21.7141 17.4705 21.7141 17.4 22.2C17.73 22.2 18.06 22.2 18.4 22.2C18.4 22.332 18.4 22.464 18.4 22.6C18.0001 22.6085 17.5999 22.6081 17.2 22.6C17.134 22.534 17.068 22.468 17 22.4C17.12 21.08 17.12 21.08 17.6 20.6Z" fill="#E4A400"/>
<path d="M15.2 7.80005C15.332 8.06405 15.464 8.32805 15.6 8.60005C15.1375 9.10005 15.1375 9.10005 14.6 9.60005C14.402 9.60005 14.204 9.60005 14 9.60005C13.934 9.73205 13.868 9.86405 13.8 10C13.734 9.73605 13.668 9.47205 13.6 9.20005C13.7897 9.15467 13.9795 9.1093 14.175 9.06255C14.8386 8.86188 14.8386 8.86188 15.075 8.27505C15.1162 8.1183 15.1575 7.96155 15.2 7.80005Z" fill="#C37900"/>
<path d="M12.2 20.4C13.5046 20.5231 13.5046 20.5231 13.9875 20.9125C14.0576 21.0074 14.1277 21.1023 14.2 21.2C13.87 21.2 13.54 21.2 13.2 21.2C13.134 21.332 13.068 21.464 13 21.6C12.7248 21.3421 12.4584 21.0746 12.2 20.8C12.2 20.668 12.2 20.536 12.2 20.4Z" fill="#F0B810"/>
<path d="M11.8 18.2C12.4393 18.5076 13.0432 18.8577 13.65 19.225C13.8284 19.3327 14.0068 19.4405 14.1906 19.5515C14.3933 19.6745 14.3933 19.6745 14.6 19.8C14 20 14 20 13.6266 19.8148C13.4278 19.6775 13.4278 19.6775 13.225 19.5375C12.6322 19.1437 12.0773 18.8328 11.4 18.6C11.532 18.468 11.664 18.336 11.8 18.2Z" fill="#B16400"/>
<path d="M20.8 19.2C20.866 19.332 20.932 19.464 21 19.6C20.7511 19.7069 20.5008 19.8105 20.25 19.9125C20.1108 19.9706 19.9715 20.0286 19.8281 20.0883C19.34 20.2157 19.0719 20.1605 18.6 20C19.3594 19.4349 19.8371 19.0868 20.8 19.2Z" fill="#E09E00"/>
<path d="M16.4 8.19995C16.532 8.19995 16.664 8.19995 16.8 8.19995C16.8 8.33195 16.8 8.46395 16.8 8.59995C16.932 8.59995 17.064 8.59995 17.2 8.59995C17.266 8.73195 17.332 8.86395 17.4 8.99995C17.928 8.93395 18.456 8.86795 19 8.79995C18.6603 9.21118 18.4152 9.3941 17.9125 9.58745C17.4 9.59995 17.4 9.59995 16.95 9.24995C16.6 8.79995 16.6 8.79995 16.4 8.19995Z" fill="#C57C00"/>
<path d="M1.20002 21.4C1.40656 21.9577 1.40904 22.1736 1.21252 22.75C1.1424 22.8985 1.07227 23.047 1.00002 23.2C0.802024 23.2 0.604024 23.2 0.400024 23.2C0.506163 22.4358 0.699428 21.9877 1.20002 21.4Z" fill="#D48E00"/>
<path d="M19.2 20.8C19.0625 21.1875 19.0625 21.1875 18.8 21.6C18.275 21.75 18.275 21.75 17.8 21.8C17.8625 21.4125 17.8625 21.4125 18 21C18.6 20.8 18.6 20.8 19.2 20.8Z" fill="#F5C125"/>
<path d="M26 24.6C26.1237 24.699 26.2475 24.798 26.375 24.9C26.7678 25.2384 26.7678 25.2384 27.2 25.2C27.2 25.332 27.2 25.464 27.2 25.6C27.464 25.666 27.728 25.732 28 25.8C27.3426 25.9599 27.058 26.0193 26.4 25.8C26.1625 25.1875 26.1625 25.1875 26 24.6Z" fill="#C07400"/>
<path d="M26.6 16.4C26.732 16.4 26.864 16.4 27 16.4C27.05 17.0625 27.05 17.0625 27 17.8C26.6 18.1875 26.6 18.1875 26.2 18.4C26.068 18.334 25.936 18.268 25.8 18.2C25.8949 18.0886 25.9898 17.9773 26.0875 17.8625C26.4248 17.3633 26.518 16.9911 26.6 16.4Z" fill="#FACB3C"/>
<path d="M16.2 20.8C16.266 20.8 16.332 20.8 16.4 20.8C16.4074 20.9184 16.4149 21.0367 16.4226 21.1586C16.5027 22.1214 16.6077 22.8017 17.2 23.6C16.425 23.425 16.425 23.425 16.2 23.2C16.1855 22.7961 16.1832 22.3917 16.1875 21.9875C16.1893 21.7666 16.1911 21.5457 16.1929 21.318C16.1953 21.1471 16.1976 20.9762 16.2 20.8Z" fill="#BC7000"/>
<path d="M20 21.4C20.132 21.466 20.264 21.532 20.4 21.6C20.1154 21.7856 20.1154 21.7856 19.825 21.975C19.2112 22.364 19.2112 22.364 18.8 22.8C18.275 22.825 18.275 22.825 17.8 22.8C17.998 22.734 18.196 22.668 18.4 22.6C18.4 22.468 18.4 22.336 18.4 22.2C18.6574 22.0606 18.9159 21.9235 19.175 21.7875C19.3908 21.6727 19.3908 21.6727 19.611 21.5555C19.7394 21.5042 19.8678 21.4529 20 21.4Z" fill="#D38D00"/>
<path d="M5.39998 14.6C5.53198 14.666 5.66398 14.732 5.79998 14.8C5.73022 15.4511 5.59571 15.6037 5.08748 16.05C4.84616 16.2232 4.84616 16.2232 4.59998 16.4C4.72305 15.2923 4.72305 15.2923 5.11248 14.825C5.20735 14.7507 5.30223 14.6765 5.39998 14.6Z" fill="#F0BA13"/>
<path d="M6.6 10.6C6.798 10.666 6.996 10.732 7.2 10.8C6.96965 11.2936 6.79043 11.6095 6.4 12C6.268 11.934 6.136 11.868 6 11.8C6.11469 11.2265 6.17229 11.0277 6.6 10.6Z" fill="#EFB70E"/>
<path d="M19.8 8.40002C19.8 8.59802 19.8 8.79602 19.8 9.00002C19.998 9.00002 20.196 9.00002 20.4 9.00002C19.65 9.60002 19.65 9.60002 19.2 9.60002C19.2 9.46802 19.2 9.33602 19.2 9.20002C19.068 9.13402 18.936 9.06802 18.8 9.00002C19.35 8.40002 19.35 8.40002 19.8 8.40002Z" fill="#BA6D00"/>
<path d="M19.4 7.19995C19.2853 7.7734 19.2277 7.97224 18.8 8.39995C18.375 8.32495 18.375 8.32495 18 8.19995C18.95 7.19995 18.95 7.19995 19.4 7.19995Z" fill="#FBCD40"/>
<path d="M23 8.59998C23.6529 8.9608 23.9779 9.16676 24.4 9.79998C24.325 10.2375 24.325 10.2375 24.2 10.6C23.9988 10.3425 23.7991 10.084 23.6 9.82498C23.4886 9.68112 23.3773 9.53726 23.2625 9.38904C23 8.99998 23 8.99998 23 8.59998Z" fill="#FACC3C"/>
<path d="M11 6.99997C10.4668 7.35538 9.99434 7.57507 9.39995 7.79997C9.33395 7.60197 9.26795 7.40397 9.19995 7.19997C9.87011 6.77802 10.2442 6.79003 11 6.99997Z" fill="#F3BF1F"/>
<path d="M26.2 14.8C26.6 15.15 26.6 15.15 27 15.6C27 15.864 27 16.128 27 16.4C26.868 16.4 26.736 16.4 26.6 16.4C26.247 15.7824 26.2 15.5534 26.2 14.8Z" fill="#F4C124"/>
<path d="M15.2 9C15.3125 9.3875 15.3125 9.3875 15.4 9.8C15.2 10 15.2 10 14.6875 10.0125C14.4461 10.0063 14.4461 10.0063 14.2 10C14.2 9.868 14.2 9.736 14.2 9.6C14.7 9.275 14.7 9.275 15.2 9Z" fill="#DA9500"/>
<path d="M13.6 7.19995C14.194 7.29895 14.194 7.29895 14.8 7.39995C14.8 7.79595 14.8 8.19195 14.8 8.59995C13.825 7.64995 13.825 7.64995 13.6 7.19995Z" fill="#E9AD03"/>
<path d="M8.79995 7.40002C8.99795 7.40002 9.19595 7.40002 9.39995 7.40002C9.24995 7.78752 9.24995 7.78752 8.99995 8.20002C8.57495 8.35002 8.57495 8.35002 8.19995 8.40002C8.57495 7.62502 8.57495 7.62502 8.79995 7.40002Z" fill="#F0B911"/>
</svg>
