<svg width="23" height="23" viewBox="0 0 23 23" fill="none" xmlns="http://www.w3.org/2000/svg">
<path d="M9.90974 4.38443C10.523 4.88504 11.0012 5.47126 11.3562 6.1813C11.4511 6.1813 11.546 6.1813 11.6437 6.1813C11.8369 5.89483 12.0283 5.60714 12.2187 5.3188C12.767 4.71424 13.2626 4.22021 14.0948 4.11153C15.2212 4.11962 16.1311 4.13989 17.0254 4.89654C17.2077 5.10556 17.2077 5.10556 17.3937 5.3188C17.493 5.42628 17.5924 5.53376 17.6947 5.64449C18.0314 6.01035 18.3605 6.38177 18.6875 6.7563C18.7683 6.84636 18.8491 6.93642 18.9323 7.02921C19.6078 7.8434 19.9493 8.80177 20.3089 9.78299C20.4077 10.0496 20.5119 10.3142 20.6163 10.5786C20.9414 11.4263 21.1637 12.1947 21.257 13.0993C21.3895 14.2503 21.8882 15.2758 22.7125 16.1001C22.6877 16.5436 22.6089 16.7695 22.3273 17.1153C21.2624 18.0551 20.2776 18.6876 18.8312 18.6876C18.0485 17.1933 18.0485 17.1933 17.25 15.6688C15.6402 15.6017 14.8161 15.7076 13.6203 16.7739C13.5306 16.8604 13.4409 16.947 13.3485 17.0361C13.0571 17.2694 12.8765 17.3567 12.5062 17.3938C12.3669 17.3197 12.2275 17.2456 12.084 17.1692C11.6624 16.9125 11.6624 16.9125 11.2664 17.0704C11.1537 17.1297 11.041 17.189 10.925 17.2501C10.5131 17.4228 10.3836 17.406 9.95466 17.2501C9.45445 16.9422 9.05326 16.5929 8.6289 16.1893C7.99493 15.6824 7.43609 15.6347 6.63942 15.6508C6.34591 15.6568 6.05239 15.6627 5.74997 15.6688C5.22816 16.665 4.70635 17.6612 4.16872 18.6876C2.57585 18.5106 1.58562 18.0327 0.43796 16.935C0.287472 16.6751 0.287472 16.6751 0.303756 16.3331C0.45271 15.8928 0.661764 15.5662 0.925362 15.1836C1.40642 14.4454 1.66764 13.8453 1.77382 12.9628C1.9128 11.8656 2.19666 10.9712 2.66103 9.9671C2.84927 9.54517 2.9861 9.13856 3.11755 8.69693C3.47089 7.68908 4.16815 6.91606 4.84887 6.11097C4.99983 5.93119 5.14591 5.74734 5.29065 5.56251C6.32572 4.25887 8.33852 3.58473 9.90974 4.38443ZM7.72653 6.93599C6.87811 8.26903 6.87811 8.26903 6.66694 9.8065C7.01226 11.3528 7.94638 12.7803 9.27578 13.633C9.36936 13.6911 9.46293 13.7492 9.55935 13.809C10.2393 14.2352 10.7896 14.6617 11.3562 15.2376C11.686 15.2714 11.686 15.2714 11.9672 14.9147C12.0976 14.784 12.2281 14.6534 12.3625 14.5188C12.645 14.317 12.9327 14.1223 13.225 13.9348C14.1649 13.3294 14.8271 12.8406 15.4082 11.8684C15.5051 11.7085 15.602 11.5486 15.7019 11.3838C16.1927 10.4985 16.4228 9.77931 16.2437 8.7688C15.9781 8.09946 15.6813 7.46928 15.2375 6.90005C14.7116 6.70131 14.5419 6.7483 13.9976 6.93599C13.528 7.14849 13.528 7.14849 13.2789 7.42115C12.9862 7.71384 12.7727 7.73458 12.3625 7.76255C12.2024 7.71215 12.0423 7.66175 11.8773 7.60982C11.3547 7.42716 11.3547 7.42716 10.8351 7.62779C10.35 7.76255 10.35 7.76255 9.94567 7.58287C9.63122 7.3313 9.63122 7.3313 9.34372 7.0438C8.79183 6.83285 8.2616 6.63873 7.72653 6.93599Z" fill="#DF9D00"/>
<path d="M9.92771 4.41134C10.3495 4.7434 10.6582 4.99557 10.925 5.46251C10.904 5.99828 10.8758 6.23044 10.4937 6.61251C10.0018 6.66598 9.73645 6.69223 9.33474 6.3879C9.06776 6.14112 9.06776 6.14112 8.71482 6.2172C8.5903 6.25278 8.46577 6.28836 8.33748 6.32501C8.05012 6.37381 7.76265 6.42193 7.47498 6.46876C7.42754 6.75339 7.3801 7.03801 7.33123 7.33126C7.14148 7.3787 6.95173 7.42614 6.75623 7.47501C6.62382 8.14241 6.59738 8.783 6.60854 9.46056C6.61036 9.67656 6.61214 9.89256 6.61388 10.1086C6.61745 10.4454 6.62147 10.7823 6.62627 11.1192C6.63063 11.4468 6.63317 11.7743 6.6355 12.102C6.63743 12.2017 6.63937 12.3015 6.64136 12.4042C6.64567 13.2478 6.53957 13.8515 5.9656 14.4828C5.84701 14.5896 5.72841 14.6963 5.60623 14.8063C5.24479 15.1677 5.15765 15.4931 4.9863 15.9742C4.69083 16.7619 4.37529 17.4315 3.88123 18.1125C3.78635 18.1125 3.69148 18.1125 3.59373 18.1125C3.59373 18.2074 3.59373 18.3023 3.59373 18.4C2.58217 18.532 1.95759 18.1187 1.14998 17.5375C0.796093 17.2628 0.569197 17.0329 0.287476 16.675C0.323956 16.066 0.584968 15.6776 0.925366 15.1836C1.40643 14.4453 1.66764 13.8452 1.77383 12.9628C1.9128 11.8656 2.19667 10.9712 2.66104 9.96705C2.84927 9.54513 2.9861 9.13852 3.11755 8.69689C3.4709 7.68904 4.16815 6.91602 4.84887 6.11093C4.99983 5.93115 5.14592 5.74729 5.29065 5.56246C6.32886 4.25488 8.36544 3.56908 9.92771 4.41134Z" fill="#D99500"/>
<path d="M10.925 5.6062C11.0228 5.74851 11.0228 5.74851 11.1227 5.8937C11.1997 5.98858 11.2768 6.08345 11.3562 6.1812C11.4511 6.1812 11.546 6.1812 11.6437 6.1812C11.6912 6.08633 11.7386 5.99145 11.7875 5.8937C11.8824 5.8937 11.9772 5.8937 12.075 5.8937C12.075 5.98858 12.075 6.08345 12.075 6.1812C12.1699 6.1812 12.2647 6.1812 12.3625 6.1812C12.4337 6.32351 12.4337 6.32351 12.5062 6.4687C13.0986 6.39427 13.0986 6.39427 13.6445 6.17053C14.1131 5.96215 14.4606 6.08236 14.9427 6.20703C15.2375 6.32495 15.2375 6.32495 15.507 6.6394C15.5604 6.77282 15.6138 6.90624 15.6687 7.0437C15.7488 7.21566 15.8289 7.38762 15.9113 7.56479C16.1 8.04995 16.1 8.04995 16.1 8.4812C16.1949 8.4812 16.2897 8.4812 16.3875 8.4812C16.5486 8.96442 16.5504 9.33836 16.5492 9.84683C16.5498 10.0936 16.5498 10.0936 16.5503 10.3455C16.5312 10.7812 16.5312 10.7812 16.3875 11.2125C16.3168 12.2602 16.3548 13.1267 16.9086 14.0425C17.1062 14.375 17.1062 14.375 17.1062 14.8062C17.2011 14.8062 17.296 14.8062 17.3937 14.8062C18.398 15.7519 18.7034 16.6275 18.8312 17.9687C18.8681 18.2893 18.8681 18.2893 18.975 18.5437C19.1885 18.6149 19.1885 18.6149 19.4062 18.6875C19.2165 18.6875 19.0267 18.6875 18.8312 18.6875C18.0485 17.1932 18.0485 17.1932 17.25 15.6687C15.6402 15.6016 14.8161 15.7075 13.6203 16.7738C13.5306 16.8603 13.4409 16.9469 13.3485 17.036C13.0571 17.2693 12.8765 17.3566 12.5062 17.3937C12.3669 17.3196 12.2276 17.2455 12.084 17.1691C11.6625 16.9124 11.6625 16.9124 11.2664 17.0703C11.1537 17.1296 11.0411 17.1889 10.925 17.25C10.5131 17.4227 10.3836 17.4059 9.95469 17.25C9.45447 16.9421 9.05329 16.5928 8.62893 16.1892C7.99496 15.6823 7.43612 15.6346 6.63945 15.6507C6.34593 15.6567 6.05241 15.6626 5.75 15.6687C5.22819 16.6649 4.70637 17.6611 4.16875 18.6875C3.74181 18.64 3.31487 18.5926 2.875 18.5437C2.875 18.4963 2.875 18.4488 2.875 18.4C3.11219 18.4 3.34937 18.4 3.59375 18.4C3.59375 18.3051 3.59375 18.2102 3.59375 18.1125C3.80722 17.9701 3.80722 17.9701 4.025 17.825C4.21365 17.5284 4.21365 17.5284 4.37539 17.1781C4.46851 16.9857 4.46851 16.9857 4.5635 16.7895C4.73451 16.4081 4.88478 16.0242 5.03125 15.6328C5.27679 14.9999 5.55727 14.5677 6.0375 14.0875C6.13237 14.0875 6.22725 14.0875 6.325 14.0875C6.4574 13.4201 6.48385 12.7795 6.47268 12.1019C6.47086 11.8859 6.46909 11.6699 6.46735 11.4539C6.46378 11.117 6.45975 10.7802 6.45496 10.4433C6.4506 10.1157 6.44806 9.78812 6.44573 9.4605C6.44379 9.36075 6.44186 9.261 6.43986 9.15822C6.43672 8.54314 6.50897 8.04016 6.75625 7.47495C7.06172 7.34917 7.06172 7.34917 7.33125 7.3312C7.33125 7.19778 7.33125 7.06437 7.33125 6.9269C7.475 6.4687 7.475 6.4687 7.72039 6.31035C8.26606 6.0937 8.63222 5.97735 9.2 6.1812C9.34231 6.27608 9.48462 6.37095 9.63125 6.4687C10.0805 6.49271 10.0805 6.49271 10.4937 6.4687C10.6361 6.18408 10.7784 5.89945 10.925 5.6062ZM7.72656 6.93589C6.87814 8.26893 6.87814 8.26893 6.66697 9.8064C7.01229 11.3527 7.94641 12.7802 9.27581 13.6329C9.36938 13.691 9.46296 13.7491 9.55937 13.8089C10.2393 14.2351 10.7897 14.6616 11.3562 15.2375C11.686 15.2713 11.686 15.2713 11.9672 14.9146C12.0976 14.7839 12.2281 14.6533 12.3625 14.5187C12.6451 14.3169 12.9328 14.1222 13.225 13.9347C14.1649 13.3293 14.8272 12.8405 15.4082 11.8683C15.5051 11.7084 15.602 11.5485 15.7019 11.3837C16.1928 10.4984 16.4228 9.7792 16.2437 8.7687C15.9781 8.09936 15.6814 7.46918 15.2375 6.89995C14.7116 6.70121 14.542 6.7482 13.9977 6.93589C13.528 7.14839 13.528 7.14839 13.2789 7.42104C12.9862 7.71373 12.7727 7.73448 12.3625 7.76245C12.2024 7.71205 12.0423 7.66165 11.8773 7.60972C11.3547 7.42706 11.3547 7.42706 10.8352 7.62769C10.35 7.76245 10.35 7.76245 9.9457 7.58276C9.63125 7.3312 9.63125 7.3312 9.34375 7.0437C8.79186 6.83275 8.26163 6.63863 7.72656 6.93589Z" fill="#CB8300"/>
<path d="M15.525 6.61255C15.5725 6.70742 15.6199 6.8023 15.6688 6.90005C15.7636 6.90005 15.8585 6.90005 15.9563 6.90005C16.0753 7.11444 16.1916 7.33039 16.3067 7.54692C16.4042 7.72704 16.4042 7.72704 16.5038 7.91079C16.9349 8.9851 16.8321 10.1648 16.8188 11.3024C16.8151 11.6187 16.8121 11.935 16.8098 12.2514C16.8081 12.3901 16.8065 12.5288 16.8047 12.6717C16.8196 13.1065 16.8822 13.5167 16.9625 13.9438C18.1978 14.0393 19.079 13.9127 20.125 13.225C20.5028 12.8473 20.4766 12.6193 20.5203 12.093C20.5344 11.9422 20.5485 11.7913 20.563 11.6359C20.556 11.196 20.4631 11.0183 20.2688 10.6375C20.3227 10.3141 20.3227 10.3141 20.4125 10.0625C20.8183 11.0817 21.1493 12.002 21.2571 13.0993C21.3896 14.2503 21.8883 15.2758 22.7125 16.1C22.6877 16.5436 22.609 16.7695 22.3273 17.1153C21.5036 17.8422 20.4656 18.7244 19.3052 18.669C18.975 18.5438 18.975 18.5438 18.7925 18.299C18.6693 17.9116 18.629 17.5467 18.5887 17.1422C18.4662 16.3144 18.1991 15.8887 17.6038 15.3128C17.3938 15.0938 17.3938 15.0938 17.3938 14.8063C17.2989 14.8063 17.204 14.8063 17.1063 14.8063C16.4656 13.5809 16.1492 12.6141 16.2438 11.2125C16.2912 11.0702 16.3386 10.9279 16.3875 10.7813C16.3977 10.3876 16.401 9.99782 16.3965 9.60435C16.3959 9.49659 16.3952 9.38884 16.3945 9.27782C16.3929 9.01231 16.3903 8.7468 16.3875 8.4813C16.2926 8.4813 16.1978 8.4813 16.1 8.4813C16.0033 8.25108 15.9077 8.02039 15.8125 7.7895C15.7592 7.66109 15.7058 7.53267 15.6508 7.40037C15.525 7.0438 15.525 7.0438 15.525 6.61255Z" fill="#D28D00"/>
<path d="M9.34375 4.74376C9.4149 4.95723 9.4149 4.95723 9.4875 5.17501C9.7582 5.33434 9.7582 5.33434 10.0625 5.46251C10.2048 5.55739 10.3471 5.65226 10.4937 5.75001C10.4937 5.93976 10.4937 6.12951 10.4937 6.32501C9.99564 6.38194 9.80637 6.34569 9.37968 6.06446C9.05625 5.75001 9.05625 5.75001 8.9125 5.31876C8.86506 5.46107 8.81762 5.60339 8.76875 5.75001C8.49191 5.85108 8.49191 5.85108 8.14882 5.9297C7.61415 6.08721 7.37931 6.22033 7.10664 6.71134C7.03844 6.86847 6.97025 7.02561 6.9 7.18751C6.80512 7.18751 6.71025 7.18751 6.6125 7.18751C6.56506 7.47213 6.51762 7.75676 6.46875 8.05001C6.37387 8.05001 6.279 8.05001 6.18125 8.05001C6.04427 9.15262 5.99397 10.2467 5.96309 11.3568C5.93488 12.1244 5.85523 12.7847 5.60625 13.5125C5.30079 13.5164 4.99531 13.5192 4.68984 13.5215C4.51973 13.5232 4.34962 13.5248 4.17436 13.5265C3.7375 13.5125 3.7375 13.5125 3.45 13.3688C3.21533 12.6648 3.23199 11.9471 3.30625 11.2125C3.57578 10.7453 3.57578 10.7453 3.88125 10.4938C3.97612 10.4938 4.071 10.4938 4.16875 10.4938C4.3911 9.87435 4.54007 9.26306 4.66289 8.61827C4.74375 8.33751 4.74375 8.33751 5.03125 8.05001C5.13509 7.80455 5.23875 7.55901 5.34064 7.31273C5.59124 6.75958 5.91768 6.29765 6.35195 5.87579C6.63526 5.63266 6.63526 5.63266 6.66472 5.3182C6.75625 5.03126 6.75625 5.03126 7.00781 4.87572C7.85343 4.60118 8.46732 4.59073 9.34375 4.74376Z" fill="#FED554"/>
<path d="M15.6058 4.77071C16.2256 4.99145 16.6313 5.29944 17.1062 5.75001C17.0588 5.84489 17.0114 5.93976 16.9625 6.03751C16.915 6.03751 16.8676 6.03751 16.8187 6.03751C16.8706 6.10348 16.9225 6.16945 16.976 6.23741C17.0427 6.32562 17.1094 6.41382 17.1781 6.5047C17.2448 6.59142 17.3115 6.67814 17.3802 6.76749C17.5375 7.04376 17.5375 7.04376 17.5375 7.61876C17.6323 7.61876 17.7272 7.61876 17.825 7.61876C18.3654 8.92265 18.3654 8.92265 18.5347 9.57735C18.7005 10.1038 18.9349 10.4883 19.2451 10.9402C19.6222 11.5775 19.6675 12.3598 19.55 13.0813C19.1618 13.4815 18.7856 13.5431 18.2472 13.5844C17.6812 13.5125 17.6812 13.5125 17.3623 13.2559C16.9713 12.5503 17.0397 11.8709 17.0433 11.0777C17.0159 9.3952 16.8551 7.99349 15.8125 6.61251C15.8125 6.51764 15.8125 6.42276 15.8125 6.32501C15.7241 6.30055 15.6357 6.27609 15.5446 6.25089C14.5838 5.9628 14.5838 5.9628 14.2222 5.57931C14.1555 5.45034 14.1555 5.45034 14.0875 5.31876C13.9867 5.45811 13.8859 5.59746 13.782 5.74103C13.4734 6.1168 13.3891 6.17588 12.8926 6.30704C12.7013 6.31594 12.7013 6.31594 12.5062 6.32501C12.5183 5.91387 12.5879 5.67145 12.8735 5.37154C13.7743 4.59783 14.4232 4.41714 15.6058 4.77071Z" fill="#FED655"/>
<path d="M10.925 5.6062C11.0228 5.74851 11.0228 5.74851 11.1227 5.8937C11.1997 5.98858 11.2768 6.08345 11.3562 6.1812C11.4511 6.1812 11.546 6.1812 11.6437 6.1812C11.6912 6.08633 11.7386 5.99145 11.7875 5.8937C11.8824 5.8937 11.9772 5.8937 12.075 5.8937C12.075 5.98858 12.075 6.08345 12.075 6.1812C12.1699 6.1812 12.2647 6.1812 12.3625 6.1812C12.4337 6.32351 12.4337 6.32351 12.5062 6.4687C13.0986 6.39427 13.0986 6.39427 13.6445 6.17053C14.1131 5.96215 14.4606 6.08236 14.9427 6.20703C15.2375 6.32495 15.2375 6.32495 15.507 6.6394C15.5604 6.77282 15.6138 6.90624 15.6687 7.0437C15.7099 7.12801 15.751 7.21233 15.7934 7.29919C16.1214 7.98569 16.1214 7.98569 15.9562 8.4812C15.8909 8.32805 15.8909 8.32805 15.8243 8.1718C15.7641 8.03968 15.7038 7.90756 15.6418 7.77144C15.5834 7.63969 15.5251 7.50794 15.4649 7.37219C15.2645 7.01518 15.2645 7.01518 14.8854 6.91511C14.3458 6.8928 13.9864 7.08547 13.5125 7.3312C13.4354 7.40829 13.3583 7.48537 13.2789 7.56479C12.9862 7.85748 12.7727 7.87823 12.3625 7.9062C12.2024 7.8558 12.0423 7.8054 11.8773 7.75347C11.3547 7.57081 11.3547 7.57081 10.8352 7.77144C10.35 7.9062 10.35 7.9062 9.9457 7.72651C9.63125 7.47495 9.63125 7.47495 9.34375 7.18745C9.04357 7.07382 9.04357 7.07382 8.70586 6.99878C8.59338 6.96969 8.4809 6.94059 8.36501 6.91062C8.04472 6.86751 8.04472 6.86751 7.81753 7.06841C7.16771 7.92749 6.79296 8.77939 6.84553 9.86479C6.89993 10.2058 6.99126 10.4816 7.12461 10.7992C7.44538 11.5696 7.31296 12.1748 7.02634 12.9318C6.90395 13.226 6.77837 13.5189 6.649 13.8101C6.46837 14.2321 6.3207 14.6565 6.18125 15.0937C6.45698 15.1204 6.45698 15.1204 6.73828 15.1476C7.29531 15.2015 7.29531 15.2015 7.61875 15.525C7.44392 15.488 7.44392 15.488 7.26555 15.4503C6.65063 15.3966 6.31991 15.4145 5.75 15.6687C5.04009 16.5516 4.60482 17.6498 4.16875 18.6875C3.74181 18.64 3.31487 18.5926 2.875 18.5437C2.875 18.4963 2.875 18.4488 2.875 18.4C3.11219 18.4 3.34937 18.4 3.59375 18.4C3.59375 18.3051 3.59375 18.2102 3.59375 18.1125C3.80722 17.9701 3.80722 17.9701 4.025 17.825C4.21365 17.5284 4.21365 17.5284 4.37539 17.1781C4.46851 16.9857 4.46851 16.9857 4.5635 16.7895C4.73451 16.4081 4.88478 16.0242 5.03125 15.6328C5.27679 14.9999 5.55727 14.5677 6.0375 14.0875C6.13237 14.0875 6.22725 14.0875 6.325 14.0875C6.4574 13.4201 6.48385 12.7795 6.47268 12.1019C6.47086 11.8859 6.46909 11.6699 6.46735 11.4539C6.46378 11.117 6.45975 10.7802 6.45496 10.4433C6.4506 10.1157 6.44806 9.78812 6.44573 9.4605C6.44379 9.36075 6.44186 9.261 6.43986 9.15822C6.43672 8.54314 6.50897 8.04016 6.75625 7.47495C7.06172 7.34917 7.06172 7.34917 7.33125 7.3312C7.33125 7.19778 7.33125 7.06437 7.33125 6.9269C7.475 6.4687 7.475 6.4687 7.72039 6.31035C8.26606 6.0937 8.63222 5.97735 9.2 6.1812C9.34231 6.27608 9.48462 6.37095 9.63125 6.4687C10.0805 6.49271 10.0805 6.49271 10.4937 6.4687C10.6361 6.18408 10.7784 5.89945 10.925 5.6062Z" fill="#BC7100"/>
<path d="M8.20271 4.22267C8.32594 4.23564 8.44916 4.24861 8.57612 4.26198C8.91248 4.31251 8.91248 4.31251 9.34373 4.45626C9.34373 4.55114 9.34373 4.64601 9.34373 4.74376C9.15694 4.73487 8.97016 4.72597 8.77771 4.71681C8.07602 4.71792 7.36755 4.80931 6.75623 5.17501C6.66888 5.4502 6.66888 5.4502 6.61248 5.75001C6.42493 6.00101 6.42493 6.00101 6.19919 6.24415C5.6602 6.84891 5.32805 7.44181 5.03123 8.19376C4.93635 8.33607 4.84148 8.47839 4.74373 8.62501C4.65815 8.93285 4.65815 8.93285 4.59998 9.2629C4.47039 9.9467 4.33113 10.3528 3.79419 10.8189C3.3541 11.3222 3.36599 11.7026 3.40505 12.3356C3.41988 12.6765 3.4347 13.0175 3.44998 13.3688C4.16154 13.3688 4.8731 13.3688 5.60623 13.3688C5.69969 12.808 5.76937 12.332 5.78535 11.7757C5.79008 11.6417 5.7948 11.5076 5.79967 11.3695C5.80841 11.0928 5.81666 10.8162 5.82438 10.5395C5.85594 9.6743 5.96808 8.88967 6.18123 8.05001C6.36308 8.60402 6.33952 9.15456 6.32778 9.73009C6.32575 9.8364 6.32372 9.9427 6.32163 10.0522C6.31688 10.2765 6.31166 10.5007 6.30599 10.725C6.29805 11.0676 6.29395 11.4101 6.28988 11.7527C6.28478 11.9709 6.27946 12.1892 6.27388 12.4074C6.27325 12.5096 6.27262 12.6117 6.27198 12.7169C6.25506 13.2089 6.21374 13.4709 5.90717 13.8636C5.57948 14.1074 5.39842 14.1684 4.99529 14.1953C4.8174 14.2072 4.63951 14.219 4.45623 14.2313C4.45623 14.1364 4.45623 14.0415 4.45623 13.9438C4.36135 13.9438 4.26648 13.9438 4.16873 13.9438C4.16873 13.8489 4.16873 13.754 4.16873 13.6563C4.03234 13.6414 3.89596 13.6266 3.75544 13.6113C3.30623 13.5125 3.30623 13.5125 3.01873 13.0813C2.92385 13.1761 2.82898 13.271 2.73123 13.3688C2.7047 12.0161 2.7047 12.0161 2.87498 11.3563C2.73266 11.3563 2.59035 11.3563 2.44373 11.3563C2.55167 10.6546 2.97689 10.1185 3.45054 9.6088C3.82104 9.08097 3.9083 8.59126 4.04294 7.96915C4.40673 6.4946 5.11593 5.31531 6.45076 4.50118C7.0853 4.23468 7.51597 4.14602 8.20271 4.22267Z" fill="#E5A600"/>
<path d="M20.7 14.5188C21.2272 14.9757 21.7881 15.6283 21.9185 16.3191C21.9746 17.3961 21.9746 17.3961 21.6181 17.8009C21.1899 18.0807 20.8053 18.2348 20.3047 18.3372C19.8391 18.2208 19.6977 18.0667 19.4063 17.6813C19.246 17.356 19.1019 17.0282 18.9649 16.6925C18.8274 16.3546 18.8274 16.3546 18.5438 15.9563C18.4539 15.6149 18.4539 15.6149 18.5438 15.2376C19.1642 14.6611 19.8529 14.3306 20.7 14.5188Z" fill="#E9AC03"/>
<path d="M15.8125 12.5062C15.9074 12.5062 16.0022 12.5062 16.1 12.5062C16.193 12.8056 16.2858 13.1051 16.3785 13.4047C16.4302 13.5714 16.4819 13.7382 16.5352 13.91C16.6391 14.2558 16.7361 14.5987 16.8187 14.95C16.4252 15.051 16.0308 15.1379 15.6328 15.2195C14.9927 15.3597 14.41 15.5747 13.8 15.8125C13.609 15.863 13.4174 15.9116 13.225 15.9562C13.225 16.0511 13.225 16.146 13.225 16.2437C12.9375 16.2498 12.6499 16.2496 12.3625 16.2437C12.2187 16.1 12.2187 16.1 12.1918 15.6508C12.2538 15.2313 12.3471 15.1072 12.6724 14.8236C12.9228 14.6531 13.1768 14.4878 13.4344 14.3284C13.7989 14.0882 14.0695 13.8218 14.375 13.5125C14.6625 13.3687 14.95 13.225 15.2375 13.0812C15.4318 12.8923 15.6242 12.7012 15.8125 12.5062Z" fill="#D58F00"/>
<path d="M2.87497 14.8153C3.31119 14.9516 3.64746 15.1259 4.02497 15.3813C3.94772 16.3083 3.6907 17.1531 3.01872 17.825C2.70764 17.8531 2.70764 17.8531 2.35388 17.843C2.2364 17.8404 2.11892 17.8378 1.99787 17.8352C1.90782 17.8318 1.81776 17.8285 1.72497 17.825C1.72497 17.7302 1.72497 17.6353 1.72497 17.5375C1.58266 17.4901 1.44035 17.4427 1.29372 17.3938C1.08772 16.9818 1.10592 16.7019 1.14997 16.2438C1.53817 15.5249 1.99315 14.7969 2.87497 14.8153Z" fill="#FCCF44"/>
<path d="M16.1 8.4812C16.1949 8.4812 16.2897 8.4812 16.3875 8.4812C16.5485 8.96442 16.5503 9.33836 16.5492 9.84683C16.5498 10.0936 16.5498 10.0936 16.5503 10.3455C16.5312 10.7812 16.5312 10.7812 16.3875 11.2125C16.3168 12.2602 16.3548 13.1267 16.9086 14.0425C17.1062 14.375 17.1062 14.375 17.1062 14.8062C17.2011 14.8062 17.296 14.8062 17.3937 14.8062C18.398 15.7519 18.7034 16.6275 18.8312 17.9687C18.868 18.2893 18.868 18.2893 18.975 18.5437C19.1173 18.5911 19.2596 18.6386 19.4062 18.6875C19.2165 18.6875 19.0267 18.6875 18.8312 18.6875C18.3094 17.6913 17.7876 16.6951 17.25 15.6687C16.491 15.6687 15.732 15.6687 14.95 15.6687C15.0937 15.3812 15.0937 15.3812 15.343 15.2919C15.7092 15.2307 16.0523 15.2236 16.4234 15.2285C16.5516 15.2298 16.6799 15.2311 16.812 15.2324C16.9091 15.2341 17.0062 15.2357 17.1062 15.2375C16.9995 15.0862 16.8928 14.935 16.7828 14.7792C16.2823 13.9879 16.0571 13.1153 15.8125 12.2187C15.7113 12.3075 15.6101 12.3962 15.5059 12.4877C14.6992 13.1796 13.8831 13.8223 12.9914 14.4019C12.9046 14.4592 12.8179 14.5164 12.7285 14.5754C12.5166 14.71 12.2963 14.8314 12.075 14.95C11.9801 14.9025 11.8852 14.8551 11.7875 14.8062C11.9971 14.6595 12.2067 14.5127 12.4164 14.366C12.5476 14.2728 12.6788 14.1796 12.8139 14.0835C13.0709 13.9063 13.3325 13.7354 13.6001 13.5748C14.8269 12.8147 15.664 11.5854 16.1 10.2062C16.1345 9.75687 16.1345 9.75687 16.1179 9.29878C16.1154 9.14516 16.1128 8.99155 16.1101 8.83328C16.1067 8.71709 16.1034 8.60091 16.1 8.4812Z" fill="#B36700"/>
<path d="M7.90627 13.6562C8.53161 13.7273 8.85563 13.8466 9.34377 14.2312C9.59282 14.338 9.59282 14.338 9.8469 14.4469C10.6413 14.7873 10.6413 14.7873 10.925 15.0937C10.9923 15.5553 11.007 15.8269 10.7543 16.2258C10.3837 16.4558 10.2061 16.4677 9.77502 16.3875C9.45998 16.171 9.1966 15.9276 8.91252 15.6687C8.81765 15.6213 8.72277 15.5739 8.62502 15.525C8.62502 15.4301 8.62502 15.3352 8.62502 15.2375C8.53904 15.2167 8.45306 15.196 8.36448 15.1746C8.11306 15.11 7.86505 15.0321 7.61877 14.95C7.74456 13.9797 7.74456 13.9797 7.90627 13.6562Z" fill="#E09F00"/>
<path d="M2.91096 14.4738C3.51895 14.6866 4.15505 14.9226 4.45627 15.525C4.52872 16.3471 4.36252 16.8194 3.95315 17.5285C3.85976 17.6929 3.76636 17.8572 3.67014 18.0266C3.5975 18.1498 3.52486 18.273 3.45002 18.4C2.36708 18.4661 1.69228 17.9576 0.86084 17.3135C0.619946 17.0973 0.619946 17.0973 0.287524 16.675C0.277207 16.2417 0.388411 16.0348 0.592993 15.6598C0.975879 15.2641 1.37748 15.0564 1.86877 14.8063C1.96365 14.8063 2.05852 14.8063 2.15627 14.8063C2.15627 14.7114 2.15627 14.6165 2.15627 14.5188C2.44377 14.375 2.44377 14.375 2.91096 14.4738ZM1.6554 15.4189C1.29727 15.8296 1.15851 16.1398 1.11409 16.684C1.11817 17.1336 1.11817 17.1336 1.43752 17.5375C1.5324 17.5375 1.62727 17.5375 1.72502 17.5375C1.72502 17.6324 1.72502 17.7273 1.72502 17.825C2.16378 17.8672 2.58103 17.8841 3.01877 17.825C3.63549 17.2894 3.95208 16.5012 4.0969 15.7047C4.05334 15.352 4.05334 15.352 3.71956 15.1297C2.77736 14.72 2.4086 14.7352 1.6554 15.4189Z" fill="#E4A500"/>
<path d="M16.675 8.33752C17.0644 8.92158 17.1246 9.32147 17.1366 10.0081C17.1427 10.2453 17.1427 10.2453 17.1489 10.4873C17.1564 10.8205 17.1628 11.1536 17.168 11.4868C17.1747 11.7243 17.1747 11.7243 17.1815 11.9667C17.1844 12.1115 17.1872 12.2563 17.1901 12.4054C17.2582 12.8466 17.3753 13.0483 17.6813 13.3688C18.0889 13.464 18.4061 13.4093 18.8313 13.3688C18.9261 13.2739 19.021 13.179 19.1188 13.0813C19.2611 13.0813 19.4034 13.0813 19.55 13.0813C19.4789 12.1562 19.4789 12.1562 19.4063 11.2125C19.5486 11.26 19.6909 11.3074 19.8375 11.3563C19.8553 11.4956 19.8731 11.635 19.8914 11.7785C19.9211 11.9238 19.9507 12.0691 19.9813 12.2188C20.0761 12.2662 20.171 12.3136 20.2688 12.3625C20.3081 12.6927 20.3081 12.6927 20.2688 13.0813C19.9959 13.3351 19.9959 13.3351 19.6399 13.5485C19.5231 13.6204 19.4064 13.6923 19.2861 13.7663C18.8009 14.0431 18.5287 14.1071 17.9688 14.1055C17.8413 14.1059 17.7138 14.1062 17.5824 14.1066C17.25 14.0875 17.25 14.0875 16.9625 13.9438C16.6764 13.2818 16.6363 12.6696 16.6469 11.9594C16.6473 11.8553 16.6478 11.7512 16.6482 11.644C16.6498 11.3145 16.6534 10.985 16.657 10.6555C16.6585 10.4309 16.6598 10.2063 16.661 9.98167C16.6641 9.4336 16.6691 8.88557 16.675 8.33752Z" fill="#EAAE07"/>
<path d="M8.04999 4.16881C9.00515 4.09084 9.56742 4.17606 10.35 4.74381C10.7094 5.08522 10.7094 5.08522 10.925 5.46256C10.904 5.99833 10.8758 6.23049 10.4937 6.61256C10.0018 6.66603 9.73647 6.69228 9.33476 6.38795C9.06778 6.14117 9.06778 6.14117 8.71484 6.21725C8.59031 6.25283 8.46579 6.2884 8.33749 6.32506C8.05014 6.37386 7.76267 6.42198 7.47499 6.46881C7.42756 6.75344 7.38012 7.03806 7.33124 7.33131C7.14149 7.37875 6.95174 7.42619 6.75624 7.47506C6.70719 7.76237 6.65956 8.04992 6.61249 8.33756C6.58878 8.47691 6.56506 8.61626 6.54062 8.75983C6.42918 9.54572 6.41657 10.3394 6.38788 11.1317C6.38168 11.2917 6.37547 11.4517 6.36907 11.6166C6.35392 12.009 6.33924 12.4014 6.32499 12.7938C6.27756 12.7938 6.23012 12.7938 6.18124 12.7938C6.17045 12.2265 6.1627 11.6591 6.15755 11.0917C6.15436 10.8055 6.14888 10.5194 6.14334 10.2333C6.13507 9.14086 6.21168 8.20909 6.61249 7.18756C6.70737 7.18756 6.80224 7.18756 6.89999 7.18756C6.96226 7.06304 6.96226 7.06304 7.02578 6.936C7.07914 6.82926 7.13251 6.72253 7.18749 6.61256C7.22455 6.51472 7.26162 6.41688 7.2998 6.31608C7.47499 6.03756 7.47499 6.03756 7.78608 5.91852C7.90282 5.8985 8.01956 5.87849 8.13984 5.85787C8.25732 5.83638 8.3748 5.81488 8.49584 5.79274C8.63093 5.77161 8.63093 5.77161 8.76874 5.75006C8.81618 5.56031 8.86362 5.37056 8.91249 5.17506C8.97476 5.28772 9.03702 5.40039 9.10117 5.51647C9.39628 5.97553 9.62905 6.14737 10.1613 6.27115C10.271 6.28894 10.3807 6.30673 10.4937 6.32506C10.4869 6.05498 10.4869 6.05498 10.35 5.75006C10.2077 5.65815 10.0654 5.56624 9.91874 5.47154C9.48749 5.17506 9.48749 5.17506 9.36171 4.77975C9.35578 4.67301 9.34985 4.56628 9.34374 4.45631C8.91681 4.40887 8.48987 4.36144 8.04999 4.31256C8.04999 4.26512 8.04999 4.21769 8.04999 4.16881Z" fill="#DC9A01"/>
<path d="M20.1699 15.0039C20.6615 15.1182 20.909 15.3038 21.252 15.6687C21.5645 16.2076 21.4829 16.7924 21.4187 17.3937C20.6294 17.8043 20.6294 17.8043 20.125 17.6812C19.6856 17.1962 19.4337 16.71 19.3344 16.0641C19.4397 15.4848 19.5803 15.1633 20.1699 15.0039Z" fill="#FED553"/>
<path d="M15.8125 12.075C15.8599 12.2173 15.9074 12.3596 15.9563 12.5062C15.7743 12.6717 15.5915 12.8363 15.4082 13.0003C15.3065 13.0921 15.2047 13.1838 15.0999 13.2783C14.8063 13.5125 14.8063 13.5125 14.375 13.6562C14.2979 13.7363 14.2208 13.8163 14.1414 13.8988C13.8142 14.2174 13.5164 14.4042 13.1262 14.6355C12.6635 14.9225 12.6635 14.9225 12.3906 15.3728C12.3427 15.6782 12.3427 15.6782 12.3625 16.1C12.6471 16.1474 12.9318 16.1948 13.225 16.2437C13.225 16.1488 13.225 16.054 13.225 15.9562C14.3064 15.3754 15.4206 14.8582 16.675 14.95C16.8173 14.95 16.9596 14.95 17.1063 14.95C17.1063 15.0448 17.1063 15.1397 17.1063 15.2375C16.9743 15.2532 16.8424 15.269 16.7065 15.2852C15.0908 15.4252 15.0908 15.4252 13.7163 16.1859C13.5125 16.3875 13.5125 16.3875 13.225 16.3875C13.1776 16.5298 13.1301 16.6721 13.0813 16.8187C12.3084 16.8874 12.3084 16.8874 11.9492 16.6121C11.705 16.0558 11.6497 15.5454 11.7875 14.95C12.1049 14.5883 12.4902 14.386 12.9106 14.1593C13.1349 14.0274 13.3587 13.8947 13.5821 13.7612C13.6925 13.6962 13.8028 13.6313 13.9165 13.5643C14.6024 13.138 15.2057 12.6058 15.8125 12.075Z" fill="#CD8500"/>
<path d="M10.4938 14.375C11.1946 14.7523 11.1946 14.7523 11.3563 15.2375C11.4511 15.2375 11.546 15.2375 11.6438 15.2375C11.6912 15.1426 11.7386 15.0477 11.7875 14.95C11.7981 15.0826 11.7981 15.0826 11.8089 15.2178C11.8196 15.334 11.8304 15.4502 11.8414 15.5699C11.8514 15.685 11.8614 15.8001 11.8718 15.9186C11.9163 16.2829 11.9163 16.2829 12.2188 16.675C12.6316 16.771 12.6316 16.771 13.0813 16.675C13.4826 16.3456 13.4826 16.3456 13.8 15.9562C14.0875 15.6687 14.0875 15.6687 14.5367 15.6508C14.6731 15.6567 14.8095 15.6626 14.95 15.6687C14.8551 15.7429 14.7603 15.817 14.6625 15.8934C14.2134 16.2583 13.7885 16.6433 13.3637 17.0361C13.0649 17.2624 12.878 17.3563 12.5063 17.3937C12.3669 17.3196 12.2276 17.2455 12.084 17.1691C11.6625 16.9124 11.6625 16.9124 11.2664 17.0703C11.1538 17.1296 11.0411 17.1889 10.925 17.25C10.5132 17.4227 10.3836 17.406 9.95471 17.25C9.45071 16.9398 9.0472 16.5811 8.61099 16.1842C8.30095 15.9258 8.00741 15.7781 7.61877 15.6687C7.85237 15.5609 7.85237 15.5609 8.19377 15.525C8.64782 15.7804 8.98906 16.0166 9.31682 16.4234C9.7548 16.7738 10.1023 16.7262 10.6482 16.7093C10.9258 16.7037 10.9258 16.7037 11.0688 16.5312C11.2044 15.9575 11.2044 15.9575 11.2125 15.3812C10.8801 14.9648 10.8801 14.9648 10.4938 14.6625C10.4938 14.5676 10.4938 14.4727 10.4938 14.375Z" fill="#B06400"/>
<path d="M16.1 6.90002C16.5312 7.04377 16.5312 7.04377 16.7558 7.41213C17.2529 8.60069 17.301 9.71219 17.3314 10.9823C17.3548 11.6869 17.4086 12.2758 17.6812 12.9375C17.9659 12.985 18.2505 13.0324 18.5437 13.0813C18.8013 12.7796 18.8013 12.7796 18.975 12.3625C18.8694 11.8819 18.8694 11.8819 18.6426 11.3922C18.3097 10.5512 18.1789 9.95307 18.2562 9.05627C18.3037 9.05627 18.3511 9.05627 18.4 9.05627C18.4489 9.26974 18.4489 9.26974 18.4988 9.48752C18.6536 10.0406 18.9219 10.4693 19.2451 10.9402C19.6222 11.5775 19.6675 12.3598 19.55 13.0813C19.1618 13.4816 18.7856 13.5431 18.2472 13.5844C17.6812 13.5125 17.6812 13.5125 17.3623 13.2559C16.9714 12.5504 17.0396 11.8709 17.0433 11.0778C17.0198 9.50751 16.8077 8.31546 16.1 6.90002Z" fill="#F8C835"/>
<path d="M15.6058 4.77071C16.2256 4.99145 16.6313 5.29944 17.1062 5.75001C17.0588 5.84489 17.0114 5.93976 16.9625 6.03751C16.915 6.03751 16.8676 6.03751 16.8187 6.03751C16.8991 6.13646 16.8991 6.13646 16.981 6.23741C17.083 6.36972 17.083 6.36972 17.1871 6.5047C17.2555 6.59142 17.3238 6.67814 17.3943 6.76749C17.5375 7.04376 17.5375 7.04376 17.4875 7.36495C17.4566 7.44871 17.4256 7.53247 17.3937 7.61876C16.5752 6.55128 16.5752 6.55128 16.3156 6.06446C15.9486 5.5293 15.4381 5.36675 14.8242 5.21993C14.673 5.1977 14.673 5.1977 14.5187 5.17501C14.6136 5.4122 14.7085 5.64939 14.8062 5.89376C14.2492 5.6422 14.2492 5.6422 14.0875 5.31876C13.9867 5.45811 13.8859 5.59746 13.782 5.74103C13.4734 6.1168 13.3891 6.17588 12.8926 6.30704C12.7013 6.31594 12.7013 6.31594 12.5062 6.32501C12.5183 5.91387 12.5879 5.67145 12.8735 5.37154C13.7743 4.59783 14.4232 4.41714 15.6058 4.77071Z" fill="#F1BA14"/>
<path d="M5.03125 8.05005C5.03125 9.09562 4.72109 10.0789 4.14179 10.943C3.67066 11.6596 3.64114 12.2427 3.7375 13.0813C4.00878 13.0946 4.00878 13.0946 4.28554 13.1083C4.38727 13.1133 4.489 13.1183 4.59382 13.1234C4.89309 13.1009 4.89309 13.1009 5.13063 12.928C5.41199 12.5123 5.42539 12.1215 5.48046 11.6258C5.49756 11.4817 5.49756 11.4817 5.515 11.3346C5.56426 10.9133 5.60645 10.4916 5.64555 10.0693C5.67273 9.77873 5.71012 9.48914 5.75 9.20005C5.84487 9.15261 5.93975 9.10517 6.0375 9.0563C6.02159 9.61041 6.00284 10.1644 5.98359 10.7184C5.97692 10.9526 5.97692 10.9526 5.97011 11.1915C5.94015 12.013 5.88047 12.7356 5.60625 13.5125C5.30079 13.5164 4.99531 13.5192 4.68984 13.5215C4.51973 13.5232 4.34962 13.5249 4.17436 13.5266C3.7375 13.5125 3.7375 13.5125 3.45 13.3688C3.21533 12.6648 3.23199 11.9472 3.30625 11.2125C3.57578 10.7454 3.57578 10.7454 3.88125 10.4938C3.97612 10.4938 4.071 10.4938 4.16875 10.4938C4.3911 9.87439 4.54007 9.2631 4.66289 8.61831C4.74375 8.33755 4.74375 8.33755 5.03125 8.05005Z" fill="#F5C226"/>
<path d="M4.31249 6.75623C4.50508 7.334 4.33586 7.74197 4.15975 8.30154C4.12736 8.40534 4.09497 8.50915 4.06159 8.6161C3.799 9.40566 3.48217 9.91353 2.87499 10.4937C2.51842 11.0286 2.52369 11.4806 2.49764 12.1019C2.49208 12.2097 2.48653 12.3174 2.4808 12.4285C2.46727 12.6939 2.45535 12.9594 2.44374 13.225C2.34886 13.0827 2.25399 12.9404 2.15624 12.7937C2.1088 13.2681 2.06136 13.7425 2.01249 14.2312C1.79902 14.3024 1.79902 14.3024 1.58124 14.375C1.76282 12.7917 1.97101 11.3825 2.66329 9.93501C2.86459 9.50946 3.01637 9.08986 3.16249 8.64294C3.4201 7.90613 3.80612 7.3453 4.31249 6.75623Z" fill="#D48E00"/>
<path d="M9.34374 4.74376C9.39118 4.88607 9.43861 5.02839 9.48749 5.17501C9.75819 5.33434 9.75819 5.33434 10.0625 5.46251C10.2048 5.55739 10.3471 5.65226 10.4937 5.75001C10.4937 5.93976 10.4937 6.12951 10.4937 6.32501C9.99564 6.38194 9.80636 6.34569 9.37968 6.06446C9.05624 5.75001 9.05624 5.75001 8.91249 5.31876C8.86505 5.46107 8.81761 5.60339 8.76874 5.75001C8.67386 5.75001 8.57899 5.75001 8.48124 5.75001C8.48124 5.56026 8.48124 5.37051 8.48124 5.17501C7.14812 5.63101 6.26476 6.10061 5.61522 7.38517C5.51405 7.60572 5.41438 7.827 5.31874 8.05001C5.22272 7.80294 5.22272 7.80294 5.17499 7.47501C5.32941 7.15606 5.32941 7.15606 5.56132 6.82814C5.641 6.71492 5.72068 6.6017 5.80277 6.48504C6.05001 6.16506 6.32698 5.89177 6.61249 5.60626C6.62935 5.51176 6.64621 5.41725 6.66359 5.31988C6.75624 5.03126 6.75624 5.03126 7.0078 4.87572C7.85342 4.60118 8.46731 4.59073 9.34374 4.74376Z" fill="#F0B914"/>
<path d="M15.2375 14.0876C15.2044 14.4228 15.2044 14.4228 15.0937 14.8063C14.8169 15.0236 14.8169 15.0236 14.4738 15.1926C14.3057 15.278 14.3057 15.278 14.1341 15.365C14.0239 15.4178 13.9136 15.4706 13.8 15.5251C13.6083 15.6208 13.4166 15.7165 13.225 15.8126C13.225 15.9549 13.225 16.0972 13.225 16.2438C12.9376 16.2499 12.6499 16.2497 12.3625 16.2438C12.3151 16.1964 12.2676 16.1489 12.2188 16.1001C12.2407 15.5188 12.2682 15.1964 12.668 14.7614C13.1334 14.4882 13.5642 14.3573 14.0875 14.2313C14.5084 14.091 14.7999 14.0757 15.2375 14.0876Z" fill="#EBAF02"/>
<path d="M6.18127 8.05005C6.36312 8.60406 6.33956 9.1546 6.32783 9.73013C6.3258 9.83643 6.32377 9.94274 6.32167 10.0523C6.31692 10.2765 6.3117 10.5008 6.30603 10.725C6.29809 11.0676 6.29399 11.4101 6.28992 11.7527C6.28483 11.971 6.2795 12.1892 6.27392 12.4075C6.27329 12.5096 6.27266 12.6117 6.27202 12.717C6.25511 13.2089 6.21378 13.4709 5.90721 13.8636C5.57952 14.1075 5.39846 14.1685 4.99533 14.1954C4.81744 14.2072 4.63955 14.2191 4.45627 14.2313C4.45627 14.1364 4.45627 14.0415 4.45627 13.9438C4.36139 13.9438 4.26652 13.9438 4.16877 13.9438C4.16877 13.8489 4.16877 13.754 4.16877 13.6563C4.02942 13.6355 3.89007 13.6148 3.7465 13.5934C3.30627 13.5125 3.30627 13.5125 3.16252 13.3688C3.15216 13.1264 3.15046 12.8836 3.15353 12.6411C3.15483 12.5089 3.15613 12.3768 3.15746 12.2407C3.15913 12.1386 3.1608 12.0365 3.16252 11.9313C3.20996 11.9313 3.25739 11.9313 3.30627 11.9313C3.35371 12.4057 3.40114 12.88 3.45002 13.3688C4.16158 13.3688 4.87314 13.3688 5.60627 13.3688C5.69974 12.808 5.76941 12.3321 5.78539 11.7758C5.79012 11.6417 5.79484 11.5076 5.79971 11.3695C5.80846 11.0929 5.8167 10.8162 5.82442 10.5396C5.85598 9.67434 5.96812 8.8897 6.18127 8.05005Z" fill="#EBB007"/>
<path d="M14.0067 4.20471C14.0808 4.24029 14.1549 4.27586 14.2313 4.31252C14.0267 4.36144 14.0267 4.36144 13.818 4.41135C13.3444 4.55217 13.3444 4.55217 13.1981 4.95041C13.1595 5.07197 13.121 5.19353 13.0813 5.31877C12.9375 5.46252 12.7938 5.60627 12.65 5.75002C12.5473 6.05237 12.5473 6.05237 12.5063 6.32502C13.248 6.0487 13.693 5.7785 14.2313 5.17502C14.258 5.261 14.2846 5.34698 14.3121 5.43557C14.6143 5.89533 15.0245 5.97414 15.525 6.18127C16.1377 6.6364 16.4494 7.33296 16.675 8.05002C16.6276 8.14489 16.5801 8.23977 16.5313 8.33752C16.4347 8.15221 16.3391 7.96644 16.2438 7.78049C16.1904 7.67709 16.137 7.57369 16.0821 7.46716C15.9563 7.18752 15.9563 7.18752 15.9563 6.90002C15.8614 6.90002 15.7665 6.90002 15.6688 6.90002C15.6688 6.80514 15.6688 6.71027 15.6688 6.61252C15.4658 6.53577 15.262 6.46134 15.0578 6.38791C14.9444 6.34622 14.831 6.30452 14.7142 6.26157C14.2087 6.14188 13.911 6.27379 13.4496 6.48674C13.0228 6.63248 12.7903 6.591 12.3625 6.46877C12.3625 6.37389 12.3625 6.27902 12.3625 6.18127C12.2676 6.18127 12.1728 6.18127 12.075 6.18127C11.9582 5.94768 11.9582 5.94768 11.9313 5.60627C12.3902 4.91792 13.1028 4.112 14.0067 4.20471Z" fill="#DC9902"/>
<path d="M2.87497 14.8153C3.31119 14.9516 3.64746 15.1259 4.02497 15.3813C3.94772 16.3083 3.6907 17.1531 3.01872 17.825C2.70764 17.8531 2.70764 17.8531 2.35388 17.843C2.2364 17.8404 2.11892 17.8378 1.99787 17.8352C1.90782 17.8318 1.81776 17.8285 1.72497 17.825C1.72497 17.7302 1.72497 17.6353 1.72497 17.5375C1.58266 17.4901 1.44035 17.4427 1.29372 17.3938C1.08772 16.9818 1.10592 16.7019 1.14997 16.2438C1.53817 15.5249 1.99315 14.7969 2.87497 14.8153ZM1.74407 15.8429C1.47344 16.2703 1.50776 16.6196 1.58122 17.1063C1.82079 17.5563 1.82079 17.5563 2.20115 17.6633C2.70036 17.6865 2.91992 17.5591 3.30622 17.25C3.30622 17.1077 3.30622 16.9654 3.30622 16.8188C3.4011 16.8188 3.49597 16.8188 3.59372 16.8188C3.60149 16.6092 3.60706 16.3996 3.61169 16.1899C3.6167 16.0148 3.6167 16.0148 3.6218 15.8361C3.62444 15.4944 3.62444 15.4944 3.30622 15.2375C2.57035 15.1038 2.22218 15.3147 1.74407 15.8429Z" fill="#F7C52C"/>
<path d="M20.7 14.9499C20.9852 15.2004 20.9852 15.2004 21.239 15.507C21.3669 15.6576 21.3669 15.6576 21.4973 15.8113C21.9012 16.3694 21.8626 16.8704 21.85 17.5374C21.3207 17.8021 20.9801 17.9687 20.3855 17.9687C19.6875 17.7205 19.4752 17.2441 19.1547 16.6031C18.8765 15.8243 18.8765 15.8243 18.975 15.3812C19.3164 15.1296 19.3164 15.1296 19.6937 14.9499C20.0906 14.7515 20.2804 14.8206 20.7 14.9499ZM19.5769 15.3273C19.3477 15.7858 19.3277 16.021 19.4062 16.5312C19.6167 16.9361 19.8608 17.3095 20.125 17.6812C20.7928 17.6115 20.7928 17.6115 21.4187 17.3937C21.5237 16.4999 21.5237 16.4999 21.252 15.6687C20.909 15.3038 20.6615 15.1182 20.1699 15.0038C19.8239 15.0706 19.8239 15.0706 19.5769 15.3273Z" fill="#F3BF22"/>
<path d="M8.19376 14.0875C8.54954 14.2298 8.54954 14.2298 8.91251 14.375C8.91251 14.4699 8.91251 14.5648 8.91251 14.6625C9.04 14.6714 9.16749 14.6803 9.29884 14.6895C9.88598 14.8335 10.1124 15.0652 10.4938 15.525C10.4938 15.6199 10.4938 15.7148 10.4938 15.8125C10.2362 15.7923 9.97861 15.7711 9.72111 15.7496C9.57768 15.738 9.43426 15.7263 9.28649 15.7143C8.91251 15.6688 8.91251 15.6688 8.62501 15.525C8.62501 15.4301 8.62501 15.3353 8.62501 15.2375C8.53607 15.2257 8.44712 15.2138 8.35548 15.2016C8.05001 15.0938 8.05001 15.0938 7.87032 14.7973C7.81696 14.6594 7.81696 14.6594 7.76251 14.5188C7.90482 14.3765 8.04714 14.2341 8.19376 14.0875Z" fill="#E8AB01"/>
<path d="M16.5312 5.6062C17.1512 5.76957 17.3878 6.02757 17.7079 6.57623C17.7792 6.70534 17.7792 6.70534 17.852 6.83706C18.1672 7.46963 18.1672 7.46963 18.6875 7.9062C18.6875 8.00108 18.6875 8.09595 18.6875 8.1937C18.7824 8.1937 18.8773 8.1937 18.975 8.1937C19.0224 8.47833 19.0699 8.76295 19.1188 9.0562C19.0239 9.10364 18.929 9.15108 18.8313 9.19995C18.7838 9.10508 18.7364 9.0102 18.6875 8.91245C18.6401 9.24451 18.5926 9.57658 18.5438 9.9187C18.4963 9.9187 18.4489 9.9187 18.4 9.9187C18.1735 9.15825 17.9904 8.39466 17.825 7.6187C17.7301 7.6187 17.6353 7.6187 17.5375 7.6187C17.4782 7.46749 17.4189 7.31629 17.3578 7.1605C17.1505 6.67047 16.8711 6.30389 16.5312 5.8937C16.5312 5.79883 16.5312 5.70395 16.5312 5.6062Z" fill="#EAAF05"/>
<path d="M13.9437 6.03748C14.3982 6.05214 14.8143 6.16131 15.2375 6.32498C15.507 6.63943 15.507 6.63943 15.6687 7.04373C15.7099 7.12804 15.751 7.21235 15.7934 7.29922C16.1214 7.98572 16.1214 7.98572 15.9562 8.48123C15.9127 8.37912 15.8691 8.27702 15.8243 8.17183C15.7641 8.03971 15.7038 7.90758 15.6418 7.77146C15.5542 7.57383 15.5542 7.57383 15.4649 7.37222C15.2645 7.01521 15.2645 7.01521 14.8854 6.91514C14.3458 6.89283 13.9864 7.0855 13.5125 7.33123C13.4354 7.40831 13.3583 7.4854 13.2789 7.56482C13.0035 7.84026 12.74 7.85522 12.3625 7.90623C12.3625 7.81135 12.3625 7.71648 12.3625 7.61873C12.4752 7.57722 12.5878 7.53571 12.7039 7.49294C13.0951 7.35291 13.0951 7.35291 13.3687 7.04373C13.4162 6.92513 13.4636 6.80654 13.5125 6.68435C13.6562 6.32498 13.6562 6.32498 13.9437 6.03748Z" fill="#AE6300"/>
<path d="M12.1559 6.37895C12.2715 6.50347 12.3871 6.628 12.5062 6.75629C12.8187 6.88009 12.8187 6.88009 13.0812 6.90004C12.9864 7.08979 12.8915 7.27954 12.7937 7.47504C12.4613 7.51098 12.4613 7.51098 12.075 7.47504C11.7909 7.18118 11.6437 7.02688 11.6437 6.61254C11.5489 6.61254 11.454 6.61254 11.3562 6.61254C11.3266 6.72817 11.297 6.8438 11.2664 6.96293C11.2012 7.08449 11.136 7.20605 11.0687 7.33129C10.6195 7.44809 10.6195 7.44809 10.2062 7.47504C10.1588 7.28529 10.1114 7.09554 10.0625 6.90004C10.1752 6.8615 10.2878 6.82296 10.4039 6.78325C10.8217 6.63437 10.8217 6.63437 11.0687 6.18129C11.6056 5.94914 11.7189 5.97392 12.1559 6.37895Z" fill="#CF8800"/>
<path d="M7.76249 4.1687C8.2843 4.26358 8.80611 4.35845 9.34374 4.4562C9.34374 4.55108 9.34374 4.64595 9.34374 4.7437C9.15695 4.73481 8.97017 4.72591 8.77772 4.71675C8.07603 4.71786 7.36757 4.80925 6.75624 5.17495C6.6688 5.44975 6.6688 5.44975 6.61249 5.74995C6.42494 6.00601 6.42494 6.00601 6.19921 6.25308C5.8873 6.60172 5.59244 6.95106 5.31874 7.3312C5.22216 7.07908 5.22216 7.07908 5.17499 6.7562C5.33446 6.47375 5.33446 6.47375 5.5703 6.19019C5.83517 5.86259 6.05663 5.57174 6.2621 5.2019C6.52029 4.809 6.76315 4.65285 7.18749 4.4562C7.37724 4.4562 7.56699 4.4562 7.76249 4.4562C7.76249 4.36133 7.76249 4.26645 7.76249 4.1687Z" fill="#ECB103"/>
<path d="M17.25 5.31873C18.8233 6.49867 19.8771 8.13966 20.2687 10.0625C19.8243 9.69885 19.7068 9.31145 19.55 8.76873C19.4077 8.8636 19.2654 8.95848 19.1187 9.05623C18.975 8.91248 18.975 8.91248 18.966 8.54412C18.969 8.42849 18.9719 8.31286 18.975 8.19373C18.8801 8.19373 18.7852 8.19373 18.6875 8.19373C18.6875 8.05734 18.6875 7.92096 18.6875 7.78044C18.5935 7.06057 18.1158 6.60193 17.6543 6.07117C17.3937 5.74998 17.3937 5.74998 17.25 5.31873Z" fill="#D18B00"/>
<path d="M18.5438 16.2438C18.6861 16.2438 18.8284 16.2438 18.975 16.2438C19.0186 16.3513 19.0621 16.4587 19.107 16.5695C19.5503 17.6459 19.5503 17.6459 20.4125 18.4C19.4602 18.7055 19.4602 18.7055 18.975 18.5438C18.6557 18.079 18.6337 17.6232 18.5977 17.0703C18.5869 16.9154 18.5762 16.7605 18.5651 16.6009C18.5581 16.4831 18.551 16.3652 18.5438 16.2438Z" fill="#CF8700"/>
<path d="M2.91991 15.4082C2.99996 15.4468 3.08001 15.4853 3.16249 15.525C3.27928 15.9832 3.27928 15.9832 3.30624 16.5313C2.95585 16.9535 2.95585 16.9535 2.58749 17.25C2.03046 16.9805 2.03046 16.9805 1.86874 16.8188C1.81483 16.4953 1.81483 16.4953 1.86874 16.1C2.44056 15.3694 2.44056 15.3694 2.91991 15.4082Z" fill="#FED759"/>
<path d="M2.73124 9.77502C2.82108 10.0266 2.82108 10.0266 2.87499 10.35C2.81106 10.4734 2.81106 10.4734 2.74584 10.5993C2.51037 11.0836 2.52007 11.582 2.49764 12.111C2.49209 12.2181 2.48653 12.3252 2.4808 12.4355C2.46731 12.6986 2.45537 12.9618 2.44374 13.225C2.34886 13.0827 2.25399 12.9404 2.15624 12.7938C2.1088 13.2681 2.06136 13.7425 2.01249 14.2313C1.87018 14.2787 1.72786 14.3261 1.58124 14.375C1.77962 12.7428 1.9709 11.2536 2.73124 9.77502Z" fill="#C98100"/>
<path d="M20.1699 15.0039C20.6615 15.1182 20.909 15.3038 21.252 15.6687C21.5645 16.2076 21.4829 16.7924 21.4187 17.3937C20.9564 17.6447 20.654 17.7106 20.125 17.6812C20.0301 17.4915 19.9352 17.3017 19.8375 17.1062C20.217 17.2011 20.5965 17.296 20.9875 17.3937C21.1223 16.6678 21.1223 16.6678 20.9875 15.9562C20.8452 15.8614 20.7029 15.7665 20.5562 15.6687C20.5562 15.5739 20.5562 15.479 20.5562 15.3812C20.3665 15.3812 20.1767 15.3812 19.9812 15.3812C19.8864 15.8556 19.7915 16.33 19.6937 16.8187C19.4062 16.5312 19.4062 16.5312 19.3613 16.118C19.4225 15.5066 19.5527 15.1707 20.1699 15.0039Z" fill="#FBCC3C"/>
<path d="M5.75002 14.8063C5.8449 14.8063 5.93977 14.8063 6.03752 14.8063C6.03752 14.9011 6.03752 14.996 6.03752 15.0938C6.12758 15.1008 6.21764 15.1079 6.31042 15.1151C6.42791 15.1259 6.54539 15.1366 6.66643 15.1477C6.84154 15.1627 6.84154 15.1627 7.02019 15.178C7.33127 15.2375 7.33127 15.2375 7.61877 15.525C7.50222 15.5004 7.38566 15.4757 7.26558 15.4503C6.65065 15.3967 6.31994 15.4145 5.75002 15.6688C5.04012 16.5517 4.60484 17.6499 4.16877 18.6875C3.88415 18.6875 3.59952 18.6875 3.30627 18.6875C3.30627 18.6401 3.30627 18.5926 3.30627 18.5438C3.54346 18.5438 3.78065 18.5438 4.02502 18.5438C4.0606 18.4239 4.09618 18.304 4.13284 18.1805C4.3357 17.6169 4.59812 17.1169 4.88752 16.5942C5.21018 16.0079 5.51794 15.436 5.75002 14.8063Z" fill="#A65B00"/>
<path d="M1.43748 15.0938C1.43748 15.6476 1.35606 16.1848 1.28306 16.7334C1.25642 17.1144 1.25642 17.1144 1.50654 17.3713C1.57863 17.4261 1.65071 17.481 1.72498 17.5375C1.67754 17.6324 1.6301 17.7272 1.58123 17.825C1.39079 17.6745 1.20253 17.5212 1.01521 17.3668C0.910143 17.2817 0.805077 17.1967 0.696826 17.1091C0.383271 16.7663 0.314133 16.5606 0.287476 16.1C0.598624 15.6045 0.891295 15.3083 1.43748 15.0938Z" fill="#E5A603"/>
<path d="M5.89377 9.05627C6.07433 9.41738 6.0437 9.64076 6.02517 10.0434C6.01887 10.1826 6.01257 10.3218 6.00608 10.4651C5.99867 10.611 5.99126 10.7568 5.98362 10.9071C5.97732 11.0518 5.97102 11.1965 5.96453 11.3456C5.90809 12.526 5.90809 12.526 5.75002 13.0813C5.65515 13.0813 5.56027 13.0813 5.46252 13.0813C5.46252 13.1761 5.46252 13.271 5.46252 13.3688C4.59216 13.3969 4.59216 13.3969 4.31252 13.3688C4.21765 13.2739 4.12277 13.179 4.02502 13.0813C4.22515 13.0946 4.22515 13.0946 4.42932 13.1082C4.87009 13.1204 4.87009 13.1204 5.12168 12.928C5.41525 12.514 5.42484 12.1266 5.48049 11.6258C5.49179 11.5297 5.50308 11.4336 5.51471 11.3346C5.56363 10.9132 5.60655 10.4912 5.65063 10.0693C5.7408 9.20925 5.7408 9.20925 5.89377 9.05627Z" fill="#F8C834"/>
<path d="M14.2312 14.5188C14.2787 14.6611 14.3261 14.8034 14.375 14.95C14.2327 14.9975 14.0904 15.0449 13.9437 15.0938C13.8454 15.2842 13.7497 15.476 13.6562 15.6688C13.1922 15.9781 13.0404 15.9852 12.5062 15.9563C12.5062 15.3813 12.5062 15.3813 12.8027 15.0758C13.2865 14.767 13.6757 14.6495 14.2312 14.5188Z" fill="#F0BA13"/>
<path d="M21.7062 15.0938C21.8011 15.0938 21.896 15.0938 21.9937 15.0938C22.3945 15.504 22.7035 15.9062 22.7305 16.4863C22.5687 16.8187 22.5687 16.8187 21.85 17.3937C21.8026 16.6347 21.7551 15.8757 21.7062 15.0938Z" fill="#DB9700"/>
<path d="M14.2312 5.03125C13.612 6.02645 13.612 6.02645 13.0812 6.325C12.8915 6.325 12.7017 6.325 12.5062 6.325C12.5562 5.87482 12.6231 5.63967 12.9105 5.28282C13.3979 4.89292 13.6377 4.8334 14.2312 5.03125Z" fill="#F7C52F"/>
<path d="M7.76249 4.1687C7.76249 4.26358 7.76249 4.35845 7.76249 4.4562C7.59053 4.50067 7.41857 4.54515 7.24139 4.59097C6.54341 4.84254 6.29816 5.27939 5.95438 5.91335C5.85321 6.04594 5.85321 6.04594 5.74999 6.1812C5.56024 6.1812 5.37049 6.1812 5.17499 6.1812C4.91996 6.45723 4.91996 6.45723 4.74374 6.7562C4.64886 6.70876 4.55399 6.66133 4.45624 6.61245C6.3659 4.1687 6.3659 4.1687 7.76249 4.1687Z" fill="#DB9900"/>
<path d="M8.76874 4.88745C9.44537 4.94896 10.0302 5.25433 10.4937 5.74995C10.4937 5.9397 10.4937 6.12945 10.4937 6.32495C10.0155 6.37961 9.80653 6.34402 9.38866 6.09136C9.01291 5.70545 8.89812 5.40497 8.76874 4.88745Z" fill="#F7C630"/>
<path d="M11.7875 5.8938C11.8824 5.8938 11.9772 5.8938 12.075 5.8938C12.075 5.98867 12.075 6.08355 12.075 6.1813C12.1699 6.1813 12.2647 6.1813 12.3625 6.1813C12.4099 6.27617 12.4574 6.37105 12.5062 6.4688C12.8857 6.42136 13.2652 6.37392 13.6562 6.32505C13.363 7.33999 13.363 7.33999 12.9375 7.6188C12.4074 7.71763 12.4074 7.71763 11.9312 7.76255C11.8364 7.62024 11.7415 7.47792 11.6437 7.3313C11.6912 7.18899 11.7386 7.04667 11.7875 6.90005C11.9298 7.11352 11.9298 7.11352 12.075 7.3313C12.4344 7.40317 12.4344 7.40317 12.7937 7.3313C12.8886 7.18899 12.9835 7.04667 13.0812 6.90005C12.9478 6.89412 12.8144 6.88819 12.6769 6.88208C12.2187 6.7563 12.2187 6.7563 11.9492 6.31606C11.8958 6.17672 11.8425 6.03737 11.7875 5.8938Z" fill="#BB6E00"/>
<path d="M14.375 5.0313C15.1902 4.96476 15.7477 5.10151 16.3875 5.6063C16.8277 6.05059 17.1909 6.52391 17.5375 7.0438C17.4836 7.35826 17.4836 7.35826 17.3937 7.6188C16.5753 6.55133 16.5753 6.55133 16.3156 6.06451C15.9487 5.52935 15.4382 5.36679 14.8242 5.21998C14.673 5.19774 14.673 5.19774 14.5187 5.17505C14.6136 5.41224 14.7085 5.64943 14.8062 5.8938C14.6639 5.84637 14.5216 5.79893 14.375 5.75005C14.375 5.51287 14.375 5.27568 14.375 5.0313Z" fill="#F7C52D"/>
<path d="M5.03125 15.0938C5.14456 15.4237 5.19449 15.6084 5.08575 15.9452C5.03682 16.0385 4.98789 16.1319 4.93748 16.228C4.88513 16.3299 4.83278 16.4319 4.77885 16.5369C4.72279 16.6417 4.66674 16.7466 4.60898 16.8547C4.55349 16.9618 4.49799 17.0689 4.44081 17.1792C4.30375 17.4432 4.16457 17.7061 4.025 17.9687C3.88269 17.9687 3.74037 17.9687 3.59375 17.9687C3.66407 17.8331 3.66407 17.8331 3.73582 17.6947C4.03953 17.0998 4.3305 16.5141 4.55508 15.8844C4.74375 15.3812 4.74375 15.3812 5.03125 15.0938Z" fill="#CC8300"/>
<path d="M8.48123 13.0813C8.73953 13.1897 8.73953 13.1897 9.05623 13.3688C9.17853 13.4353 9.30083 13.5018 9.42683 13.5704C9.55358 13.6432 9.68033 13.716 9.81091 13.7911C9.93914 13.8635 10.0674 13.936 10.1995 14.0106C10.2966 14.0834 10.3937 14.1563 10.4937 14.2313C10.4937 14.3736 10.4937 14.5159 10.4937 14.6625C10.2868 14.5975 10.0802 14.5314 9.8738 14.4649C9.70119 14.4099 9.70119 14.4099 9.5251 14.3537C9.19998 14.2313 9.19998 14.2313 8.76873 13.9438C8.76873 13.8489 8.76873 13.754 8.76873 13.6563C8.67385 13.6563 8.57898 13.6563 8.48123 13.6563C8.48123 13.5614 8.48123 13.4665 8.48123 13.3688C8.38635 13.3214 8.29148 13.2739 8.19373 13.225C8.2886 13.1776 8.38348 13.1302 8.48123 13.0813Z" fill="#C67D00"/>
<path d="M2.875 14.8152C3.31121 14.9515 3.64748 15.1258 4.025 15.3812C3.91719 16.3336 3.91719 16.3336 3.59375 16.8187C3.58838 16.7287 3.583 16.6386 3.57747 16.5458C3.56802 16.4283 3.55857 16.3109 3.54883 16.1898C3.54049 16.0731 3.53215 15.9563 3.52356 15.8361C3.47445 15.4705 3.47445 15.4705 3.01875 15.2375C2.62382 15.1628 2.39853 15.1708 2.06191 15.3986C1.84746 15.5772 1.64181 15.7662 1.4375 15.9562C1.70401 15.2778 2.11442 14.7994 2.875 14.8152Z" fill="#F3BE1D"/>
<path d="M6.325 9.34375C6.37244 9.34375 6.41987 9.34375 6.46875 9.34375C6.76884 13.2664 6.76884 13.2664 6.325 14.0875C6.01953 14.2133 6.01953 14.2133 5.75 14.2313C5.79744 14.1364 5.84487 14.0415 5.89375 13.9438C5.98862 13.9438 6.0835 13.9438 6.18125 13.9438C6.22869 12.4258 6.27612 10.9078 6.325 9.34375Z" fill="#CF8800"/>
<path d="M8.76874 14.6625C9.39684 14.6994 9.70573 14.7488 10.1973 15.1566C10.4937 15.525 10.4937 15.525 10.4937 15.8125C9.86563 15.7755 9.55674 15.7262 9.06522 15.3183C8.76874 14.95 8.76874 14.95 8.76874 14.6625Z" fill="#F3BF21"/>
<path d="M5.60625 6.03748C5.56178 6.18868 5.5173 6.33989 5.47148 6.49568C5.31623 7.01765 5.31623 7.01765 5.24688 7.45701C5.22316 7.55781 5.19944 7.65862 5.175 7.76248C5.03269 7.83363 5.03269 7.83363 4.8875 7.90623C4.8875 7.81135 4.8875 7.71648 4.8875 7.61873C4.69775 7.57129 4.508 7.52385 4.3125 7.47498C4.35689 6.95712 4.45546 6.75717 4.79766 6.35193C5.175 6.03748 5.175 6.03748 5.60625 6.03748Z" fill="#E7A800"/>
<path d="M8.62499 5.03121C8.62499 5.26839 8.62499 5.50558 8.62499 5.74996C8.57755 5.56021 8.53011 5.37046 8.48124 5.17496C7.14812 5.63095 6.26476 6.10056 5.61522 7.38511C5.51405 7.60567 5.41438 7.82695 5.31874 8.04996C5.2244 7.80176 5.2244 7.80176 5.17499 7.47496C5.63812 6.44786 6.4633 5.5741 7.49296 5.12105C7.88603 5.0356 8.22437 5.00764 8.62499 5.03121Z" fill="#F8C733"/>
<path d="M6.6125 8.7688C6.65994 8.7688 6.70738 8.7688 6.75625 8.7688C6.77367 8.89536 6.79109 9.02192 6.80904 9.15232C6.83312 9.31928 6.85721 9.48623 6.88203 9.65825C6.90538 9.82336 6.92873 9.98846 6.95279 10.1586C7.0254 10.6312 7.0254 10.6312 7.20547 11.0239C7.3946 11.5237 7.21619 11.874 7.04375 12.3625C6.94888 12.3625 6.854 12.3625 6.75625 12.3625C6.63503 11.1612 6.59498 9.97601 6.6125 8.7688Z" fill="#AF6200"/>
<path d="M15.8125 4.45621C15.8599 4.59853 15.9074 4.74084 15.9562 4.88746C15.7508 4.8669 15.7508 4.8669 15.5413 4.84591C15.361 4.82998 15.1807 4.81404 14.9949 4.79762C14.8165 4.78094 14.638 4.76427 14.4542 4.74708C13.954 4.74378 13.667 4.80976 13.225 5.03121C13.2429 4.76168 13.2429 4.76168 13.3687 4.45621C14.1653 3.99505 14.9669 4.26061 15.8125 4.45621Z" fill="#EBAE02"/>
<path d="M8.91252 6.75631C8.95996 6.85118 9.0074 6.94606 9.05627 7.04381C8.89913 7.01119 8.742 6.97858 8.5801 6.94498C8.07489 6.84338 8.07489 6.84338 7.82541 7.06627C7.57634 7.38573 7.40783 7.71201 7.23244 8.07701C7.16962 8.20654 7.10681 8.33606 7.04209 8.46951C6.9952 8.56828 6.94832 8.66705 6.90002 8.76881C6.72404 8.20272 6.83056 7.88314 7.04377 7.33131C7.13865 7.33131 7.23352 7.33131 7.33127 7.33131C7.36685 7.24236 7.40243 7.15342 7.43908 7.06177C7.83489 6.3889 8.26221 6.40479 8.91252 6.75631Z" fill="#AA5F00"/>
<path d="M11.0687 15.0938C11.3562 15.525 11.3562 15.525 11.3203 16.0371C11.2125 16.5312 11.2125 16.5312 10.925 16.8187C10.4791 16.9195 10.0767 16.921 9.63124 16.8187C9.27331 16.5276 9.01948 16.198 8.76874 15.8125C9.31903 16.0697 9.31903 16.0697 9.54139 16.3426C9.78222 16.5805 9.78222 16.5805 10.2152 16.5043C10.6512 16.4211 10.6512 16.4211 10.925 16.1C10.9826 15.7661 11.0313 15.4305 11.0687 15.0938Z" fill="#C47A00"/>
<path d="M15.2375 14.375C15.525 14.6625 15.525 14.6625 15.525 15.0937C15.2497 15.2111 14.9741 15.3277 14.6984 15.4441C14.545 15.5092 14.3916 15.5742 14.2335 15.6412C13.8947 15.7751 13.58 15.8813 13.225 15.9562C13.7195 15.3999 14.1723 15.0919 14.8534 14.7911C15.1206 14.6779 15.1206 14.6779 15.2375 14.375Z" fill="#E09E00"/>
<path d="M15.8125 12.075C15.8599 12.2173 15.9074 12.3596 15.9562 12.5062C15.7772 12.6687 15.5974 12.8302 15.4172 12.9914C15.3171 13.0814 15.217 13.1715 15.114 13.2643C14.8232 13.4987 14.5812 13.6705 14.2312 13.8C14.0889 13.7525 13.9466 13.7051 13.8 13.6562C13.885 13.5902 13.9701 13.5243 14.0577 13.4563C14.6458 12.9997 15.2329 12.5423 15.8125 12.075Z" fill="#C27600"/>
<path d="M14.0067 4.20474C14.0808 4.24032 14.1549 4.2759 14.2313 4.31255C14.0267 4.36147 14.0267 4.36147 13.818 4.41138C13.3396 4.55166 13.3396 4.55166 13.2071 4.96841C13.1448 5.14186 13.1448 5.14186 13.0813 5.3188C12.8896 5.36672 12.6979 5.41464 12.5063 5.46255C12.3199 5.82054 12.3199 5.82054 12.2188 6.1813C12.1239 5.99155 12.029 5.8018 11.9313 5.6063C12.4352 4.93436 13.0748 4.10916 14.0067 4.20474Z" fill="#D59200"/>
<path d="M18.2563 9.05627C18.3037 9.05627 18.3511 9.05627 18.4 9.05627C18.4326 9.19859 18.4652 9.3409 18.4988 9.48752C18.6537 10.0448 18.928 10.4702 19.2591 10.9402C19.4063 11.2125 19.4063 11.2125 19.4063 11.7875C19.3114 11.7875 19.2165 11.7875 19.1188 11.7875C19.0685 11.6958 19.0183 11.6041 18.9666 11.5096C18.9012 11.3908 18.8358 11.272 18.7684 11.1496C18.7033 11.0312 18.6383 10.9128 18.5713 10.7908C18.4235 10.5048 18.4235 10.5048 18.2563 10.35C18.2459 10.1316 18.2442 9.91278 18.2473 9.69417C18.2486 9.57539 18.2499 9.45661 18.2512 9.33423C18.2529 9.2425 18.2545 9.15078 18.2563 9.05627Z" fill="#F7C62F"/>
<path d="M9.77502 5.17505C10.1071 5.22249 10.4391 5.26992 10.7813 5.3188C10.8711 5.65122 10.8711 5.65122 10.925 6.03755C10.7827 6.25102 10.7827 6.25102 10.6375 6.4688C10.1883 6.49575 10.1883 6.49575 9.77502 6.4688C9.77502 6.42136 9.77502 6.37392 9.77502 6.32505C10.0122 6.32505 10.2494 6.32505 10.4938 6.32505C10.4158 5.77939 10.1773 5.53843 9.77502 5.17505Z" fill="#DD9A00"/>
<path d="M4.16878 10.7812C4.30768 11.1563 4.33082 11.3111 4.17776 11.6887C3.98792 12.1689 4.00496 12.5696 4.02503 13.0812C3.93015 13.0812 3.83528 13.0812 3.73753 13.0812C3.48437 11.6889 3.48437 11.6889 3.87229 11.1227C4.01905 10.9537 4.01905 10.9537 4.16878 10.7812Z" fill="#FBCD3F"/>
<path d="M14.8063 5.8938C15.5097 6.12827 15.9144 6.40916 16.2685 7.07131C16.5684 7.71121 16.5684 7.71121 16.675 8.05005C16.6276 8.14492 16.5801 8.2398 16.5313 8.33755C16.4347 8.15224 16.3391 7.96647 16.2438 7.78052C16.1904 7.67712 16.137 7.57372 16.0821 7.46719C15.9563 7.18755 15.9563 7.18755 15.9563 6.90005C15.8614 6.90005 15.7665 6.90005 15.6688 6.90005C15.6688 6.80517 15.6688 6.7103 15.6688 6.61255C15.5531 6.57401 15.4375 6.53546 15.3184 6.49575C15.1968 6.43942 15.0753 6.38309 14.95 6.32505C14.9026 6.18274 14.8551 6.04042 14.8063 5.8938Z" fill="#E7AA07"/>
<path d="M5.75001 14.8063C5.84489 14.8063 5.93976 14.8063 6.03751 14.8063C6.03751 14.9011 6.03751 14.996 6.03751 15.0938C6.12757 15.1008 6.21763 15.1079 6.31041 15.1151C6.48664 15.1312 6.48664 15.1312 6.66642 15.1477C6.84153 15.1627 6.84153 15.1627 7.02018 15.178C7.33126 15.2375 7.33126 15.2375 7.61876 15.525C6.95464 15.525 6.29051 15.525 5.60626 15.525C5.6537 15.2878 5.70114 15.0506 5.75001 14.8063Z" fill="#B16400"/>
<path d="M17.1062 14.95C17.1062 15.0449 17.1062 15.1398 17.1062 15.2375C16.8983 15.2661 16.8983 15.2661 16.6862 15.2954C16.4138 15.3334 16.4138 15.3334 16.1359 15.3723C15.9558 15.3973 15.7757 15.4223 15.5901 15.4481C15.2231 15.505 14.8754 15.5688 14.5187 15.6688C14.8491 15.2825 15.0913 15.1679 15.5879 15.0758C15.6974 15.0547 15.8069 15.0336 15.9197 15.0118C16.0267 14.9914 16.1336 14.971 16.2437 14.95C16.3462 14.9207 16.4487 14.8915 16.5543 14.8613C16.8187 14.8063 16.8187 14.8063 17.1062 14.95Z" fill="#C67C00"/>
<path d="M15.525 6.61255C15.5725 6.70742 15.6199 6.8023 15.6688 6.90005C15.7636 6.90005 15.8585 6.90005 15.9563 6.90005C16.2658 7.45457 16.444 7.8418 16.3875 8.4813C16.2926 8.4813 16.1978 8.4813 16.1 8.4813C16.0033 8.25108 15.9077 8.02039 15.8125 7.7895C15.7592 7.66109 15.7058 7.53267 15.6508 7.40037C15.525 7.0438 15.525 7.0438 15.525 6.61255Z" fill="#CA8200"/>
<path d="M12.65 5.17505C12.7449 5.17505 12.8397 5.17505 12.9375 5.17505C12.893 5.25806 12.8485 5.34108 12.8027 5.42661C12.6606 5.72747 12.5757 6.00094 12.5062 6.32505C12.7909 6.27761 13.0755 6.23017 13.3687 6.1813C13.3687 6.27617 13.3687 6.37105 13.3687 6.4688C13.0841 6.51624 12.7995 6.56367 12.5062 6.61255C12.2187 6.1813 12.2187 6.1813 12.2547 5.81294C12.3625 5.46255 12.3625 5.46255 12.65 5.17505Z" fill="#E5A602"/>
<path d="M3.44998 17.1062C3.49741 17.2485 3.54485 17.3908 3.59373 17.5375C3.3781 17.9328 3.3781 17.9328 3.01873 18.2562C2.44453 18.2463 2.13733 18.2373 1.72498 17.825C1.81336 17.8212 1.90175 17.8175 1.99282 17.8137C2.73015 17.7845 2.73015 17.7845 3.31521 17.3847C3.35968 17.2928 3.40416 17.2009 3.44998 17.1062Z" fill="#EBB00B"/>
<path d="M8.76875 5.17505C9.05625 5.3188 9.05625 5.3188 9.19102 5.59731C9.33706 5.93976 9.33706 5.93976 9.775 6.1813C9.775 6.27617 9.775 6.37105 9.775 6.4688C10.0122 6.4688 10.2494 6.4688 10.4937 6.4688C10.4937 6.51624 10.4937 6.56367 10.4937 6.61255C9.94283 6.66502 9.65071 6.62192 9.14609 6.37896C8.76875 6.03755 8.76875 6.03755 8.71484 5.57036C8.73263 5.43991 8.75042 5.30946 8.76875 5.17505Z" fill="#D69200"/>
<path d="M1.86874 12.075C1.96361 12.075 2.05849 12.075 2.15624 12.075C2.1088 12.7865 2.06136 13.4981 2.01249 14.2312C1.87018 14.2786 1.72786 14.3261 1.58124 14.375C1.67611 13.616 1.77099 12.857 1.86874 12.075Z" fill="#B76F00"/>
<path d="M16.1 6.90002C16.5312 7.04377 16.5312 7.04377 16.7558 7.41213C17.3526 8.83926 17.3526 8.83926 17.1062 9.63127C17.0456 9.4582 16.985 9.28513 16.9226 9.10681C16.8431 8.88033 16.7635 8.65385 16.684 8.42737C16.6241 8.25615 16.6241 8.25615 16.563 8.08147C16.5245 7.97214 16.4861 7.86281 16.4464 7.75017C16.4111 7.6493 16.3757 7.54842 16.3392 7.44449C16.2455 7.17817 16.2455 7.17817 16.1 6.90002Z" fill="#F9CA39"/>
<path d="M18.975 16.675C19.2133 16.9814 19.4226 17.2793 19.6129 17.6184C19.8436 17.9784 20.0578 18.1677 20.4125 18.4C20.0082 18.445 20.0082 18.445 19.55 18.4C19.0967 17.8842 19.0405 17.3437 18.975 16.675Z" fill="#DA9600"/>
<path d="M12.65 14.8063C12.7449 14.8537 12.8397 14.9011 12.9375 14.95C12.8426 15.0449 12.7477 15.1398 12.65 15.2375C12.5569 15.6071 12.5569 15.6071 12.5062 15.9563C12.7434 15.9563 12.9806 15.9563 13.225 15.9563C13.225 16.0511 13.225 16.146 13.225 16.2438C12.9376 16.2499 12.6499 16.2496 12.3625 16.2438C12.3151 16.1963 12.2676 16.1489 12.2188 16.1C12.305 15.1513 12.305 15.1513 12.65 14.8063Z" fill="#E4A400"/>
<path d="M10.925 5.6062C11.0199 5.79595 11.1148 5.9857 11.2125 6.1812C10.8801 6.54058 10.8801 6.54058 10.4938 6.89995C10.3515 6.89995 10.2091 6.89995 10.0625 6.89995C10.0151 6.99483 9.96765 7.0897 9.91877 7.18745C9.87134 6.9977 9.8239 6.80795 9.77502 6.61245C9.91141 6.57984 10.0478 6.54722 10.1883 6.51362C10.6653 6.36939 10.6653 6.36939 10.8352 5.94761C10.8648 5.83494 10.8945 5.72228 10.925 5.6062Z" fill="#C37900"/>
<path d="M8.76874 14.6625C9.70643 14.7509 9.70643 14.7509 10.0535 15.0308C10.1039 15.099 10.1543 15.1672 10.2062 15.2375C9.96905 15.2375 9.73186 15.2375 9.48749 15.2375C9.44005 15.3324 9.39261 15.4272 9.34374 15.525C9.14599 15.3396 8.95451 15.1474 8.76874 14.95C8.76874 14.8551 8.76874 14.7602 8.76874 14.6625Z" fill="#F0B810"/>
<path d="M8.48123 13.0813C8.94069 13.3024 9.37478 13.554 9.81091 13.818C9.93914 13.8955 10.0674 13.9729 10.1995 14.0527C10.3451 14.1411 10.3451 14.1411 10.4937 14.2313C10.0625 14.375 10.0625 14.375 9.79407 14.242C9.6512 14.1433 9.6512 14.1433 9.50544 14.0426C9.07935 13.7596 8.68051 13.5361 8.19373 13.3688C8.2886 13.2739 8.38348 13.179 8.48123 13.0813Z" fill="#B16400"/>
<path d="M14.95 13.8C14.9975 13.8949 15.0449 13.9898 15.0938 14.0875C14.9149 14.1643 14.735 14.2387 14.5547 14.3121C14.4546 14.3538 14.3546 14.3955 14.2515 14.4385C13.9006 14.53 13.708 14.4904 13.3688 14.375C13.9146 13.9688 14.258 13.7186 14.95 13.8Z" fill="#E09E00"/>
<path d="M11.7875 5.8938C11.8824 5.8938 11.9772 5.8938 12.075 5.8938C12.075 5.98867 12.075 6.08355 12.075 6.1813C12.1699 6.1813 12.2647 6.1813 12.3625 6.1813C12.4099 6.27617 12.4574 6.37105 12.5062 6.4688C12.8857 6.42136 13.2652 6.37392 13.6562 6.32505C13.4121 6.62062 13.2359 6.7521 12.8746 6.89106C12.5062 6.90005 12.5062 6.90005 12.1828 6.64849C11.9312 6.32505 11.9312 6.32505 11.7875 5.8938Z" fill="#C57C00"/>
<path d="M0.862476 15.3812C1.01092 15.782 1.01271 15.9372 0.87146 16.3515C0.821058 16.4583 0.770655 16.565 0.718726 16.675C0.576413 16.675 0.434101 16.675 0.287476 16.675C0.363762 16.1257 0.502672 15.8036 0.862476 15.3812Z" fill="#D48E00"/>
<path d="M13.8 14.95C13.7012 15.2285 13.7012 15.2285 13.5125 15.525C13.1352 15.6328 13.1352 15.6328 12.7938 15.6687C12.8387 15.3902 12.8387 15.3902 12.9375 15.0937C13.3688 14.95 13.3688 14.95 13.8 14.95Z" fill="#F5C125"/>
<path d="M18.6875 17.6813C18.7764 17.7524 18.8654 17.8236 18.957 17.8969C19.2393 18.1402 19.2393 18.1402 19.55 18.1125C19.55 18.2074 19.55 18.3023 19.55 18.4C19.7397 18.4475 19.9295 18.4949 20.125 18.5438C19.6525 18.6587 19.4479 18.7014 18.975 18.5438C18.8043 18.1035 18.8043 18.1035 18.6875 17.6813Z" fill="#C07400"/>
<path d="M19.1188 11.7875C19.2136 11.7875 19.3085 11.7875 19.4063 11.7875C19.4422 12.2636 19.4422 12.2636 19.4063 12.7937C19.1188 13.0722 19.1188 13.0722 18.8313 13.225C18.7364 13.1775 18.6415 13.1301 18.5438 13.0812C18.612 13.0012 18.6801 12.9211 18.7504 12.8386C18.9928 12.4799 19.0598 12.2123 19.1188 11.7875Z" fill="#FACB3C"/>
<path d="M11.6437 14.95C11.6912 14.95 11.7386 14.95 11.7875 14.95C11.7928 15.035 11.7982 15.1201 11.8038 15.2077C11.8613 15.8997 11.9368 16.3887 12.3625 16.9625C11.8054 16.8367 11.8054 16.8367 11.6437 16.675C11.6333 16.3846 11.6317 16.094 11.6347 15.8035C11.636 15.6447 11.6373 15.4859 11.6387 15.3222C11.6403 15.1994 11.642 15.0765 11.6437 14.95Z" fill="#BC7000"/>
<path d="M14.375 15.3812C14.4699 15.4287 14.5648 15.4761 14.6625 15.525C14.4579 15.6584 14.4579 15.6584 14.2492 15.7945C13.808 16.0741 13.808 16.0741 13.5125 16.3875C13.1352 16.4054 13.1352 16.4054 12.7938 16.3875C12.9361 16.34 13.0784 16.2926 13.225 16.2437C13.225 16.1489 13.225 16.054 13.225 15.9562C13.4099 15.856 13.5958 15.7575 13.782 15.6597C13.9371 15.5772 13.9371 15.5772 14.0954 15.493C14.1877 15.4561 14.2799 15.4192 14.375 15.3812Z" fill="#D38D00"/>
<path d="M3.88127 10.4938C3.97615 10.5412 4.07102 10.5886 4.16877 10.6375C4.11864 11.1055 4.02196 11.2152 3.65667 11.536C3.48322 11.6605 3.48322 11.6605 3.30627 11.7875C3.39474 10.9914 3.39474 10.9914 3.67463 10.6555C3.74283 10.6021 3.81102 10.5488 3.88127 10.4938Z" fill="#F0BA13"/>
<path d="M4.74375 7.61877C4.88606 7.66621 5.02838 7.71365 5.175 7.76252C5.00944 8.1173 4.88062 8.3444 4.6 8.62502C4.50513 8.57759 4.41025 8.53015 4.3125 8.48127C4.39493 8.06911 4.43633 7.92619 4.74375 7.61877Z" fill="#EFB70E"/>
<path d="M14.2313 6.03748C14.2313 6.17979 14.2313 6.3221 14.2313 6.46873C14.3736 6.46873 14.5159 6.46873 14.6625 6.46873C14.1234 6.89998 14.1234 6.89998 13.8 6.89998C13.8 6.8051 13.8 6.71023 13.8 6.61248C13.7051 6.56504 13.6103 6.5176 13.5125 6.46873C13.9078 6.03748 13.9078 6.03748 14.2313 6.03748Z" fill="#BA6D00"/>
<path d="M13.9437 5.17505C13.8613 5.58722 13.8199 5.73013 13.5125 6.03755C13.207 5.98364 13.207 5.98364 12.9375 5.8938C13.6203 5.17505 13.6203 5.17505 13.9437 5.17505Z" fill="#FBCD40"/>
<path d="M16.5312 6.18127C17.0005 6.44062 17.2341 6.58865 17.5375 7.04377C17.4836 7.35823 17.4836 7.35823 17.3937 7.61877C17.2492 7.43374 17.1056 7.24792 16.9625 7.06174C16.8824 6.95834 16.8024 6.85495 16.7199 6.74841C16.5312 6.46877 16.5312 6.46877 16.5312 6.18127Z" fill="#FACC3C"/>
<path d="M7.90624 5.03124C7.52306 5.28669 7.18345 5.44459 6.75624 5.60624C6.7088 5.46392 6.66136 5.32161 6.61249 5.17499C7.09417 4.87171 7.36301 4.88034 7.90624 5.03124Z" fill="#F3BF1F"/>
<path d="M18.8312 10.6375C19.1187 10.889 19.1187 10.889 19.4062 11.2125C19.4062 11.4022 19.4062 11.592 19.4062 11.7875C19.3114 11.7875 19.2165 11.7875 19.1187 11.7875C18.8651 11.3435 18.8312 11.1789 18.8312 10.6375Z" fill="#F4C124"/>
<path d="M10.925 6.46875C11.0058 6.74727 11.0058 6.74727 11.0687 7.04375C10.925 7.1875 10.925 7.1875 10.5566 7.19648C10.3832 7.19204 10.3832 7.19204 10.2062 7.1875C10.2062 7.09262 10.2062 6.99775 10.2062 6.9C10.5656 6.66641 10.5656 6.66641 10.925 6.46875Z" fill="#DA9500"/>
<path d="M9.77502 5.17505C10.202 5.24621 10.202 5.24621 10.6375 5.3188C10.6375 5.60342 10.6375 5.88805 10.6375 6.1813C9.93674 5.49849 9.93674 5.49849 9.77502 5.17505Z" fill="#E9AD03"/>
<path d="M6.32499 5.31873C6.4673 5.31873 6.60961 5.31873 6.75624 5.31873C6.64843 5.59724 6.64843 5.59724 6.46874 5.89373C6.16327 6.00154 6.16327 6.00154 5.89374 6.03748C6.16327 5.48044 6.16327 5.48044 6.32499 5.31873Z" fill="#F0B911"/>
</svg>
