<svg width="150" height="150" viewBox="0 0 150 150" fill="none" xmlns="http://www.w3.org/2000/svg">
<path d="M106.303 131.219L43.8031 131.278C30.0531 131.291 18.7938 120.053 18.7781 106.303L18.7188 43.8031C18.7063 30.0531 29.9438 18.7938 43.6938 18.7781L106.194 18.7188C119.944 18.7063 131.203 29.9438 131.219 43.6938L131.278 106.194C131.294 119.947 120.053 131.206 106.303 131.219Z" fill="url(#paint0_radial_18_72)"/>
<path d="M106.303 131.219L43.8031 131.278C30.0531 131.291 18.7938 120.053 18.7781 106.303L18.7188 43.8031C18.7063 30.0531 29.9438 18.7938 43.6938 18.7781L106.194 18.7188C119.944 18.7063 131.203 29.9438 131.219 43.6938L131.278 106.194C131.294 119.947 120.053 131.206 106.303 131.219Z" fill="url(#paint1_radial_18_72)"/>
<path d="M75 96.875C62.9406 96.875 53.125 87.0625 53.125 75C53.125 62.9375 62.9406 53.125 75 53.125C87.0594 53.125 96.875 62.9375 96.875 75C96.875 87.0625 87.0594 96.875 75 96.875ZM75 59.375C66.3844 59.375 59.375 66.3844 59.375 75C59.375 83.6156 66.3844 90.625 75 90.625C83.6156 90.625 90.625 83.6156 90.625 75C90.625 66.3844 83.6156 59.375 75 59.375Z" fill="white"/>
<path d="M98.4375 56.25C101.026 56.25 103.125 54.1513 103.125 51.5625C103.125 48.9737 101.026 46.875 98.4375 46.875C95.8487 46.875 93.75 48.9737 93.75 51.5625C93.75 54.1513 95.8487 56.25 98.4375 56.25Z" fill="white"/>
<path d="M93.75 115.625H56.25C44.1906 115.625 34.375 105.812 34.375 93.75V56.25C34.375 44.1875 44.1906 34.375 56.25 34.375H93.75C105.809 34.375 115.625 44.1875 115.625 56.25V93.75C115.625 105.812 105.809 115.625 93.75 115.625ZM56.25 40.625C47.6344 40.625 40.625 47.6344 40.625 56.25V93.75C40.625 102.366 47.6344 109.375 56.25 109.375H93.75C102.366 109.375 109.375 102.366 109.375 93.75V56.25C109.375 47.6344 102.366 40.625 93.75 40.625H56.25Z" fill="white"/>
<defs>
<radialGradient id="paint0_radial_18_72" cx="0" cy="0" r="1" gradientUnits="userSpaceOnUse" gradientTransform="translate(60.5625 131.359) scale(140.309)">
<stop stop-color="#FFDD55"/>
<stop offset="0.328" stop-color="#FF543F"/>
<stop offset="0.348" stop-color="#FC5245"/>
<stop offset="0.504" stop-color="#E64771"/>
<stop offset="0.643" stop-color="#D53E91"/>
<stop offset="0.761" stop-color="#CC39A4"/>
<stop offset="0.841" stop-color="#C837AB"/>
</radialGradient>
<radialGradient id="paint1_radial_18_72" cx="0" cy="0" r="1" gradientUnits="userSpaceOnUse" gradientTransform="translate(36.8313 17.3135) scale(93.1656 62.0763)">
<stop stop-color="#4168C9"/>
<stop offset="0.999" stop-color="#4168C9" stop-opacity="0"/>
</radialGradient>
</defs>
</svg>
