<svg width="150" height="150" viewBox="0 0 150 150" fill="none" xmlns="http://www.w3.org/2000/svg">
<path d="M75 12.5C58.424 12.5 42.5268 19.0848 30.8058 30.8058C19.0848 42.5268 12.5 58.424 12.5 75C12.5 91.576 19.0848 107.473 30.8058 119.194C42.5268 130.915 58.424 137.5 75 137.5C91.576 137.5 107.473 130.915 119.194 119.194C130.915 107.473 137.5 91.576 137.5 75C137.5 58.424 130.915 42.5268 119.194 30.8058C107.473 19.0848 91.576 12.5 75 12.5Z" fill="#29B6F6"/>
<path d="M106.094 46.875L94.3875 106.644C94.3875 106.644 93.8844 109.375 90.4969 109.375C88.6969 109.375 87.7688 108.519 87.7688 108.519L62.4125 87.4781L50.0063 81.225L34.0844 76.9906C34.0844 76.9906 31.25 76.1719 31.25 73.8281C31.25 71.875 34.1656 70.9438 34.1656 70.9438L100.778 44.4813C100.778 44.4813 102.812 43.7469 104.297 43.75C105.209 43.75 106.25 44.1406 106.25 45.3125C106.25 46.0938 106.094 46.875 106.094 46.875Z" fill="white"/>
<path d="M71.8751 95.3281L61.1688 105.872C61.1688 105.872 60.7032 106.231 60.0813 106.247C59.8657 106.253 59.6345 106.219 59.397 106.112L62.4095 87.4719L71.8751 95.3281Z" fill="#B0BEC5"/>
<path d="M93.4281 56.8625C92.9 56.175 91.925 56.05 91.2375 56.5718L50 81.25C50 81.25 56.5813 99.6625 57.5844 102.85C58.5906 106.041 59.3969 106.116 59.3969 106.116L62.4094 87.475L93.1344 59.05C93.8219 58.5281 93.95 57.55 93.4281 56.8625Z" fill="#CFD8DC"/>
</svg>
