<svg width="150" height="150" viewBox="0 0 150 150" fill="none" xmlns="http://www.w3.org/2000/svg">
<path d="M131.25 115.625C131.25 124.256 124.256 131.25 115.625 131.25H34.375C25.7469 131.25 18.75 124.256 18.75 115.625V34.375C18.75 25.7437 25.7469 18.75 34.375 18.75H115.625C124.256 18.75 131.25 25.7437 131.25 34.375V115.625Z" fill="#1976D2"/>
<path d="M112.303 56.3781C112.447 55.9063 112.516 55.4688 112.497 55.0781C112.45 53.9469 111.672 53.125 109.841 53.125H101.659C99.5937 53.125 98.6406 54.375 98.0844 55.6281C98.0844 55.6281 92.9844 66.125 87.1063 73.0469C85.2 75.05 84.2313 75 83.2 75C82.6469 75 81.25 74.3312 81.25 72.4969V56.2937C81.25 54.125 80.7094 53.125 78.9625 53.125H64.4344C63.1625 53.125 62.5 54.125 62.5 55.1281C62.5 57.2125 65.3062 57.7125 65.625 63.5531V74.875C65.625 77.625 65.1469 78.125 64.1156 78.125C61.3344 78.125 55.8594 68.75 52.1937 56.4625C51.4 54.0438 50.6062 53.125 48.5406 53.125H40.2813C37.8969 53.125 37.5 54.2938 37.5 55.5438C37.5 57.7969 39.375 69.9781 49.6094 83.9844C57.0312 94.1406 66.8094 100 75.4656 100C80.7094 100 81.2469 98.6656 81.2469 96.5812V87.2938C81.25 84.7906 81.8219 84.375 83.4906 84.375C84.6812 84.375 87.1094 85.1562 91.7969 90.625C97.2031 96.9313 98.1844 100 101.284 100H109.466C111.366 100 112.456 99.2031 112.5 97.6562C112.509 97.2625 112.453 96.8219 112.325 96.3312C111.719 94.5312 108.938 90.1312 105.469 85.9375C103.547 83.6156 101.65 81.3156 100.778 80.0656C100.194 79.25 99.9719 78.675 100 78.125C100.028 77.5469 100.328 76.9969 100.778 76.2281C100.697 76.2281 111.272 61.3813 112.303 56.3781Z" fill="white"/>
</svg>
