<svg width="135" height="135" viewBox="0 0 135 135" fill="none" xmlns="http://www.w3.org/2000/svg">
<g clip-path="url(#clip0_18_83)">
<path d="M0 135L11.61 100.172C5.71888 90.2638 2.32759 78.7003 2.32759 66.3362C2.32759 29.7 32.0276 0 68.6638 0C105.3 0 135 29.7 135 66.3362C135 102.972 105.3 132.672 68.6638 132.672C57.517 132.672 47.0196 129.91 37.8 125.054L0 135Z" fill="#2CB742"/>
<path d="M110.986 88.4134C107.923 82.6247 96.6272 76.005 96.6272 76.005C94.0715 74.548 90.9874 74.385 89.5304 76.9826C89.5304 76.9826 85.8598 81.3841 84.9264 82.0172C80.6623 84.9057 76.7124 84.794 72.7252 80.8068L63.4591 71.5407L54.193 62.2746C50.2058 58.2874 50.0941 54.3375 52.9826 50.0734C53.6157 49.14 58.0172 45.4694 58.0172 45.4694C60.6148 44.01 60.4518 40.9283 58.9948 38.3726C58.9948 38.3726 52.3751 27.0768 46.5864 24.0137C44.1238 22.7103 41.1003 23.1665 39.1312 25.1356L35.0393 29.2275C22.0583 42.2085 28.4499 56.863 41.4308 69.8439L53.2945 81.7076L65.1582 93.5713C78.1392 106.552 92.7936 112.944 105.775 99.9629L109.866 95.871C111.836 93.8972 112.29 90.8736 110.986 88.4134Z" fill="white"/>
</g>
<defs>
<clipPath id="clip0_18_83">
<rect width="135" height="135" fill="white"/>
</clipPath>
</defs>
</svg>
