<svg width="282" height="50" viewBox="0 0 282 50" fill="none" xmlns="http://www.w3.org/2000/svg">
<path d="M31.5615 2.14941C31.5205 2.35449 31.5 2.49805 31.5 2.58008C31.5 2.66211 31.4795 2.76465 31.4385 2.8877C31.8896 3.70801 32.146 4.67188 32.2075 5.7793C32.2485 6.33301 32.2793 6.88672 32.2998 7.44043C32.3408 7.97363 32.3818 8.50684 32.4229 9.04004C32.6279 8.83496 32.8125 8.64014 32.9766 8.45557C33.1406 8.271 33.3047 8.07617 33.4688 7.87109C33.6738 7.66602 33.8379 7.47119 33.9609 7.28662C34.0225 7.18408 34.084 7.0918 34.1455 7.00977C34.2275 6.90723 34.3096 6.80469 34.3916 6.70215C34.5146 6.49707 34.6274 6.35352 34.73 6.27148C34.8325 6.18945 34.9658 6.06641 35.1299 5.90234C35.2324 5.7998 35.335 5.69727 35.4375 5.59473C35.54 5.47168 35.6426 5.34863 35.7451 5.22559C35.8477 5.10254 35.9502 4.98975 36.0527 4.88721C36.1553 4.76416 36.2578 4.65137 36.3604 4.54883C36.5244 4.32324 36.6782 4.13867 36.8218 3.99512C36.9858 3.83105 37.1396 3.64648 37.2832 3.44141C37.4473 3.23633 37.6113 3.03125 37.7754 2.82617C37.9395 2.60059 38.1035 2.38525 38.2676 2.18018C38.6162 1.729 39.0059 1.39062 39.4365 1.16504C39.8262 1.26758 40.0312 1.3291 40.0518 1.34961C40.0928 1.39062 40.1543 1.41113 40.2363 1.41113C40.7695 1.5752 41.0874 1.82129 41.1899 2.14941C41.2925 2.47754 41.3438 2.78516 41.3438 3.07227C41.3438 3.27734 41.3232 3.52344 41.2822 3.81055C41.2412 4.09766 41.1797 4.34375 41.0977 4.54883C41.0566 4.67188 41.0054 4.79492 40.9438 4.91797C40.9028 5.04102 40.8516 5.15381 40.79 5.25635C40.667 5.46143 40.6055 5.67676 40.6055 5.90234C40.5645 6.14844 40.5132 6.40479 40.4517 6.67139C40.3901 6.93799 40.2773 7.13281 40.1133 7.25586C40.1953 7.83008 40.0825 8.30176 39.7749 8.6709C39.4878 9.01953 39.2314 9.36816 39.0059 9.7168C38.8213 9.9834 38.6777 10.25 38.5752 10.5166C38.3906 10.7627 38.2881 10.9575 38.2676 11.1011C38.2471 11.2651 38.124 11.46 37.8984 11.6855C37.7959 11.8291 37.6216 11.9829 37.3755 12.147C37.0884 12.3521 36.8936 12.5059 36.791 12.6084C36.4629 13.0186 36.2168 13.3057 36.0527 13.4697L35.7451 13.7773C35.54 14.0029 35.376 14.2593 35.2529 14.5464C35.1299 14.813 34.9658 15.0488 34.7607 15.2539C34.5967 15.459 34.4634 15.5923 34.3608 15.6538C34.2583 15.7153 34.1455 15.8281 34.0225 15.9922C33.9609 16.0742 33.8892 16.2178 33.8071 16.4229C33.7866 16.5049 33.7559 16.5869 33.7148 16.6689C33.6738 16.751 33.6328 16.833 33.5918 16.915C33.5508 16.9971 33.5098 17.0791 33.4688 17.1611C33.4277 17.2227 33.3867 17.2842 33.3457 17.3457L33.0996 17.7148C33.0176 17.8584 32.9561 18.0225 32.915 18.207C32.874 18.3711 32.792 18.5352 32.6689 18.6992C32.3613 19.2119 32.0742 19.7451 31.8076 20.2988C31.7051 20.5039 31.6025 20.7603 31.5 21.0679C31.3975 21.3755 31.2949 21.6318 31.1924 21.8369C31.1514 21.96 31.1001 22.083 31.0386 22.2061C30.9976 22.3291 30.9463 22.4419 30.8848 22.5444C30.8027 22.688 30.7002 22.9033 30.5771 23.1904C30.3926 23.5596 30.2183 24.0415 30.0542 24.6362C29.8901 25.231 29.7158 25.7129 29.5312 26.082C29.4492 26.2666 29.3672 26.4512 29.2852 26.6357C29.2236 26.8203 29.1621 27.0049 29.1006 27.1895C28.9775 27.5791 28.8135 27.9277 28.6084 28.2354C28.4033 28.9736 28.2188 29.7324 28.0547 30.5117C27.9727 30.8809 27.8701 31.2603 27.7471 31.6499C27.6445 32.019 27.5215 32.3984 27.3779 32.7881C27.0908 33.6084 26.814 34.4595 26.5474 35.3413C26.2808 36.2231 26.0244 37.0947 25.7783 37.9561C25.5732 38.9404 25.4194 39.8633 25.3169 40.7246C25.2144 41.5859 25.2041 42.5088 25.2861 43.4932C25.5527 43.4932 25.7886 43.5547 25.9937 43.6777C26.2192 43.8008 26.4551 43.8213 26.7012 43.7393C26.8652 43.7188 27.0703 43.6162 27.3164 43.4316C27.5625 43.2471 27.8086 43.1035 28.0547 43.001C28.1982 42.9395 28.3726 42.8882 28.5776 42.8472C28.7007 42.8267 28.8135 42.7344 28.916 42.5703C29.4697 42.4062 29.8799 42.1602 30.1465 41.832C30.6182 41.709 31.0283 41.5142 31.377 41.2476C31.5615 41.104 31.7461 40.981 31.9307 40.8784C32.1152 40.7554 32.2998 40.6426 32.4844 40.54L33.7148 39.8018C33.9199 39.7197 34.125 39.6377 34.3301 39.5557C34.5352 39.4736 34.7197 39.3506 34.8838 39.1865C34.9863 39.084 35.1504 38.9609 35.376 38.8174L35.9297 38.4482C36.3398 38.3252 36.668 38.1714 36.9141 37.9868C37.1602 37.8022 37.3242 37.6689 37.4062 37.5869C37.5908 37.6279 37.8472 37.5459 38.1753 37.3408C38.5034 37.1357 38.7803 37.0332 39.0059 37.0332C39.1084 37.0947 39.2725 37.146 39.498 37.187C39.7031 37.228 39.8467 37.2793 39.9287 37.3408C39.8877 37.5459 39.8774 37.6997 39.8979 37.8022C39.9185 37.9048 39.9287 38.0381 39.9287 38.2021C39.9287 38.2842 39.8159 38.4688 39.5903 38.7559C39.3647 39.043 39.2109 39.2275 39.1289 39.3096C39.0059 39.4736 38.77 39.6992 38.4214 39.9863C38.0728 40.2734 37.7959 40.458 37.5908 40.54C37.3652 41.0322 37.0679 41.4321 36.6987 41.7397C36.4937 41.9038 36.2988 42.0781 36.1143 42.2627C35.9502 42.4268 35.7861 42.5908 35.6221 42.7549C35.2119 42.96 34.8223 43.2266 34.4531 43.5547C34.084 43.8828 33.7559 44.1904 33.4688 44.4775C32.4229 45.1133 31.418 45.7593 30.4541 46.4155C29.4902 47.0923 28.4033 47.7383 27.1934 48.3535L25.7783 48.9995C25.3271 49.2046 24.7734 49.3584 24.1172 49.4609C23.748 49.4814 23.4302 49.4507 23.1636 49.3687C23.02 49.3276 22.8765 49.2764 22.7329 49.2148C22.5894 49.1738 22.4355 49.1328 22.2715 49.0918C22.0254 48.374 21.6562 47.7588 21.1641 47.2461C20.6719 46.7334 20.4258 46.0771 20.4258 45.2773C20.3848 45.1543 20.3848 45.0107 20.4258 44.8467L20.5488 44.3545C20.5898 44.1904 20.6104 44.0674 20.6104 43.9854C20.6104 43.9033 20.6309 43.7598 20.6719 43.5547L20.9487 42.2319C21.0513 41.8013 21.1436 41.3398 21.2256 40.8477C21.1846 40.1914 21.2153 39.6172 21.3179 39.125C21.3589 38.8789 21.3999 38.6226 21.4409 38.356C21.4819 38.0894 21.5127 37.8125 21.5332 37.5254C21.3076 37.6279 21.1538 37.7407 21.0718 37.8638C20.9897 37.9868 20.8359 38.0996 20.6104 38.2021C20.2822 38.5713 19.9233 38.9199 19.5337 39.248C19.144 39.5762 18.7031 39.8633 18.2109 40.1094C17.6982 40.458 17.1855 40.8477 16.6729 41.2783C16.1602 41.709 15.627 42.0781 15.0732 42.3857C14.6221 42.7959 14.1606 43.1855 13.689 43.5547C13.2173 43.9238 12.7354 44.2827 12.2432 44.6313C11.751 44.9595 11.2588 45.3081 10.7666 45.6772C10.2949 46.0259 9.82324 46.3848 9.35156 46.7539C8.98242 46.8975 8.66455 47.0308 8.39795 47.1538C8.09033 47.2974 7.73145 47.3896 7.32129 47.4307C6.87012 47.6768 6.44971 47.7075 6.06006 47.5229C5.67041 47.3384 5.31152 47.1436 4.9834 46.9385L4.3374 46.3848C4.15283 46.2207 3.9375 46.0361 3.69141 45.8311C3.21973 45.0723 2.88135 44.3853 2.67627 43.77C2.4917 43.1958 2.17383 42.6523 1.72266 42.1396C1.66113 41.832 1.49707 41.5039 1.23047 41.1553C1.12793 40.6836 1.05615 40.1914 1.01514 39.6787L0.922852 38.2637C0.943359 37.3818 1.11768 36.541 1.4458 35.7412C1.60986 35.3516 1.75342 34.9824 1.87646 34.6338C1.99951 34.2646 2.1123 33.916 2.21484 33.5879C2.25586 33.4238 2.27637 33.3008 2.27637 33.2188C2.27637 33.1367 2.29688 33.0137 2.33789 32.8496C2.37891 32.7266 2.43018 32.583 2.4917 32.4189C2.55322 32.2549 2.625 32.0908 2.70703 31.9268C2.80957 31.5371 2.91211 31.2295 3.01465 31.0039C3.11719 30.7783 3.21973 30.4707 3.32227 30.0811C3.4248 29.8555 3.48633 29.6914 3.50684 29.5889C3.54785 29.4658 3.60938 29.3428 3.69141 29.2197C3.91699 28.8506 4.0708 28.4814 4.15283 28.1123C4.19385 27.9277 4.24512 27.7432 4.30664 27.5586C4.36816 27.374 4.42969 27.1895 4.49121 27.0049C4.81934 25.9385 5.17822 24.8823 5.56787 23.8364C5.95752 22.7905 6.43945 21.7959 7.01367 20.8525C7.13672 20.6885 7.229 20.5757 7.29053 20.5142C7.35205 20.4526 7.44434 20.3398 7.56738 20.1758L8.85938 18.1455C9.08496 17.8379 9.31055 17.5405 9.53613 17.2534C9.78223 16.9458 10.0386 16.6587 10.3052 16.3921C10.5718 16.105 10.8179 15.8281 11.0435 15.5615C11.2896 15.2744 11.5254 14.9873 11.751 14.7002C12.0381 14.4336 12.3047 14.1567 12.5508 13.8696C12.8174 13.5825 13.0635 13.2852 13.2891 12.9775C13.7812 12.3213 14.2939 11.7676 14.8271 11.3164C14.9297 11.0703 15.0732 10.8755 15.2578 10.7319C15.4424 10.5884 15.5859 10.3936 15.6885 10.1475C16.0371 9.92188 16.355 9.61426 16.6421 9.22461C16.9292 8.85547 17.2676 8.54785 17.6572 8.30176C18.4365 7.44043 19.2363 6.60986 20.0566 5.81006C20.4668 5.3999 20.877 5 21.2871 4.61035C21.6973 4.2002 22.1074 3.79004 22.5176 3.37988C23.2354 3.27734 23.707 3.01074 23.9326 2.58008C24.5068 2.21094 25.1528 1.82129 25.8706 1.41113C26.5884 1.00098 27.2959 0.693359 27.9932 0.488281C28.1982 0.40625 28.4751 0.426758 28.8237 0.549805L29.7158 0.857422C30.3311 0.980469 30.7412 1.17529 30.9463 1.44189C31.1719 1.7085 31.377 1.94434 31.5615 2.14941ZM6.27539 36.541C6.37793 36.9307 6.47021 37.2998 6.55225 37.6484C6.63428 37.9971 6.71631 38.3252 6.79834 38.6328C6.9624 39.3096 7.15723 39.9658 7.38281 40.6016C7.56738 40.7041 7.66992 40.8169 7.69043 40.9399C7.71094 41.063 7.83398 41.1758 8.05957 41.2783C8.22363 41.3604 8.46973 41.4116 8.79785 41.4321C9.12598 41.4526 9.35156 41.4424 9.47461 41.4014C9.67969 41.3193 9.88477 41.2168 10.0898 41.0938C10.377 40.9707 10.6846 40.7964 11.0127 40.5708C11.3408 40.3452 11.6484 40.1709 11.9355 40.0479L13.166 39.5557C13.5762 39.4736 13.9351 39.3506 14.2427 39.1865C14.5503 39.0225 14.8682 38.8379 15.1963 38.6328C16.0781 38.1406 16.8882 37.5972 17.6265 37.0024C18.0366 36.6743 18.4365 36.377 18.8262 36.1104C19.2158 35.8438 19.6055 35.5977 19.9951 35.3721C21.0615 34.0596 22.0767 32.6035 23.0405 31.0039C24.0044 29.4043 24.6504 27.5381 24.9785 25.4053C25.0195 24.9131 25.0708 24.5132 25.1323 24.2056C25.1938 23.8979 25.2656 23.5801 25.3477 23.252C25.4092 23.0674 25.481 22.7905 25.563 22.4214C25.6245 22.0933 25.6963 21.8369 25.7783 21.6523C26.127 20.5449 26.373 19.54 26.5166 18.6377C26.5986 18.166 26.6909 17.7046 26.7935 17.2534C26.9165 16.7817 27.0498 16.3203 27.1934 15.8691C27.3164 15.541 27.4292 15.2026 27.5317 14.854C27.6343 14.5054 27.7266 14.1875 27.8086 13.9004C28.0547 13.6133 28.1675 13.4082 28.147 13.2852C28.1265 13.2031 28.1367 13.1006 28.1777 12.9775C28.3008 12.7109 28.3828 12.5366 28.4238 12.4546C28.4854 12.3726 28.5674 12.1982 28.6699 11.9316C28.834 11.5215 28.998 11.019 29.1621 10.4243C29.3262 9.82959 29.4082 9.30664 29.4082 8.85547C29.2852 8.1582 29.1929 7.68652 29.1313 7.44043C29.0698 7.19434 28.9775 6.90723 28.8545 6.5791C28.7314 6.25098 28.5469 5.83057 28.3008 5.31787C28.0547 4.80518 27.7676 4.50781 27.4395 4.42578C26.9883 4.34375 26.5576 4.51807 26.1475 4.94873C25.9424 5.15381 25.7578 5.33838 25.5938 5.50244C25.4502 5.6665 25.3271 5.7998 25.2246 5.90234C25.1426 5.98438 25.0298 6.05615 24.8862 6.11768C24.7632 6.15869 24.6504 6.25098 24.5479 6.39453C24.4248 6.51758 24.3325 6.62012 24.271 6.70215C24.2095 6.78418 24.0967 6.90723 23.9326 7.07129C23.707 7.29688 23.5225 7.52246 23.3789 7.74805L22.2715 9.10156C22.0664 9.30664 21.9023 9.53223 21.7793 9.77832C21.6562 10.0244 21.4922 10.25 21.2871 10.4551C21.1641 10.5986 21.041 10.7422 20.918 10.8857C20.7949 11.0088 20.6719 11.1318 20.5488 11.2549C20.3027 11.501 20.1182 11.7881 19.9951 12.1162C19.5029 12.4648 19.0723 12.875 18.7031 13.3467C18.498 13.5928 18.3135 13.8389 18.1494 14.085C17.9854 14.3311 17.8418 14.5977 17.7188 14.8848C17.3906 15.0283 17.1343 15.2744 16.9497 15.623C16.7856 15.9307 16.5703 16.1973 16.3037 16.4229C15.9141 16.7715 15.6987 17.0073 15.6577 17.1304C15.5962 17.2739 15.5244 17.3867 15.4424 17.4688C14.8271 18.207 14.2632 18.9863 13.7505 19.8066C13.2378 20.627 12.7559 21.4678 12.3047 22.3291C12.3457 22.4727 12.3252 22.5854 12.2432 22.6675C12.1611 22.7495 12.1201 22.9033 12.1201 23.1289C11.874 23.457 11.6484 23.8467 11.4434 24.2979C11.3613 24.4619 11.2793 24.626 11.1973 24.79C11.1357 24.9336 11.0845 25.0874 11.0435 25.2515C11.0024 25.395 10.9512 25.5488 10.8896 25.7129C10.8281 25.877 10.7666 26.041 10.7051 26.2051C10.6641 26.2871 10.623 26.3691 10.582 26.4512C10.5615 26.5127 10.5308 26.5742 10.4897 26.6357C10.4077 26.7998 10.3359 26.9229 10.2744 27.0049C10.1924 27.251 10.1104 27.4868 10.0283 27.7124C9.94629 27.938 9.86426 28.1533 9.78223 28.3584C9.61816 28.7891 9.37207 29.1992 9.04395 29.5889C8.98242 29.6914 8.93115 29.8657 8.89014 30.1118C8.84912 30.3579 8.79785 30.5322 8.73633 30.6348C8.6543 30.8398 8.56201 31.0244 8.45947 31.1885C8.37744 31.332 8.28516 31.5166 8.18262 31.7422C8.12109 31.8857 8.04932 32.1011 7.96729 32.3882C7.88525 32.6753 7.81348 32.8906 7.75195 33.0342C7.6084 33.2598 7.46484 33.4443 7.32129 33.5879C7.21875 33.7109 7.15723 33.8442 7.13672 33.9878C7.11621 34.1313 7.05469 34.2646 6.95215 34.3877C6.68555 34.6543 6.48047 34.8389 6.33691 34.9414C6.15234 35.085 5.98828 35.3105 5.84473 35.6182C5.92676 35.7002 5.99854 35.8438 6.06006 36.0488C6.12158 36.2744 6.19336 36.4385 6.27539 36.541ZM56.7246 32.4805C57.1348 32.583 57.4321 32.7266 57.6167 32.9111C57.7603 33.0547 57.832 33.2188 57.832 33.4033C57.5039 33.8545 57.3091 34.1519 57.2476 34.2954C57.186 34.439 57.0527 34.5518 56.8477 34.6338C56.5811 35.0439 56.2939 35.4336 55.9863 35.8027C55.6992 36.1514 55.3813 36.4897 55.0327 36.8179C54.397 37.4331 53.7715 38.1406 53.1562 38.9404C52.8896 39.207 52.7051 39.4121 52.6025 39.5557C52.5 39.6992 52.3154 39.9043 52.0488 40.1709C51.5566 40.5195 51.1465 40.8784 50.8184 41.2476C50.6338 41.4526 50.439 41.6475 50.2339 41.832C50.0493 41.9961 49.8545 42.1602 49.6494 42.3242C49.5469 42.4062 49.4443 42.4883 49.3418 42.5703C49.2598 42.6318 49.1675 42.7036 49.0649 42.7856C48.9829 42.8677 48.8906 42.9497 48.7881 43.0317C48.6855 43.1138 48.583 43.2061 48.4805 43.3086C48.3164 43.4727 48.1318 43.6367 47.9268 43.8008C47.8447 43.8623 47.7524 43.9341 47.6499 44.0161C47.5679 44.0776 47.4756 44.1494 47.373 44.2314C47.127 44.5186 46.8809 44.8057 46.6348 45.0928C46.3887 45.3799 46.1426 45.6875 45.8965 46.0156C45.4658 46.2207 45.0557 46.4668 44.666 46.7539C44.2969 47.0205 43.8662 47.2666 43.374 47.4922C43.1689 47.6152 42.9741 47.8101 42.7896 48.0767C42.6255 48.3228 42.3896 48.4971 42.082 48.5996C41.7539 48.7227 41.4053 48.7534 41.0361 48.6919C40.667 48.6304 40.3594 48.5381 40.1133 48.415C39.8467 48.2305 39.6826 48.1279 39.6211 48.1074C39.457 48.0664 39.3545 48.0459 39.3135 48.0459C38.9238 47.4922 38.6572 46.9077 38.5137 46.2925C38.4316 45.9644 38.3394 45.6362 38.2368 45.3081C38.1548 44.98 38.0625 44.6416 37.96 44.293C37.8779 44.0879 37.8164 43.8726 37.7754 43.647C37.7344 43.4214 37.6934 43.165 37.6523 42.8779L37.5601 42.3857C37.5396 42.3037 37.519 42.2217 37.4985 42.1396C37.478 42.0371 37.4473 41.9346 37.4062 41.832C37.3242 41.627 37.2422 41.4116 37.1602 41.186C37.0781 40.9604 37.0166 40.7246 36.9756 40.4785C36.8936 39.9863 36.8628 39.5044 36.8833 39.0327C36.9038 38.561 36.9551 38.0996 37.0371 37.6484C37.2832 36.2949 37.6421 35.0029 38.1138 33.7725C38.5854 32.542 39.0674 31.373 39.5596 30.2656C39.6621 29.7529 39.7749 29.3633 39.8979 29.0967C40.021 28.8301 40.1543 28.4609 40.2979 27.9893C40.4824 27.7637 40.626 27.4355 40.7285 27.0049C40.7695 26.8203 40.8105 26.6357 40.8516 26.4512C40.9131 26.2666 40.9746 26.082 41.0361 25.8975C41.0977 25.7334 41.1694 25.5693 41.2515 25.4053C41.3335 25.2207 41.4155 25.0259 41.4976 24.8208C41.6616 24.4517 41.7949 24.0723 41.8975 23.6826C42.041 23.2109 42.1538 22.8008 42.2358 22.4521C42.2769 22.2471 42.3281 22.0522 42.3896 21.8677C42.4717 21.6831 42.5537 21.5088 42.6357 21.3447C42.7998 20.9141 42.9536 20.4937 43.0972 20.0835C43.2612 19.6733 43.415 19.2734 43.5586 18.8838C43.7021 18.4941 43.8457 18.1045 43.9893 17.7148C44.1533 17.3252 44.3174 16.9355 44.4814 16.5459C44.5225 16.4229 44.5635 16.2998 44.6045 16.1768C44.6455 16.0537 44.6865 15.9307 44.7275 15.8076C44.8096 15.582 44.9326 15.3564 45.0967 15.1309C45.1992 14.8438 45.3018 14.6284 45.4043 14.4849C45.5684 14.2388 45.6914 14.0439 45.7734 13.9004C45.7734 13.6748 45.8452 13.521 45.9888 13.439C46.0913 13.3774 46.2041 13.2441 46.3271 13.0391C46.5527 12.6904 46.7065 12.3623 46.7886 12.0547C46.8706 11.7471 47.0244 11.4189 47.25 11.0703L47.9883 10.1475C48.0293 10.0654 48.0703 9.9834 48.1113 9.90137C48.1523 9.81934 48.1934 9.7373 48.2344 9.65527C48.3369 9.49121 48.46 9.34766 48.6035 9.22461C49.0752 8.48633 49.5674 7.74805 50.0801 7.00977L51.7412 4.67188C52.1104 4.09766 52.5205 3.5542 52.9717 3.0415C53.4229 2.52881 53.8945 2.02637 54.3867 1.53418C54.5508 1.3291 54.7456 1.10352 54.9712 0.857422C55.1968 0.611328 55.4326 0.467773 55.6787 0.426758C56.0684 0.385742 56.4785 0.426758 56.9092 0.549805C57.0322 0.754883 57.145 0.970215 57.2476 1.1958C57.3501 1.42139 57.4424 1.67773 57.5244 1.96484C57.6064 3.23633 57.5654 4.4668 57.4014 5.65625C57.2373 6.8457 57.0527 8.01465 56.8477 9.16309C56.8066 9.42969 56.7964 9.62451 56.8169 9.74756C56.8374 9.87061 56.8271 10.0654 56.7861 10.332C56.7041 10.5781 56.6016 10.896 56.4785 11.2856C56.3555 11.6753 56.2529 12.0342 56.1709 12.3623C56.1709 12.916 56.0479 13.4287 55.8018 13.9004C55.5557 14.3516 55.3916 14.8027 55.3096 15.2539C55.1865 15.3359 55.1147 15.4692 55.0942 15.6538C55.0737 15.8384 55.002 15.9717 54.8789 16.0537C54.7764 16.5254 54.6431 16.9355 54.479 17.2842C54.2944 17.6533 54.1406 18.0225 54.0176 18.3916C53.71 18.8223 53.4023 19.2427 53.0947 19.6528C52.7871 20.063 52.4692 20.4731 52.1411 20.8833C51.813 21.2729 51.4951 21.6831 51.1875 22.1138C50.9004 22.5239 50.6133 22.9443 50.3262 23.375C49.6084 24.4619 48.8599 25.4873 48.0806 26.4512C47.3013 27.415 46.5527 28.4404 45.835 29.5273C45.2607 30.04 44.8096 30.5527 44.4814 31.0654C44.1328 31.6191 43.6611 32.1318 43.0664 32.6035C42.9639 33.0137 42.8613 33.4443 42.7588 33.8955C42.6768 34.3467 42.5845 34.8081 42.4819 35.2798C42.3999 35.7515 42.3076 36.2334 42.2051 36.7256C42.1025 37.2178 42 37.71 41.8975 38.2021C41.877 38.4688 41.8154 38.7456 41.7129 39.0327C41.6719 39.1763 41.6309 39.3198 41.5898 39.4634C41.5488 39.5864 41.5078 39.7197 41.4668 39.8633C41.3848 40.1504 41.3643 40.499 41.4053 40.9092C41.4258 41.2783 41.3643 41.627 41.2207 41.9551C41.2822 42.1191 41.3335 42.355 41.3745 42.6626C41.395 42.9292 41.4668 43.165 41.5898 43.3701C41.8154 43.7393 42.0615 43.9238 42.3281 43.9238C42.6357 43.7598 42.7998 43.688 42.8203 43.7085C42.8408 43.729 42.9023 43.7188 43.0049 43.6777C43.21 43.5547 43.415 43.3906 43.6201 43.1855C43.8252 42.9805 44.0098 42.7959 44.1738 42.6318C44.3994 42.5293 44.5532 42.437 44.6353 42.355C44.6968 42.2935 44.8096 42.2012 44.9736 42.0781C45.0967 41.9961 45.2095 41.9346 45.312 41.8936C45.4146 41.8525 45.5068 41.791 45.5889 41.709C46.1836 41.0938 46.7373 40.6323 47.25 40.3247C47.7832 40.0171 48.2139 39.6377 48.542 39.1865L49.6494 38.5098C49.875 38.3867 50.0903 38.2124 50.2954 37.9868C50.48 37.7612 50.7158 37.5869 51.0029 37.4639C51.126 37.2998 51.208 37.1973 51.249 37.1562C51.29 37.1152 51.3721 37.0127 51.4951 36.8486C51.7412 36.6846 51.9873 36.5205 52.2334 36.3564C52.4795 36.1924 52.7153 36.0283 52.9409 35.8643C53.1665 35.7002 53.4023 35.5361 53.6484 35.3721C53.915 35.208 54.1816 35.0439 54.4482 34.8799C54.5303 34.6748 54.6636 34.5107 54.8481 34.3877C55.0327 34.2646 55.1865 34.1416 55.3096 34.0186C55.4326 33.8955 55.5352 33.7622 55.6172 33.6187C55.7197 33.4546 55.8633 33.3623 56.0479 33.3418C56.0684 33.1572 56.1606 33.0137 56.3247 32.9111C56.4888 32.8086 56.6221 32.665 56.7246 32.4805ZM53.4023 9.53223H53.3408C52.9717 9.61426 52.7153 9.79883 52.5718 10.0859C52.4282 10.373 52.2949 10.7012 52.1719 11.0703C52.0898 11.2344 52.0078 11.3779 51.9258 11.501C51.8643 11.624 51.813 11.7266 51.772 11.8086C51.6899 11.9521 51.6592 12.1982 51.6797 12.5469C51.0439 13.5928 50.439 14.6694 49.8647 15.7769C49.2905 16.8638 48.7368 17.9814 48.2036 19.1299C47.6909 20.2783 47.168 21.437 46.6348 22.606C46.1016 23.7544 45.5684 24.9131 45.0352 26.082C45.876 25.2412 46.645 24.2568 47.3423 23.1289C47.6909 22.5547 48.0498 22.0215 48.4189 21.5293C48.8086 21.0371 49.1982 20.5859 49.5879 20.1758C49.875 19.4785 50.1724 18.8018 50.48 18.1455C50.8081 17.4893 51.1465 16.8638 51.4951 16.269C52.1719 15.1206 52.7051 13.7568 53.0947 12.1777C52.9307 11.665 52.9512 11.2241 53.1562 10.855C53.3613 10.4858 53.4434 10.0449 53.4023 9.53223ZM53.8945 33.4033C54.1611 33.2598 54.4893 32.9521 54.8789 32.4805C55.2686 31.9883 55.6479 31.5166 56.0171 31.0654C56.3862 30.5938 56.6631 30.3271 56.8477 30.2656C56.9707 30.0605 57.0835 29.8862 57.186 29.7427C57.2886 29.5991 57.4424 29.4658 57.6475 29.3428C57.9756 28.748 58.4062 28.2456 58.9395 27.8354C59.4932 27.4048 60.0059 26.9434 60.4775 26.4512C60.8672 26.2871 61.2568 26.1025 61.6465 25.8975C62.0566 25.6924 62.4565 25.4565 62.8462 25.1899C63.646 24.6567 64.5381 24.3799 65.5225 24.3594C65.9736 24.5645 66.4146 24.626 66.8452 24.5439C67.2554 24.4619 67.6553 24.5645 68.0449 24.8516C68.2705 25.2412 68.4551 25.4771 68.5986 25.5591C68.7422 25.6411 68.8652 25.7539 68.9678 25.8975C69.1318 26.4102 69.2549 26.7485 69.3369 26.9126C69.4395 27.0767 69.501 27.251 69.5215 27.4355C69.542 27.7432 69.5625 28.0098 69.583 28.2354C69.6035 28.4404 69.624 28.6147 69.6445 28.7583C69.665 29.0249 69.665 29.2812 69.6445 29.5273C69.5215 30.5732 69.3164 31.6191 69.0293 32.665C68.9883 32.7881 68.9473 32.9111 68.9062 33.0342C68.8652 33.1572 68.8242 33.2905 68.7832 33.4341C68.7012 33.7007 68.5986 33.9365 68.4756 34.1416C68.168 34.5312 67.9526 34.8491 67.8296 35.0952C67.645 35.4233 67.5117 35.6387 67.4297 35.7412C67.1836 35.9873 66.9478 36.2129 66.7222 36.418C66.5171 36.623 66.3223 36.8076 66.1377 36.9717C65.9531 37.0742 65.7686 37.187 65.584 37.3101C65.3994 37.4126 65.2148 37.5254 65.0303 37.6484C64.6816 37.874 64.2715 38.0381 63.7998 38.1406L63.2461 38.479C63.0615 38.6021 62.8564 38.6738 62.6309 38.6943C62.2617 38.9609 61.8516 39.1763 61.4004 39.3403C61.1953 39.4224 60.98 39.5044 60.7544 39.5864C60.5493 39.6685 60.334 39.7607 60.1084 39.8633C59.8008 39.9863 59.5342 40.1299 59.3086 40.2939C59.083 40.458 58.7959 40.6221 58.4473 40.7861C58.2627 40.8477 57.9653 40.9194 57.5552 41.0015C57.1655 41.063 56.8887 41.1348 56.7246 41.2168C56.9297 41.627 57.0117 42.1396 56.9707 42.7549C56.9502 43.3291 57.0527 43.8418 57.2783 44.293C57.8115 44.416 58.396 44.5083 59.0317 44.5698C59.6675 44.6313 60.2725 44.6211 60.8467 44.5391C60.9492 44.5186 61.0518 44.4878 61.1543 44.4468C61.2773 44.4058 61.4004 44.3647 61.5234 44.3237C61.6465 44.2827 61.7695 44.2417 61.8926 44.2007C62.0156 44.1597 62.1387 44.1289 62.2617 44.1084C62.7129 44.0264 63.1538 43.9238 63.5845 43.8008C64.0151 43.6777 64.3945 43.5137 64.7227 43.3086C65.9121 42.8984 67.0605 42.3447 68.168 41.6475C69.2754 40.9502 70.2393 40.1914 71.0596 39.3711C71.5518 39.043 72.0952 38.5918 72.6899 38.0176C73.2847 37.4434 73.7461 36.9102 74.0742 36.418C74.6895 35.7617 75.2329 35.249 75.7046 34.8799C76.1763 34.5107 76.6172 34.3467 77.0273 34.3877C77.3555 34.3877 77.6733 34.5825 77.981 34.9722C78.2886 35.3618 78.2578 35.7822 77.8887 36.2334C77.499 36.4795 77.0684 36.8486 76.5967 37.3408C76.1455 37.833 75.6738 38.1816 75.1816 38.3867C74.833 38.6123 74.3716 39.0635 73.7974 39.7402C73.2437 40.376 72.7822 40.8682 72.4131 41.2168C72.3311 41.2988 72.2388 41.3911 72.1362 41.4937C72.0337 41.5962 71.9106 41.6987 71.7671 41.8013C71.5005 42.0063 71.2852 42.2217 71.1211 42.4473C70.4854 42.9805 69.8701 43.4316 69.2754 43.8008C69.0498 43.7188 68.8652 43.7598 68.7217 43.9238C68.5371 44.1494 68.373 44.3135 68.2295 44.416C68.168 44.457 68.1064 44.498 68.0449 44.5391C67.9834 44.5801 67.9116 44.6211 67.8296 44.6621C67.7476 44.7031 67.6758 44.7441 67.6143 44.7852C67.5527 44.8262 67.4912 44.8672 67.4297 44.9082C67.1016 45.1953 66.7427 45.4824 66.353 45.7695C65.9634 46.0566 65.5635 46.3027 65.1533 46.5078C64.7432 46.7539 64.333 46.9795 63.9229 47.1846C63.5127 47.4102 63.1025 47.605 62.6924 47.769C62.2822 47.9331 61.8721 48.1279 61.4619 48.3535C61.0723 48.5791 60.6826 48.8252 60.293 49.0918L59.6162 49.1841C59.5137 49.2046 59.4111 49.2148 59.3086 49.2148C59.2061 49.2354 59.1035 49.2559 59.001 49.2764C58.7754 49.3584 58.5601 49.3994 58.355 49.3994C58.1499 49.3994 57.8936 49.3584 57.5859 49.2764C56.2324 48.9072 55.125 48.251 54.2637 47.3076C54.1406 47.1846 54.0073 47.0718 53.8638 46.9692C53.7407 46.8462 53.6074 46.7334 53.4639 46.6309C53.1357 46.3848 52.9102 46.1592 52.7871 45.9541C52.6025 45.6465 52.418 45.1646 52.2334 44.5083C52.0283 43.8521 51.854 43.1855 51.7104 42.5088C51.5669 41.8115 51.4951 41.2783 51.4951 40.9092C51.6182 40.6631 51.7515 40.2427 51.895 39.6479C52.0386 39.0327 52.1616 38.4277 52.2642 37.833C52.3667 37.2178 52.418 36.7871 52.418 36.541C52.5 36.459 52.6641 36.1924 52.9102 35.7412C53.1357 35.2695 53.3511 34.7979 53.5562 34.3262C53.7817 33.834 53.8945 33.5264 53.8945 33.4033ZM63.7998 29.4658C63.5127 29.835 63.2256 30.1836 62.9385 30.5117C62.6514 30.8398 62.3232 31.1475 61.9541 31.4346C61.708 31.8857 61.4209 32.2959 61.0928 32.665C60.7646 33.0342 60.4365 33.3828 60.1084 33.7109C59.9443 34.0391 59.7598 34.2954 59.5547 34.48C59.3496 34.6646 59.124 34.8594 58.8779 35.0645C58.6113 35.5156 58.2832 35.9463 57.8936 36.3564C57.5039 36.7666 57.4219 37.2383 57.6475 37.7715C58.0986 37.8535 58.5498 37.792 59.001 37.5869C59.4521 37.3818 59.8418 37.1973 60.1699 37.0332C60.334 36.9307 60.498 36.8384 60.6621 36.7563C60.8467 36.6743 61.021 36.5923 61.1851 36.5103C61.3491 36.4282 61.5132 36.3462 61.6772 36.2642C61.8413 36.1821 61.9951 36.0898 62.1387 35.9873L63.7383 34.3877C63.9844 34.1621 64.2305 33.8955 64.4766 33.5879C64.5791 33.4443 64.6816 33.3008 64.7842 33.1572C64.9072 32.9932 65.0303 32.8291 65.1533 32.665C65.2559 32.2139 65.4199 31.7935 65.6455 31.4038C65.8916 30.9937 65.9941 30.5732 65.9531 30.1426C65.9326 29.958 65.8608 29.7427 65.7378 29.4966C65.6147 29.2505 65.543 29.0557 65.5225 28.9121C65.0918 28.9121 64.7739 28.9839 64.5688 29.1274C64.4663 29.2095 64.3433 29.2812 64.1997 29.3428C64.0767 29.3838 63.9434 29.4248 63.7998 29.4658ZM83.0566 33.1572C83.4053 32.9111 83.7642 32.6445 84.1333 32.3574C84.2974 32.2139 84.4717 32.0703 84.6562 31.9268C84.8408 31.7832 85.0254 31.6396 85.21 31.4961C85.6406 31.1475 86.0713 30.7988 86.502 30.4502C86.9531 30.1016 87.4043 29.7632 87.8555 29.4351C88.3066 29.0864 88.7476 28.748 89.1782 28.4199C89.6294 28.0713 90.0703 27.7227 90.501 27.374C90.665 27.1689 90.8496 27.0049 91.0547 26.8818C91.4854 26.6562 91.7212 26.5024 91.7622 26.4204C91.8032 26.3384 91.8545 26.2871 91.916 26.2666C92.0596 26.1846 92.2544 26.1743 92.5005 26.2358C92.7261 26.2974 92.9414 26.2871 93.1465 26.2051C93.6797 26.082 94.2334 26.082 94.8076 26.2051C95.3818 26.3281 95.751 26.4307 95.915 26.5127C96.0176 26.4717 96.1099 26.4409 96.1919 26.4204C96.2944 26.3999 96.3867 26.3794 96.4688 26.3589L96.9609 26.2666C97.2891 26.2666 97.5249 26.3281 97.6685 26.4512C97.812 26.5742 97.9453 26.6973 98.0684 26.8203C98.0684 26.9844 98.0786 27.1177 98.0991 27.2202C98.1401 27.3638 98.1094 27.5176 98.0068 27.6816C97.5967 28.0508 97.166 28.4097 96.7148 28.7583C96.2637 29.1069 95.751 29.4043 95.1768 29.6504C94.541 29.999 94.1206 30.2759 93.9155 30.481C93.7104 30.686 93.4336 30.8398 93.085 30.9424C92.5107 31.1885 91.9673 31.5063 91.4546 31.896C91.0034 32.2241 90.4805 32.5625 89.8857 32.9111C89.5576 33.1572 89.2192 33.3931 88.8706 33.6187C88.522 33.8442 88.1733 34.0698 87.8247 34.2954C87.0864 34.7466 86.3994 35.2285 85.7637 35.7412C85.5381 35.8848 85.3638 36.0181 85.2407 36.1411C85.1792 36.2026 85.0664 36.2949 84.9023 36.418C84.9434 36.7256 85.0049 36.9819 85.0869 37.187C85.1689 37.3716 85.21 37.6484 85.21 38.0176C85.2715 38.0996 85.3433 38.2432 85.4253 38.4482C85.4663 38.5303 85.4971 38.6123 85.5176 38.6943C85.5586 38.7764 85.5996 38.8584 85.6406 38.9404C85.7432 39.125 85.8354 39.3096 85.9175 39.4941C85.9995 39.6787 86.0815 39.853 86.1636 40.0171C86.2456 40.1812 86.3276 40.3555 86.4097 40.54C86.5122 40.7246 86.625 40.9092 86.748 41.0938L87.2095 41.832C87.3735 42.0781 87.5684 42.2627 87.7939 42.3857C87.8965 42.5908 87.9888 42.7446 88.0708 42.8472C88.1733 42.9292 88.2656 43.083 88.3477 43.3086C88.6143 43.7598 89.0654 43.8828 89.7012 43.6777C90.3369 43.4521 90.9111 43.2061 91.4238 42.9395C91.834 42.8984 92.1519 42.7856 92.3774 42.6011C92.603 42.4165 92.8389 42.2217 93.085 42.0166C93.1875 41.9346 93.29 41.8628 93.3926 41.8013C93.5156 41.7192 93.6284 41.6475 93.731 41.5859C93.9771 41.4424 94.1924 41.2783 94.377 41.0938C94.7871 40.8066 95.1973 40.5298 95.6074 40.2632C96.0176 39.9966 96.4482 39.7607 96.8994 39.5557C97.1455 39.2275 97.3813 38.9917 97.6069 38.8481C97.894 38.6636 98.1504 38.4688 98.376 38.2637C98.7451 38.0176 99.0322 37.792 99.2373 37.5869C99.4424 37.3818 99.709 37.1768 100.037 36.9717C100.242 36.7666 100.447 36.582 100.652 36.418C100.857 36.2539 101.021 36.1104 101.145 35.9873C101.432 35.8643 101.688 35.731 101.914 35.5874C102.139 35.4438 102.334 35.2285 102.498 34.9414C102.703 34.9414 102.877 34.8696 103.021 34.7261C103.185 34.562 103.359 34.4697 103.544 34.4492C103.626 34.8184 103.626 35.1157 103.544 35.3413C103.462 35.5669 103.359 35.7617 103.236 35.9258C102.99 36.1719 102.744 36.3975 102.498 36.6025C102.252 36.8076 101.965 36.9922 101.637 37.1562C101.575 37.2178 101.483 37.2896 101.36 37.3716C101.237 37.4536 101.145 37.5254 101.083 37.5869C101.021 37.6484 100.929 37.7202 100.806 37.8022C100.683 37.8843 100.591 37.9561 100.529 38.0176C100.304 38.4277 100.129 38.6738 100.006 38.7559C99.8628 38.8379 99.7295 38.9609 99.6064 39.125C99.3809 39.248 99.1655 39.4121 98.9604 39.6172C98.7759 39.8018 98.54 39.9863 98.2529 40.1709C97.3916 40.9912 96.6533 41.6782 96.0381 42.2319C95.4229 42.7856 94.7666 43.3291 94.0693 43.8623C93.4746 44.2109 92.9004 44.5288 92.3467 44.8159C92.0596 44.9595 91.7622 45.1235 91.4546 45.3081C91.1675 45.4722 90.8701 45.6465 90.5625 45.8311C90.4805 45.8721 90.3984 45.9233 90.3164 45.9849C90.2344 46.0259 90.1523 46.0771 90.0703 46.1387C89.9062 46.2822 89.7627 46.3643 89.6396 46.3848C89.4346 46.4668 89.2192 46.4976 88.9937 46.4771C88.7886 46.436 88.5732 46.5283 88.3477 46.7539C87.958 46.8975 87.5273 47.082 87.0557 47.3076C86.625 47.5127 86.2148 47.5947 85.8252 47.5537C85.6816 47.5332 85.5073 47.4614 85.3022 47.3384C85.1587 47.2563 84.9844 47.2256 84.7793 47.2461C84.6562 46.959 84.3896 46.7334 83.9795 46.5693C83.5693 46.4053 83.4258 46.0977 83.5488 45.6465C83.3232 45.3389 83.0977 44.9902 82.8721 44.6006C82.7695 44.416 82.667 44.2417 82.5645 44.0776C82.4619 43.8931 82.3594 43.7188 82.2568 43.5547C82.2979 43.0215 82.2261 42.5908 82.0415 42.2627C81.8569 41.9346 81.6621 41.6064 81.457 41.2783C81.416 41.1553 81.375 41.0322 81.334 40.9092C81.293 40.7861 81.252 40.6631 81.2109 40.54C81.1289 40.3145 81.0366 40.1299 80.9341 39.9863C80.811 39.7812 80.7393 39.5967 80.7188 39.4326C80.2676 39.6787 79.9395 39.8838 79.7344 40.0479C79.5293 40.2119 79.2422 40.458 78.873 40.7861C78.7705 40.8682 78.668 40.9502 78.5654 41.0322C78.4834 41.0938 78.4014 41.1553 78.3193 41.2168C78.2373 41.2783 78.145 41.3501 78.0425 41.4321C77.9604 41.4937 77.8682 41.5654 77.7656 41.6475C77.2939 41.9141 76.9043 42.2012 76.5967 42.5088C76.4326 42.6729 76.2686 42.8574 76.1045 43.0625C75.9609 43.2471 75.7969 43.3906 75.6123 43.4932L74.9663 43.8623C74.8638 43.9238 74.751 43.9956 74.6279 44.0776C74.5254 44.1392 74.4229 44.2109 74.3203 44.293C74.1768 44.3955 74.0024 44.5493 73.7974 44.7544C73.6333 44.9185 73.4385 45.0723 73.2129 45.2158C73.0898 45.2979 72.9668 45.4209 72.8438 45.585C72.7207 45.7285 72.5771 45.8516 72.4131 45.9541C72.208 46.1387 71.9414 46.3027 71.6133 46.4463C71.2852 46.5898 71.0186 46.7539 70.8135 46.9385C70.3213 47.4307 69.8701 47.8101 69.46 48.0767C69.0498 48.3433 68.5781 48.4355 68.0449 48.3535C67.7783 48.1895 67.3579 48.0049 66.7837 47.7998C66.189 47.5947 65.8916 47.3896 65.8916 47.1846C66.0557 47.0205 66.2197 46.8872 66.3838 46.7847C66.5479 46.6821 66.7324 46.5693 66.9375 46.4463C67.3682 46.0156 67.8296 45.6362 68.3218 45.3081C68.5474 45.144 68.7832 44.9902 69.0293 44.8467C69.2754 44.6826 69.5215 44.5186 69.7676 44.3545C70.0957 44.1494 70.3521 43.9033 70.5366 43.6162C70.7417 43.3086 70.998 43.042 71.3057 42.8164C71.4697 42.5293 71.6543 42.3242 71.8594 42.2012C71.9824 42.0781 72.0747 41.9756 72.1362 41.8936C72.1978 41.8115 72.29 41.709 72.4131 41.5859C72.8643 41.3398 73.0898 41.1963 73.0898 41.1553C73.0898 41.1143 73.1104 41.0732 73.1514 41.0322C73.5 40.7861 73.7461 40.54 73.8896 40.2939C73.9717 40.2324 74.1152 40.1401 74.3203 40.0171C74.5049 39.9146 74.6689 39.8018 74.8125 39.6787C75.0176 39.5146 75.2124 39.3608 75.397 39.2173C75.6021 39.0737 75.7866 38.9404 75.9507 38.8174L77.0273 38.0176C77.2529 37.792 77.4785 37.6074 77.7041 37.4639C77.8271 37.3818 77.9399 37.2998 78.0425 37.2178C78.1655 37.1357 78.2783 37.0537 78.3809 36.9717C78.627 36.4795 78.6885 36.1719 78.5654 36.0488C78.4219 35.9053 78.3398 35.8027 78.3193 35.7412C78.2783 35.5361 78.2578 35.3618 78.2578 35.2183C78.2578 35.0747 78.2373 34.9004 78.1963 34.6953L78.0117 33.7725C77.9912 33.4854 77.9092 33.188 77.7656 32.8804C77.6631 32.6343 77.5605 32.3369 77.458 31.9883C77.376 31.8037 77.3042 31.5474 77.2427 31.2192C77.1812 30.9321 77.1094 30.6963 77.0273 30.5117C76.9863 30.3887 76.9453 30.2656 76.9043 30.1426C76.8838 29.999 76.853 29.8555 76.812 29.7119C76.73 29.3838 76.6582 29.1377 76.5967 28.9736C76.4736 28.7686 76.3916 28.6045 76.3506 28.4814C76.3096 28.3584 76.3301 28.1533 76.4121 27.8662C76.4531 27.5791 76.4736 27.3945 76.4736 27.3125C76.4736 27.1484 76.5557 27.0049 76.7197 26.8818C77.0684 26.6562 77.2734 26.5127 77.335 26.4512L77.5811 26.2051C77.8477 26.1025 78.1963 25.9282 78.627 25.6821C79.0371 25.436 79.3652 25.2617 79.6113 25.1592C80.1855 24.79 80.606 24.7183 80.8726 24.9438C81.1392 25.1694 81.3135 25.4463 81.3955 25.7744C81.1904 26.2666 81.0981 26.5742 81.1187 26.6973C81.1392 26.7793 81.1494 26.9023 81.1494 27.0664C81.0674 27.415 81.0264 27.7739 81.0264 28.1431C81.0264 28.4302 81.1494 28.6865 81.3955 28.9121C81.3135 29.0762 81.3032 29.2197 81.3647 29.3428C81.4263 29.4658 81.498 29.5684 81.5801 29.6504C81.7031 30.3271 81.9082 30.9424 82.1953 31.4961C82.3389 31.7627 82.4824 32.0396 82.626 32.3267C82.7695 32.5933 82.9131 32.8701 83.0566 33.1572ZM117.817 29.8965L117.756 30.3887C117.797 30.5322 117.756 30.7783 117.633 31.127C117.428 31.373 117.305 31.6396 117.264 31.9268C117.182 32.0908 117.11 32.2344 117.048 32.3574C116.987 32.4805 116.936 32.6445 116.895 32.8496C116.812 33.0957 116.782 33.3828 116.802 33.7109C116.823 33.875 116.823 34.0391 116.802 34.2031C116.802 34.3467 116.792 34.4902 116.771 34.6338C116.689 35.085 116.628 35.5259 116.587 35.9565C116.546 36.3872 116.505 36.8281 116.464 37.2793C116.464 37.7305 116.423 38.2432 116.341 38.8174C116.259 39.3916 116.177 39.9043 116.095 40.3555C116.279 40.6836 116.382 40.9912 116.402 41.2783C116.423 41.5859 116.566 41.8525 116.833 42.0781C117.653 41.9551 118.31 41.7603 118.802 41.4937C119.294 41.2271 119.766 40.8477 120.217 40.3555C120.545 40.2119 120.801 40.0684 120.986 39.9248C121.15 39.7812 121.386 39.6172 121.693 39.4326L122.186 38.9404C122.678 38.6738 122.955 38.5098 123.016 38.4482C123.057 38.4072 123.108 38.3662 123.17 38.3252C123.252 38.2842 123.334 38.2432 123.416 38.2021C124.113 37.751 124.646 37.2793 125.016 36.7871C125.323 36.541 125.58 36.2847 125.785 36.0181C125.949 35.7925 126.267 35.5771 126.738 35.3721C127.005 35.0439 127.302 34.7671 127.63 34.5415C127.958 34.3159 128.256 34.0391 128.522 33.7109C128.748 33.7109 128.912 33.752 129.015 33.834C129.076 33.875 129.138 33.916 129.199 33.957C129.281 33.998 129.363 34.0391 129.445 34.0801C129.568 34.4082 129.589 34.7466 129.507 35.0952C129.425 35.4438 129.281 35.7617 129.076 36.0488C128.871 36.3154 128.769 36.4795 128.769 36.541C128.769 36.582 128.748 36.623 128.707 36.6641C128.584 36.8076 128.43 36.9614 128.246 37.1255C128.061 37.269 127.907 37.4229 127.784 37.5869C127.579 37.9561 127.415 38.1406 127.292 38.1406C127.169 38.1406 127.066 38.1816 126.984 38.2637C126.615 38.4893 126.359 38.6533 126.215 38.7559C126.051 38.8994 125.815 39.0635 125.508 39.248C125.077 39.4736 124.811 39.6377 124.708 39.7402C124.605 39.8428 124.523 39.9043 124.462 39.9248C123.97 40.4785 123.488 40.9399 123.016 41.3091C122.585 41.6372 122.124 42.0986 121.632 42.6934C121.468 42.8164 121.304 42.9395 121.14 43.0625C120.976 43.1855 120.832 43.3496 120.709 43.5547C120.34 43.8008 120.042 44.0469 119.817 44.293C119.591 44.5391 119.335 44.8262 119.048 45.1543C118.802 45.2773 118.535 45.4517 118.248 45.6772C117.899 45.9438 117.592 46.1387 117.325 46.2617C117.223 46.3232 117.048 46.4155 116.802 46.5386C116.597 46.6411 116.402 46.6924 116.218 46.6924C115.746 46.7744 115.295 46.7334 114.864 46.5693C114.475 46.4258 114.085 46.3027 113.695 46.2002C113.531 45.9541 113.326 45.749 113.08 45.585C112.711 45.1338 112.444 44.6006 112.28 43.9854C112.116 43.3701 111.952 42.7139 111.788 42.0166C111.419 42.2627 111.111 42.5293 110.865 42.8164C110.619 43.124 110.25 43.3906 109.758 43.6162C109.348 44.0059 108.927 44.3955 108.497 44.7852C108.066 45.1543 107.615 45.5132 107.143 45.8618C106.692 46.2104 106.23 46.5796 105.759 46.9692C105.287 47.3384 104.815 47.7178 104.344 48.1074C104.016 48.4355 103.79 48.5586 103.667 48.4766C103.298 48.9277 102.642 49.0713 101.698 48.9072C101.37 48.7432 101.001 48.5996 100.591 48.4766C100.304 48.3945 99.9756 48.2715 99.6064 48.1074C98.9092 47.9844 98.3247 47.6768 97.853 47.1846C97.3813 46.6924 96.9814 46.1182 96.6533 45.4619C96.5303 45.1133 96.438 44.8057 96.3765 44.5391C96.356 44.3955 96.3252 44.2417 96.2842 44.0776C96.2432 43.9136 96.2021 43.7393 96.1611 43.5547C96.1406 43.2061 96.0791 42.9292 95.9766 42.7241C95.8945 42.4985 95.8945 42.2832 95.9766 42.0781C95.8945 41.9756 95.874 41.8423 95.915 41.6782C95.9561 41.4731 95.9766 41.3193 95.9766 41.2168C95.9355 40.6426 95.9868 40.0273 96.1304 39.3711C96.2739 38.7148 96.4688 38.1201 96.7148 37.5869C96.8379 37.3818 97.002 37.1768 97.207 36.9717C97.3096 36.8486 97.3711 36.7256 97.3916 36.6025C97.4121 36.5 97.4736 36.3975 97.5762 36.2949C97.6787 36.1719 97.8018 36.0488 97.9453 35.9258C98.1504 35.7617 98.2939 35.6387 98.376 35.5566C98.4785 35.4131 98.5811 35.2798 98.6836 35.1567C98.8066 35.0132 98.9399 34.8901 99.0835 34.7876C99.2271 34.6851 99.3604 34.5723 99.4834 34.4492C99.6064 34.3262 99.7295 34.2031 99.8525 34.0801C99.9961 33.9365 100.109 33.793 100.191 33.6494C100.293 33.4854 100.447 33.3623 100.652 33.2803C100.816 32.9932 101.001 32.7573 101.206 32.5728C101.411 32.3882 101.637 32.1934 101.883 31.9883C102.58 31.1475 103.441 30.4297 104.467 29.835C105.513 29.2402 106.436 28.584 107.235 27.8662C107.522 27.7432 107.769 27.5996 107.974 27.4355C108.179 27.2715 108.384 27.1074 108.589 26.9434C109.102 26.4922 109.655 26.3486 110.25 26.5127L111.85 26.9434C112.26 27.3125 112.66 27.6816 113.049 28.0508C113.439 28.4199 113.777 28.8301 114.064 29.2812C114.208 29.2607 114.362 29.2505 114.526 29.2505C114.69 29.23 114.864 29.23 115.049 29.2505C115.418 29.2915 115.808 29.2607 116.218 29.1582C116.341 29.1582 116.464 29.1274 116.587 29.0659C116.71 29.0044 116.812 28.9736 116.895 28.9736C117.51 29.1787 117.817 29.4863 117.817 29.8965ZM109.696 30.8193C108.589 31.3525 107.584 31.978 106.682 32.6958C105.779 33.4136 104.918 34.1826 104.098 35.0029C103.995 35.1055 103.882 35.208 103.759 35.3105C103.657 35.3926 103.554 35.4849 103.452 35.5874C103.349 35.6694 103.247 35.7617 103.144 35.8643C103.042 35.9668 102.949 36.0693 102.867 36.1719C102.703 36.377 102.549 36.623 102.406 36.9102C102.262 37.1973 102.129 37.4639 102.006 37.71C101.965 37.792 101.924 37.874 101.883 37.9561C101.842 38.0176 101.801 38.0688 101.76 38.1099C101.719 38.1509 101.678 38.2021 101.637 38.2637C101.596 38.3252 101.555 38.3867 101.514 38.4482C101.432 38.6533 101.401 38.8584 101.421 39.0635C101.442 39.207 101.452 39.4326 101.452 39.7402V40.3555C101.452 40.4785 101.473 40.6836 101.514 40.9707C101.637 41.4219 101.698 41.873 101.698 42.3242C101.698 42.6523 101.729 43.0522 101.791 43.5239C101.852 43.9956 102.006 44.3135 102.252 44.4775C102.519 44.6416 102.775 44.6826 103.021 44.6006C103.308 44.498 103.544 44.4365 103.729 44.416C105.164 43.3086 106.518 42.1499 107.789 40.9399C109.061 39.73 110.188 38.3662 111.173 36.8486C111.091 35.8438 111.081 34.8081 111.142 33.7417C111.204 32.7368 111.111 31.8037 110.865 30.9424C110.701 30.8398 110.506 30.8091 110.281 30.8501C110.117 30.8706 109.922 30.8604 109.696 30.8193ZM129.445 39.4326C129.773 39.2275 130.04 38.9609 130.245 38.6328C130.348 38.4688 130.46 38.3047 130.583 38.1406C130.707 37.9766 130.84 37.8125 130.983 37.6484C131.517 37.0332 132.091 36.5205 132.706 36.1104C132.993 35.6797 133.352 35.3618 133.783 35.1567C134.213 34.9312 134.552 34.5928 134.798 34.1416C134.859 34.0596 134.931 33.9365 135.013 33.7725C135.095 33.6084 135.167 33.4854 135.229 33.4033C136.008 32.3164 136.849 31.4141 137.751 30.6963C137.874 30.5938 137.997 30.4912 138.12 30.3887C138.243 30.2861 138.356 30.1836 138.458 30.0811C138.623 29.917 138.899 29.7119 139.289 29.4658C139.474 29.3633 139.658 29.2505 139.843 29.1274C140.027 28.9839 140.202 28.8301 140.366 28.666C140.694 28.3379 141.073 28.0918 141.504 27.9277C141.771 27.8047 142.037 27.7124 142.304 27.6509C142.427 27.6099 142.55 27.5791 142.673 27.5586C142.816 27.5176 142.96 27.4766 143.104 27.4355C143.391 27.3535 143.647 27.2817 143.873 27.2202C144.098 27.1587 144.354 27.1689 144.642 27.251C145.298 27.5176 145.79 28.0713 146.118 28.9121C146.241 29.2197 146.169 29.8657 145.903 30.8501C145.657 31.8345 145.359 32.8599 145.011 33.9263C144.662 34.9722 144.416 35.7822 144.272 36.3564C144.19 36.6641 144.17 36.8384 144.211 36.8794C144.252 36.9204 144.272 36.9717 144.272 37.0332C144.19 37.2383 144.129 37.4229 144.088 37.5869C144.047 37.751 144.006 37.9355 143.965 38.1406C143.883 38.4688 143.821 38.9097 143.78 39.4634C143.739 40.0171 143.76 40.458 143.842 40.7861C144.252 40.7656 144.488 40.7246 144.549 40.6631C144.59 40.6221 144.642 40.6016 144.703 40.6016C144.867 40.5605 145 40.5503 145.103 40.5708C145.206 40.5913 145.339 40.5811 145.503 40.54C146.344 40.3145 147.103 39.8633 147.779 39.1865C148.148 39.0225 148.497 38.8584 148.825 38.6943C149.174 38.5303 149.502 38.3662 149.81 38.2021C150.384 37.792 150.845 37.4946 151.194 37.3101C151.542 37.1255 152.065 36.8691 152.763 36.541C153.029 36.2334 153.388 35.9771 153.839 35.772C154.25 35.5874 154.649 35.3311 155.039 35.0029C155.162 34.8799 155.265 34.7671 155.347 34.6646C155.47 34.5005 155.593 34.4697 155.716 34.5723C155.921 34.7773 156.054 34.9927 156.116 35.2183C156.177 35.4438 156.188 35.5977 156.146 35.6797C155.839 35.9873 155.665 36.2334 155.624 36.418C155.583 36.6025 155.531 36.7256 155.47 36.7871C155.265 36.9922 154.957 37.1768 154.547 37.3408C154.198 37.4844 153.983 37.6177 153.901 37.7407C153.819 37.8638 153.747 37.9561 153.686 38.0176C153.562 38.1406 153.45 38.2329 153.347 38.2944C153.245 38.356 153.132 38.4482 153.009 38.5713C152.927 38.6943 152.814 38.7661 152.67 38.7866L152.271 38.8789C152.024 39.084 151.819 39.2686 151.655 39.4326C151.491 39.5967 151.307 39.7812 151.102 39.9863C150.794 40.2939 150.589 40.5298 150.486 40.6938C150.404 40.8374 150.179 41.0322 149.81 41.2783L148.579 42.0166C148.005 42.3037 147.431 42.6523 146.856 43.0625C146.282 43.4727 145.708 43.8828 145.134 44.293C144.765 44.5186 144.344 44.7339 143.873 44.939C143.442 45.1235 143.042 45.3389 142.673 45.585C142.488 45.585 142.375 45.5747 142.334 45.5542C142.273 45.5132 142.16 45.5439 141.996 45.6465C141.791 45.5439 141.586 45.5337 141.381 45.6157C141.155 45.7183 140.95 45.7285 140.766 45.6465C140.561 45.4824 140.386 45.3491 140.243 45.2466C140.12 45.144 140.017 45.0723 139.935 45.0312C139.812 44.9492 139.699 44.8467 139.597 44.7236C139.515 44.5186 139.484 44.293 139.504 44.0469C139.525 43.8008 139.474 43.5957 139.351 43.4316C139.351 42.5293 139.381 41.668 139.443 40.8477C139.504 40.0273 139.638 39.166 139.843 38.2637C139.884 37.9766 139.986 37.4844 140.15 36.7871C140.314 36.0693 140.448 35.3823 140.55 34.7261C140.653 34.0698 140.622 33.6904 140.458 33.5879C140.007 33.834 139.545 34.2031 139.074 34.6953C138.848 34.9414 138.623 35.167 138.397 35.3721C138.171 35.5771 137.956 35.7617 137.751 35.9258L136.797 36.6025C136.654 36.7051 136.5 36.8179 136.336 36.9409C136.172 37.0435 136.008 37.1562 135.844 37.2793C135.557 37.4844 135.311 37.6895 135.105 37.8945C134.9 38.0996 134.675 38.3457 134.429 38.6328C134.285 38.7764 134.142 38.9199 133.998 39.0635C133.875 39.1865 133.752 39.3198 133.629 39.4634C133.383 39.73 133.096 39.9863 132.768 40.2324C132.562 40.4375 132.409 40.5708 132.306 40.6323C132.204 40.6938 132.07 40.8066 131.906 40.9707L131.322 41.5552C131.137 41.7397 130.901 41.8936 130.614 42.0166C129.958 42.8984 129.22 43.7495 128.399 44.5698C127.6 45.3901 126.964 46.2207 126.492 47.0615C126 47.4717 125.477 47.8306 124.923 48.1382C124.37 48.4458 123.703 48.4766 122.924 48.2305C122.514 47.9844 122.247 47.7793 122.124 47.6152C122.001 47.4717 121.857 47.3486 121.693 47.2461C121.734 46.7949 121.775 46.3643 121.816 45.9541C121.857 45.5439 121.98 45.1133 122.186 44.6621L122.555 44.0469C122.76 43.6982 122.893 43.2881 122.955 42.8164C123.016 42.3242 123.149 41.8936 123.354 41.5244C123.601 41.1143 123.754 40.7759 123.816 40.5093C123.877 40.2632 123.97 40.0273 124.093 39.8018C124.195 39.5557 124.308 39.3608 124.431 39.2173C124.554 39.0737 124.667 38.8789 124.77 38.6328C124.872 38.4072 125.016 38.1714 125.2 37.9253C125.385 37.6792 125.528 37.4434 125.631 37.2178C125.877 36.3359 126.205 35.4336 126.615 34.5107C126.697 34.2236 126.779 33.9468 126.861 33.6802C126.943 33.4136 127.046 33.1572 127.169 32.9111C127.271 32.6855 127.374 32.46 127.477 32.2344C127.579 32.0088 127.682 31.7935 127.784 31.5884C127.887 31.3628 127.989 31.1475 128.092 30.9424C128.194 30.7168 128.297 30.4912 128.399 30.2656C128.522 30.0195 128.635 29.8042 128.738 29.6196C128.84 29.4351 128.974 29.2402 129.138 29.0352C129.199 28.9326 129.261 28.8301 129.322 28.7275C129.384 28.625 129.435 28.5225 129.476 28.4199C129.517 28.3174 129.568 28.2148 129.63 28.1123C129.691 28.0098 129.753 27.9072 129.814 27.8047C129.876 27.7021 129.938 27.5996 129.999 27.4971C130.061 27.374 130.112 27.2407 130.153 27.0972C130.235 26.8306 130.389 26.5742 130.614 26.3281C130.758 26.1641 130.881 26.0103 130.983 25.8667C131.106 25.7026 131.209 25.5488 131.291 25.4053C131.435 25.1387 131.701 24.9541 132.091 24.8516C132.439 25.0156 132.798 24.9541 133.167 24.667C133.557 24.3594 133.875 24.3799 134.121 24.7285C134.695 25.0977 135.085 25.3848 135.29 25.5898C135.536 25.8154 135.7 26.041 135.782 26.2666C135.987 26.6357 136.008 27.0151 135.844 27.4048C135.68 27.7944 135.393 28.1328 134.982 28.4199C134.839 29.0557 134.552 29.7119 134.121 30.3887C133.916 30.6963 133.721 31.0039 133.537 31.3115C133.352 31.5986 133.178 31.8857 133.014 32.1729L132.521 33.4033C132.275 33.9775 132.019 34.5518 131.752 35.126C131.486 35.7002 131.188 36.2539 130.86 36.7871C130.594 37.3408 130.389 37.6997 130.245 37.8638C130.122 38.0278 130.009 38.1919 129.907 38.356C129.825 38.4995 129.671 38.8584 129.445 39.4326ZM172.573 41.709C172.86 41.709 173.065 41.7295 173.188 41.7705C173.312 41.8115 173.414 41.832 173.496 41.832C173.906 41.832 174.429 41.5449 175.065 40.9707C175.721 40.376 176.244 39.9248 176.634 39.6172C177.475 39.4326 178.151 38.8994 178.664 38.0176C179.197 37.1152 179.792 36.3359 180.448 35.6797C181.289 34.8389 181.966 34.0903 182.479 33.4341C183.012 32.7573 183.463 32.4189 183.832 32.4189C184.16 32.4189 184.396 32.5728 184.54 32.8804C184.724 33.2495 184.857 33.5059 184.939 33.6494C184.857 33.7314 184.816 33.8545 184.816 34.0186C184.816 34.2031 184.775 34.3467 184.693 34.4492C184.611 34.5723 184.488 34.6953 184.324 34.8184C184.16 34.9414 184.017 35.085 183.894 35.249L183.278 35.9873C182.745 36.5205 182.243 37.1973 181.771 38.0176C181.299 38.8379 180.828 39.6172 180.356 40.3555C179.905 41.0732 179.423 41.5859 178.91 41.8936C177.823 42.5908 176.952 43.3291 176.295 44.1084C175.66 44.8672 174.952 45.4824 174.173 45.9541C174.091 45.9541 174.04 45.9438 174.019 45.9233C173.999 45.9028 173.968 45.8926 173.927 45.8926C173.742 45.8926 173.609 45.9336 173.527 46.0156C173.445 46.0977 173.332 46.1387 173.188 46.1387C172.43 45.8516 171.825 45.5337 171.374 45.1851C170.922 44.8159 170.338 44.0264 169.62 42.8164C169.436 42.5088 169.271 42.1704 169.128 41.8013C168.984 41.3911 168.82 41.0322 168.636 40.7246L167.805 39.2173C167.58 38.8071 167.467 38.1201 167.467 37.1562C167.467 36.7461 167.508 36.1309 167.59 35.3105C167.672 34.4902 167.754 33.834 167.836 33.3418C167.2 33.9775 166.616 34.7671 166.083 35.7104C165.816 36.1616 165.56 36.6025 165.313 37.0332C165.067 37.4639 164.821 37.874 164.575 38.2637C163.919 39.2686 163.211 40.2632 162.453 41.2476C161.714 42.1909 161.335 42.9189 161.314 43.4316C161.068 43.6777 160.802 44.0366 160.515 44.5083C160.228 44.98 160.002 45.3901 159.838 45.7388C159.694 46.0669 159.694 46.1592 159.838 46.0156C159.264 46.959 158.433 47.6255 157.346 48.0151C156.259 48.4048 155.244 48.5996 154.301 48.5996C154.116 48.5791 153.932 48.5586 153.747 48.5381C153.562 48.5176 153.378 48.4971 153.193 48.4766C152.845 48.4561 152.496 48.3125 152.147 48.0459L151.225 47.3691C150.568 47.041 150.117 46.5283 149.871 45.8311C149.625 45.1338 149.502 44.375 149.502 43.5547C150.015 42.2627 150.312 41.104 150.394 40.0786C150.476 39.0737 150.712 38.0791 151.102 37.0947C151.676 35.5771 152.486 34.2236 153.532 33.0342C154.578 31.8447 155.675 30.7578 156.823 29.7734C157.746 28.9941 158.802 28.1431 159.992 27.2202C161.202 26.2769 162.073 25.4873 162.606 24.8516C163.263 24.749 163.816 24.5542 164.268 24.2671C164.739 23.9595 165.211 23.6724 165.683 23.4058C166.154 23.1392 166.708 23.0059 167.344 23.0059C168.287 23.0059 168.841 23.1699 169.005 23.498C169.169 23.8262 169.415 24.2773 169.743 24.8516C170.01 24.1748 170.215 23.4878 170.358 22.7905C170.44 22.4419 170.533 22.1035 170.635 21.7754C170.758 21.4473 170.892 21.1396 171.035 20.8525C171.281 19.5811 171.702 18.2275 172.296 16.792C172.891 15.3564 173.486 14.0337 174.081 12.8237C174.573 11.8394 175.055 10.9062 175.526 10.0244C176.019 9.12207 176.347 8.54785 176.511 8.30176C177.146 7.31738 177.833 6.48682 178.572 5.81006C179.29 5.1333 179.915 4.40527 180.448 3.62598C180.858 3.13379 181.258 2.56982 181.648 1.93408C182.058 1.23682 182.376 0.816406 182.602 0.672852C183.75 0.980469 184.355 1.43164 184.417 2.02637C184.478 2.62109 184.509 3.29785 184.509 4.05664C184.509 4.71289 184.447 5.36914 184.324 6.02539L182.232 10.3936C181.658 11.46 181.115 12.5469 180.602 13.6543C180.089 14.7617 179.607 15.8896 179.156 17.0381C178.397 18.5146 177.567 19.8066 176.665 20.9141C176.213 21.4678 175.783 22.042 175.373 22.6367C174.983 23.2314 174.604 23.8467 174.234 24.4824C174.091 24.9131 173.875 25.3335 173.588 25.7437C173.445 25.9487 173.312 26.1538 173.188 26.3589C173.065 26.5435 172.942 26.7383 172.819 26.9434L171.712 29.5889C171.466 29.917 171.343 30.2246 171.343 30.5117C171.425 30.6963 171.466 30.8604 171.466 31.0039V31.3115C171.466 31.4961 171.466 31.6807 171.466 31.8652C171.466 32.0498 171.456 32.2344 171.435 32.4189C171.415 32.6035 171.404 32.7983 171.404 33.0034C171.404 33.188 171.404 33.3828 171.404 33.5879C171.404 35.6797 171.486 37.7305 171.65 39.7402C171.568 39.8838 171.527 39.9863 171.527 40.0479C171.527 40.335 171.681 40.6323 171.989 40.9399C172.296 41.2271 172.491 41.4834 172.573 41.709ZM166.667 26.7588L165.129 27.7432C164.821 27.8457 164.411 28.1431 163.898 28.6353L162.606 29.835L161.314 31.0039C161.027 31.5371 160.638 31.9883 160.146 32.3574C159.653 32.7266 159.243 33.1367 158.915 33.5879C158.464 34.1621 158.023 34.8389 157.592 35.6182C157.162 36.3975 156.967 37.0537 157.008 37.5869C156.905 37.9561 156.792 38.3047 156.669 38.6328C156.567 38.9404 156.454 39.2275 156.331 39.4941C156.085 40.0068 155.962 40.6016 155.962 41.2783C155.962 41.8115 156.136 42.0884 156.485 42.1089C156.833 42.1294 157.09 42.1396 157.254 42.1396C157.869 41.7295 158.515 41.1348 159.192 40.3555C159.889 39.5557 160.515 38.7354 161.068 37.8945C161.643 37.0537 162.032 36.3564 162.237 35.8027C162.688 35.0234 163.201 34.1929 163.775 33.311C164.35 32.4292 164.985 31.6396 165.683 30.9424L167.282 28.3584C167.323 28.2559 167.364 28.1636 167.405 28.0815C167.446 27.979 167.487 27.8867 167.528 27.8047C167.61 27.6611 167.651 27.4766 167.651 27.251C167.651 26.9844 167.569 26.7383 167.405 26.5127C167.241 26.5127 167.098 26.5435 166.975 26.605C166.852 26.6665 166.749 26.7178 166.667 26.7588ZM196.813 42.1396C196.978 41.9141 197.101 41.7603 197.183 41.6782C197.285 41.5757 197.408 41.4834 197.552 41.4014C198.064 40.3145 198.731 39.4531 199.551 38.8174C200.392 38.1816 201.284 37.4639 202.228 36.6641C202.433 36.6641 202.607 36.5923 202.75 36.4487C202.894 36.3052 203.068 36.1924 203.273 36.1104C203.52 35.8848 203.755 35.7002 203.981 35.5566C204.166 35.4336 204.319 35.2695 204.442 35.0645C204.914 34.8389 205.355 34.5312 205.765 34.1416C206.196 33.752 206.616 33.4033 207.026 33.0957C207.354 33.0137 207.703 33.0547 208.072 33.2188C208.236 33.5469 208.298 33.8955 208.257 34.2646C208.216 34.6338 208.011 34.8389 207.642 34.8799C207.519 35.0029 207.385 35.126 207.242 35.249C207.098 35.3721 206.924 35.4541 206.719 35.4951C206.309 35.5771 206.042 35.7412 205.919 35.9873C205.898 36.377 205.847 36.6128 205.765 36.6948C205.683 36.7769 205.632 36.8486 205.611 36.9102C205.16 37.6689 204.658 38.3252 204.104 38.8789C203.55 39.4121 203.027 40.0684 202.535 40.8477C202.31 40.9912 202.125 41.2168 201.981 41.5244C201.243 41.9346 200.7 42.2524 200.351 42.478C200.002 42.7036 199.685 42.9805 199.397 43.3086C199.151 43.4521 199.028 43.5752 199.028 43.6777C199.028 43.7598 198.987 43.8418 198.905 43.9238C198.495 44.2725 198.259 44.5288 198.198 44.6929C198.136 44.8569 198.044 44.9902 197.921 45.0928C197.716 45.2363 197.531 45.3799 197.367 45.5234C197.224 45.6465 197.101 45.7593 196.998 45.8618C196.752 46.1079 196.485 46.2822 196.198 46.3848C195.85 46.6719 195.337 47.0103 194.66 47.3999C193.983 47.8101 193.286 48.1177 192.568 48.3228C191.851 48.5483 191.256 48.5586 190.784 48.3535L190.354 48.0151C190.271 47.9536 190.128 47.8613 189.923 47.7383C189.656 47.4102 189.359 47.1333 189.031 46.9077C188.744 46.7026 188.467 46.4053 188.2 46.0156C187.893 45.585 187.698 45.144 187.616 44.6929C187.534 44.2212 187.38 43.7598 187.154 43.3086C187.052 42.2422 187.134 41.3604 187.4 40.6631C187.626 39.9658 187.872 39.3198 188.139 38.7251C188.405 38.1099 188.703 37.5459 189.031 37.0332C189.667 36.0488 190.107 34.8799 190.354 33.5264C189.902 33.0752 189.646 32.6548 189.584 32.2651C189.564 32.0601 189.523 31.8242 189.461 31.5576C189.4 31.291 189.328 30.9834 189.246 30.6348C188.18 31.332 187.195 32.2139 186.293 33.2803C185.391 34.3467 184.591 35.4336 183.894 36.541L183.155 37.8945C182.95 38.2842 182.704 38.6533 182.417 39.002C182.212 39.207 182.109 39.3403 182.109 39.4019C182.109 39.4634 182.068 39.5352 181.986 39.6172C181.822 39.8223 181.689 39.9966 181.586 40.1401C181.484 40.2837 181.412 40.3965 181.371 40.4785C181.33 40.5605 181.289 40.6426 181.248 40.7246C181.207 40.7861 181.166 40.8477 181.125 40.9092C181.002 41.0732 180.899 41.1963 180.817 41.2783C180.735 41.3604 180.633 41.4834 180.51 41.6475C179.936 42.4678 179.413 43.2368 178.941 43.9546L177.495 46.1387C177.27 46.4873 177.085 46.8359 176.941 47.1846C176.798 47.5537 176.593 47.8818 176.326 48.1689C175.916 48.21 175.68 48.1484 175.619 47.9844C175.557 47.8203 175.567 47.6768 175.649 47.5537C175.157 47.2256 174.88 46.5898 174.819 45.6465C174.757 44.7031 174.85 43.9443 175.096 43.3701C174.973 43.001 174.932 42.7959 174.973 42.7549C175.014 42.7139 175.034 42.6523 175.034 42.5703C175.567 41.832 176.111 41.0938 176.665 40.3555C177.218 39.6172 177.803 38.9199 178.418 38.2637C178.521 38.1201 178.623 37.9766 178.726 37.833C178.828 37.6895 178.92 37.5459 179.002 37.4023C179.208 37.0947 179.423 36.8281 179.648 36.6025C179.997 36.0078 180.417 35.3926 180.91 34.7568C181.402 34.1416 181.802 33.5059 182.109 32.8496C182.335 32.624 182.489 32.3984 182.571 32.1729C182.673 31.9268 182.848 31.7217 183.094 31.5576C183.237 31.3115 183.36 31.0757 183.463 30.8501C183.586 30.604 183.688 30.3682 183.771 30.1426C183.894 29.7529 184.119 29.3633 184.447 28.9736C184.529 28.6865 184.632 28.4609 184.755 28.2969C184.878 28.1328 185.042 27.9482 185.247 27.7432C185.268 27.5586 185.38 27.3843 185.585 27.2202C185.791 27.0562 185.944 26.8818 186.047 26.6973C186.149 26.4102 186.252 26.2256 186.354 26.1436C186.478 26.041 186.539 25.8975 186.539 25.7129C186.744 25.5078 186.949 25.2925 187.154 25.0669C187.359 24.8413 187.544 24.5645 187.708 24.2363C188.282 23.9082 188.682 23.7441 188.908 23.7441C189.133 23.7441 189.308 23.6416 189.431 23.4365C189.595 23.4365 189.769 23.4365 189.954 23.4365C190.159 23.4365 190.374 23.4263 190.6 23.4058C191.071 23.3647 191.317 23.5186 191.338 23.8672C191.358 23.9492 191.358 24.0518 191.338 24.1748C191.317 24.2363 191.297 24.2979 191.276 24.3594C191.256 24.4209 191.235 24.4824 191.215 24.5439C191.235 24.9131 191.235 25.1079 191.215 25.1284C191.174 25.1694 191.153 25.2002 191.153 25.2207C191.112 25.3848 191.102 25.5283 191.123 25.6514C191.143 25.7539 191.153 25.9385 191.153 26.2051C191.133 26.3691 191.112 26.5127 191.092 26.6357C191.071 26.7588 191.051 26.8716 191.03 26.9741C190.989 27.1792 191.071 27.415 191.276 27.6816C191.379 27.8252 191.502 27.938 191.646 28.02C191.789 28.1021 191.933 28.2354 192.076 28.4199C192.179 28.5225 192.25 28.6455 192.292 28.7891C192.333 28.9326 192.404 29.0557 192.507 29.1582C192.589 29.2607 192.712 29.3633 192.876 29.4658C193.04 29.5684 193.163 29.7119 193.245 29.8965C193.471 30.0605 193.542 30.1631 193.46 30.2041C193.399 30.2451 193.491 30.3271 193.737 30.4502C194.209 31.0449 194.558 31.6807 194.783 32.3574C195.05 32.8701 195.275 33.2803 195.46 33.5879C195.665 33.916 195.665 34.2441 195.46 34.5723C195.337 34.6953 195.193 34.9414 195.029 35.3105C194.845 35.4951 194.681 35.7002 194.537 35.9258C194.455 36.0693 194.394 36.2231 194.353 36.3872C194.332 36.5308 194.271 36.6641 194.168 36.7871C193.799 37.3818 193.419 37.915 193.03 38.3867C192.64 38.8584 192.302 39.3711 192.015 39.9248C192.035 41.0938 192.261 41.9551 192.691 42.5088C193.184 43.083 193.491 43.3701 193.614 43.3701C193.881 43.4111 194.168 43.3291 194.476 43.124L195.275 42.6318C195.357 42.5908 195.429 42.5498 195.491 42.5088C195.573 42.4678 195.645 42.4268 195.706 42.3857C195.829 42.3037 195.973 42.2422 196.137 42.2012C196.567 42.0576 196.772 42.0063 196.752 42.0474C196.731 42.1089 196.752 42.1396 196.813 42.1396ZM233.481 29.2197C233.687 29.2402 233.82 29.3223 233.881 29.4658C233.943 29.5889 234.056 29.6504 234.22 29.6504C234.302 30.04 234.22 30.3169 233.974 30.481C233.728 30.6245 233.646 30.8604 233.728 31.1885C233.358 31.4346 232.907 31.5884 232.374 31.6499C231.82 31.7114 231.41 31.9268 231.144 32.2959C230.426 32.6445 229.677 32.8599 228.898 32.9419C228.508 32.9829 228.098 33.0444 227.667 33.1265C227.257 33.188 226.837 33.2598 226.406 33.3418C225.955 33.6494 225.678 33.8135 225.576 33.834C225.432 33.8545 225.278 33.916 225.114 34.0186C224.684 33.8545 224.253 33.7725 223.822 33.7725C223.392 33.7725 222.94 33.7109 222.469 33.5879C222.243 33.6699 222.007 33.7109 221.761 33.7109C221.515 33.7109 221.279 33.752 221.054 33.834C220.89 34.2031 220.808 34.5723 220.808 34.9414C220.808 35.3311 220.746 35.7002 220.623 36.0488L220.254 36.7871L220.162 37.3716C220.121 37.6177 220.069 37.8125 220.008 37.9561C219.926 38.0791 219.833 38.2227 219.731 38.3867C219.628 38.5508 219.577 38.7354 219.577 38.9404C219.29 39.3096 219.085 39.689 218.962 40.0786C218.839 40.5298 218.613 40.8887 218.285 41.1553C218.162 41.5859 217.967 41.9141 217.701 42.1396C217.434 42.3857 217.178 42.6729 216.932 43.001C216.48 43.6162 216.081 44.1494 215.732 44.6006C215.383 45.0518 214.922 45.4414 214.348 45.7695C214.143 46.0977 213.896 46.3232 213.609 46.4463C213.404 46.6514 213.24 46.8564 213.117 47.0615L211.887 47.7998C211.395 48.1074 210.923 48.3125 210.472 48.415C209.774 48.5791 209.098 48.5586 208.441 48.3535C207.785 48.1484 207.17 47.8613 206.596 47.4922C206.206 47.5332 205.909 47.4614 205.704 47.2769C205.499 47.1128 205.222 46.9795 204.873 46.877C204.422 46.4668 203.93 46.0977 203.396 45.7695C202.843 45.4209 202.453 44.9697 202.228 44.416L201.951 43.0625C201.869 42.6523 201.776 42.2422 201.674 41.832C201.592 41.4834 201.582 41.0938 201.643 40.6631C201.705 40.2939 201.715 39.8838 201.674 39.4326C201.674 39.207 201.674 39.002 201.674 38.8174C201.674 38.6123 201.664 38.438 201.643 38.2944C201.623 37.9868 201.715 37.6074 201.92 37.1562C202.043 36.8896 202.146 36.6436 202.228 36.418C202.31 36.1924 202.371 35.9976 202.412 35.8335C202.453 35.6694 202.494 35.5156 202.535 35.3721C202.576 35.208 202.617 35.0645 202.658 34.9414C202.72 34.8389 202.781 34.7363 202.843 34.6338C202.904 34.5107 202.966 34.3877 203.027 34.2646C203.089 34.1416 203.15 34.0288 203.212 33.9263C203.294 33.8032 203.376 33.6904 203.458 33.5879C203.704 33.2188 203.991 32.8496 204.319 32.4805C204.647 32.1113 204.976 31.7627 205.304 31.4346C205.529 31.127 205.755 30.8604 205.98 30.6348C206.35 30.2656 206.698 29.958 207.026 29.7119C207.354 29.4658 207.724 29.1377 208.134 28.7275C208.216 28.6045 208.318 28.502 208.441 28.4199L208.811 28.1738C209.221 27.9277 209.6 27.7227 209.949 27.5586C210.297 27.3945 210.697 27.21 211.148 27.0049C211.538 26.8203 211.856 26.7075 212.102 26.6665C212.266 26.6255 212.43 26.5947 212.594 26.5742C212.779 26.5332 212.974 26.4922 213.179 26.4512H213.917C214.143 26.4512 214.348 26.4102 214.532 26.3281C214.409 26 214.553 25.7744 214.963 25.6514C215.373 25.5283 215.681 25.4873 215.886 25.5283C216.296 25.5283 216.624 25.6206 216.87 25.8052C217.116 25.9897 217.342 26.2051 217.547 26.4512C217.957 26.7383 218.408 27.1689 218.9 27.7432C219.003 27.8457 219.105 27.9072 219.208 27.9277C219.311 27.9482 219.413 28.0098 219.516 28.1123C219.68 28.3584 219.792 28.584 219.854 28.7891C219.916 29.0352 220.049 29.2607 220.254 29.4658C220.377 29.5479 220.5 29.6504 220.623 29.7734C220.746 29.8965 220.828 30.0605 220.869 30.2656C221.3 30.4297 221.689 30.5527 222.038 30.6348C222.223 30.7168 222.438 30.7373 222.684 30.6963C222.91 30.6553 223.166 30.6553 223.453 30.6963C223.638 30.7168 223.822 30.7681 224.007 30.8501C224.171 30.9116 224.355 30.9424 224.561 30.9424C224.868 30.9219 225.207 30.8398 225.576 30.6963C225.924 30.5732 226.324 30.5527 226.775 30.6348C227.391 30.7783 228.037 30.7168 228.713 30.4502C229.39 30.1631 230.077 29.9785 230.774 29.8965C230.979 29.8965 231.123 29.8862 231.205 29.8657C231.287 29.8452 231.431 29.835 231.636 29.835C231.841 29.6709 232.107 29.5479 232.436 29.4658C232.764 29.3838 233.112 29.3018 233.481 29.2197ZM215.886 31.0654C215.476 30.6963 215.24 30.4604 215.178 30.3579C215.096 30.2349 215.024 30.1631 214.963 30.1426C214.778 29.958 214.573 29.8555 214.348 29.835C214.225 29.8145 214.102 29.7939 213.979 29.7734C213.876 29.7529 213.773 29.7324 213.671 29.7119C213.015 29.5889 212.471 29.6606 212.041 29.9272C211.835 30.0708 211.62 30.2041 211.395 30.3271C211.189 30.4502 210.984 30.5732 210.779 30.6963C210.123 31.1064 209.549 31.6191 209.057 32.2344C208.934 32.4395 208.8 32.665 208.657 32.9111C208.513 33.1572 208.4 33.4238 208.318 33.7109C208.154 34.0391 208.011 34.3364 207.888 34.603C207.765 34.8696 207.662 35.1875 207.58 35.5566C207.375 35.9463 207.252 36.2847 207.211 36.5718C207.19 36.7153 207.17 36.8486 207.149 36.9717C207.129 37.0742 207.108 37.1768 207.088 37.2793C207.067 37.4844 207.037 37.6997 206.996 37.9253C206.955 38.1304 206.914 38.3457 206.873 38.5713C206.77 39.084 206.719 39.4736 206.719 39.7402C206.76 39.8633 206.821 40.0273 206.903 40.2324C206.985 40.4375 207.067 40.5811 207.149 40.6631C207.231 40.8682 207.324 41.0938 207.426 41.3398C207.529 41.5859 207.621 41.7705 207.703 41.8936C207.929 42.1807 208.195 42.3652 208.503 42.4473C208.667 42.4883 208.841 42.5396 209.026 42.6011C209.21 42.6421 209.405 42.6934 209.61 42.7549C210.062 43.001 210.369 43.1035 210.533 43.0625C210.738 43.0215 210.861 43.001 210.902 43.001C211.456 42.8984 211.928 42.6729 212.317 42.3242C212.666 41.9961 213.076 41.709 213.548 41.4629C213.712 41.2168 213.876 40.9604 214.04 40.6938C214.225 40.4272 214.419 40.1606 214.625 39.894C214.83 39.6069 215.014 39.3301 215.178 39.0635C215.363 38.7764 215.537 38.4893 215.701 38.2021C215.804 38.0791 215.906 37.8945 216.009 37.6484C216.05 37.5459 216.091 37.4536 216.132 37.3716C216.173 37.269 216.214 37.1768 216.255 37.0947C216.542 36.7461 216.675 36.5615 216.655 36.541C216.634 36.5205 216.645 36.459 216.686 36.3564C216.952 35.7412 217.075 35.2695 217.055 34.9414C217.034 34.6133 217.034 34.2852 217.055 33.957C216.952 33.7314 216.86 33.4956 216.778 33.2495C216.696 33.0034 216.614 32.7471 216.532 32.4805C216.368 31.9268 216.152 31.4551 215.886 31.0654ZM235.143 25.7129C235.471 25.6309 235.655 25.6206 235.696 25.6821C235.737 25.7437 235.819 25.7744 235.942 25.7744C236.106 26 236.127 26.3281 236.004 26.7588C235.86 27.415 235.573 28.0405 235.143 28.6353C234.712 29.23 234.384 29.8145 234.158 30.3887C234.015 30.6758 233.881 30.9321 233.758 31.1577C233.656 31.3628 233.563 31.5474 233.481 31.7114C233.399 31.855 233.317 32.0088 233.235 32.1729C233.174 32.3369 233.112 32.501 233.051 32.665C232.846 33.1162 232.641 33.6187 232.436 34.1724C232.23 34.7261 232.025 35.29 231.82 35.8643L231.451 36.6641C231.246 37.1152 231.082 37.5151 230.959 37.8638C230.836 38.2124 230.754 38.6533 230.713 39.1865V40.8477C230.754 41.1348 230.785 41.4321 230.805 41.7397C230.826 42.0474 230.846 42.3652 230.867 42.6934C230.908 43.3701 231.041 43.9238 231.267 44.3545C231.779 44.1084 232.333 43.688 232.928 43.0933C233.215 42.8062 233.481 42.5498 233.728 42.3242C233.994 42.0781 234.24 41.873 234.466 41.709C234.753 41.2988 235.071 40.9194 235.419 40.5708C235.789 40.2017 236.086 39.8018 236.312 39.3711C236.804 38.9609 237.132 38.4277 237.296 37.7715C237.501 37.5459 237.696 37.2896 237.88 37.0024C237.983 36.8589 238.075 36.7256 238.157 36.6025C238.26 36.459 238.362 36.3154 238.465 36.1719C238.772 35.7412 239.039 35.2285 239.265 34.6338C239.388 34.2852 239.439 33.957 239.418 33.6494C239.398 33.4854 239.388 33.3213 239.388 33.1572C239.388 32.9932 239.388 32.8291 239.388 32.665C239.408 32.3164 239.47 31.9678 239.572 31.6191C239.654 31.332 239.675 31.0039 239.634 30.6348C239.695 30.5322 239.767 30.3579 239.849 30.1118C239.931 29.8657 240.003 29.6709 240.064 29.5273C240.146 29.3223 240.3 29.0967 240.526 28.8506C240.751 28.6045 240.967 28.3789 241.172 28.1738C241.315 27.9893 241.449 27.8047 241.572 27.6201C241.715 27.4355 241.849 27.251 241.972 27.0664C242.197 26.7178 242.505 26.4307 242.895 26.2051L243.633 25.8975C243.94 25.7539 244.187 25.6719 244.371 25.6514C244.679 25.6104 245.089 25.5181 245.602 25.3745C246.135 25.2104 246.545 25.1797 246.832 25.2822C246.996 25.3027 247.15 25.395 247.293 25.5591C247.437 25.6821 247.611 25.6719 247.816 25.5283C248.145 25.877 248.309 26.1846 248.309 26.4512C248.309 26.6973 248.227 26.9639 248.062 27.251C247.796 27.6406 247.652 27.8765 247.632 27.9585C247.611 27.9995 247.591 28.0508 247.57 28.1123C247.55 28.1533 247.529 28.1943 247.509 28.2354C247.14 28.8506 246.771 29.5273 246.401 30.2656C246.032 31.0039 245.725 31.7012 245.479 32.3574C245.889 32.5625 246.432 32.6548 247.109 32.6343C247.786 32.6138 248.391 32.542 248.924 32.4189C249.006 32.3984 249.078 32.3779 249.139 32.3574C249.221 32.3369 249.303 32.3164 249.385 32.2959C249.467 32.2754 249.539 32.2549 249.601 32.2344C249.683 32.2139 249.765 32.1934 249.847 32.1729C250.113 32.0908 250.513 32.019 251.046 31.9575C251.477 31.896 251.877 31.7832 252.246 31.6191C252.718 31.373 253.005 31.25 253.107 31.25C253.251 31.25 253.395 31.209 253.538 31.127C253.928 31.0244 254.287 30.9219 254.615 30.8193C254.943 30.7168 255.24 30.6143 255.507 30.5117C255.65 30.4707 255.794 30.4297 255.938 30.3887C256.081 30.3271 256.225 30.2554 256.368 30.1733C256.655 30.0093 256.922 29.9785 257.168 30.0811C257.25 30.1631 257.281 30.3066 257.26 30.5117C257.24 30.6963 257.291 30.9014 257.414 31.127C257.086 31.3936 256.84 31.5166 256.676 31.4961C256.348 31.6602 256.009 31.814 255.661 31.9575C255.312 32.1011 254.943 32.2446 254.553 32.3882L252.369 33.1572C251.877 33.3828 251.549 33.4751 251.385 33.4341C251.241 33.3931 251.057 33.4238 250.831 33.5264C250.154 33.834 249.57 34.0596 249.078 34.2031C248.667 34.3262 248.309 34.4697 248.001 34.6338C247.837 34.7568 247.724 34.8491 247.663 34.9106C247.56 35.0132 247.427 35.085 247.263 35.126C246.565 35.249 245.971 35.3003 245.479 35.2798C244.966 35.2593 244.433 35.3926 243.879 35.6797C243.756 35.9258 243.592 36.2026 243.387 36.5103C243.182 36.8179 242.956 37.0742 242.71 37.2793C242.505 37.6895 242.29 38.0381 242.064 38.3252C241.838 38.6123 241.582 38.9199 241.295 39.248C240.926 39.5762 240.557 39.9248 240.188 40.2939C239.818 40.6631 239.47 41.0117 239.142 41.3398C238.567 42.2832 237.901 43.1548 237.142 43.9546C236.383 44.7544 235.594 45.5439 234.773 46.3232C234.568 46.3438 234.374 46.436 234.189 46.6001C234.045 46.7231 233.851 46.8359 233.604 46.9385C233.338 47.0205 233.123 47.082 232.958 47.123C232.815 47.1846 232.723 47.2256 232.682 47.2461C232.6 47.2666 232.477 47.3281 232.312 47.4307C232.025 47.5537 231.81 47.6665 231.667 47.769C231.543 47.8511 231.451 47.9229 231.39 47.9844C231.287 48.0664 231.164 48.1074 231.021 48.1074C230.918 48.1074 230.815 48.1895 230.713 48.3535C230.2 48.251 229.893 48.3125 229.79 48.5381C229.626 48.5381 229.462 48.5586 229.298 48.5996C229.175 48.6406 229.031 48.6406 228.867 48.5996C228.744 48.4971 228.652 48.4048 228.59 48.3228C228.508 48.1997 228.437 48.1074 228.375 48.0459C227.76 47.7998 227.391 47.5332 227.268 47.2461C227.124 46.9385 226.939 46.7129 226.714 46.5693C226.529 46.1387 226.417 45.6465 226.375 45.0928C226.355 44.8467 226.334 44.6006 226.314 44.3545C226.293 44.0879 226.263 43.8213 226.222 43.5547C226.201 43.4727 226.181 43.4009 226.16 43.3394C226.14 43.2573 226.119 43.1753 226.099 43.0933C226.078 43.0112 226.058 42.9395 226.037 42.8779C226.017 42.7959 225.996 42.7139 225.976 42.6318C225.894 42.3037 225.863 41.9756 225.883 41.6475C225.904 41.3398 225.853 41.0117 225.729 40.6631C225.935 40.0068 225.955 39.3711 225.791 38.7559C225.873 38.4688 225.976 38.0894 226.099 37.6177C226.222 37.146 226.304 36.7461 226.345 36.418C226.447 35.5566 226.601 34.8389 226.806 34.2646C227.032 33.6904 227.37 32.9727 227.821 32.1113C227.985 31.7422 228.17 31.373 228.375 31.0039C228.478 30.8193 228.58 30.6348 228.683 30.4502C228.785 30.2451 228.888 30.04 228.99 29.835C229.093 29.6299 229.175 29.4658 229.236 29.3428C229.318 29.1992 229.37 29.0967 229.39 29.0352C229.472 28.8916 229.605 28.666 229.79 28.3584L230.098 27.8047C230.221 27.5996 230.364 27.415 230.528 27.251C230.856 26.9229 231.164 26.6665 231.451 26.4819C231.738 26.2974 232.087 26.1025 232.497 25.8975C232.887 25.9795 233.389 25.9077 234.004 25.6821C234.62 25.4565 234.999 25.4668 235.143 25.7129ZM269.842 29.8965L269.78 30.3887C269.821 30.5322 269.78 30.7783 269.657 31.127C269.452 31.373 269.329 31.6396 269.288 31.9268C269.206 32.0908 269.134 32.2344 269.073 32.3574C269.011 32.4805 268.96 32.6445 268.919 32.8496C268.837 33.0957 268.806 33.3828 268.827 33.7109C268.847 33.875 268.847 34.0391 268.827 34.2031C268.827 34.3467 268.816 34.4902 268.796 34.6338C268.714 35.085 268.652 35.5259 268.611 35.9565C268.57 36.3872 268.529 36.8281 268.488 37.2793C268.488 37.7305 268.447 38.2432 268.365 38.8174C268.283 39.3916 268.201 39.9043 268.119 40.3555C268.304 40.6836 268.406 40.9912 268.427 41.2783C268.447 41.5859 268.591 41.8525 268.857 42.0781C269.678 41.9551 270.334 41.7603 270.826 41.4937C271.318 41.2271 271.79 40.8477 272.241 40.3555C272.569 40.2119 272.826 40.0684 273.01 39.9248C273.174 39.7812 273.41 39.6172 273.718 39.4326L274.21 38.9404C274.702 38.6738 274.979 38.5098 275.041 38.4482C275.082 38.4072 275.133 38.3662 275.194 38.3252C275.276 38.2842 275.358 38.2432 275.44 38.2021C276.138 37.751 276.671 37.2793 277.04 36.7871C277.348 36.541 277.604 36.2847 277.809 36.0181C277.973 35.7925 278.291 35.5771 278.763 35.3721C279.029 35.0439 279.327 34.7671 279.655 34.5415C279.983 34.3159 280.28 34.0391 280.547 33.7109C280.772 33.7109 280.937 33.752 281.039 33.834C281.101 33.875 281.162 33.916 281.224 33.957C281.306 33.998 281.388 34.0391 281.47 34.0801C281.593 34.4082 281.613 34.7466 281.531 35.0952C281.449 35.4438 281.306 35.7617 281.101 36.0488C280.896 36.3154 280.793 36.4795 280.793 36.541C280.793 36.582 280.772 36.623 280.731 36.6641C280.608 36.8076 280.455 36.9614 280.27 37.1255C280.085 37.269 279.932 37.4229 279.809 37.5869C279.604 37.9561 279.439 38.1406 279.316 38.1406C279.193 38.1406 279.091 38.1816 279.009 38.2637C278.64 38.4893 278.383 38.6533 278.24 38.7559C278.076 38.8994 277.84 39.0635 277.532 39.248C277.102 39.4736 276.835 39.6377 276.732 39.7402C276.63 39.8428 276.548 39.9043 276.486 39.9248C275.994 40.4785 275.512 40.9399 275.041 41.3091C274.61 41.6372 274.148 42.0986 273.656 42.6934C273.492 42.8164 273.328 42.9395 273.164 43.0625C273 43.1855 272.856 43.3496 272.733 43.5547C272.364 43.8008 272.067 44.0469 271.841 44.293C271.616 44.5391 271.359 44.8262 271.072 45.1543C270.826 45.2773 270.56 45.4517 270.272 45.6772C269.924 45.9438 269.616 46.1387 269.35 46.2617C269.247 46.3232 269.073 46.4155 268.827 46.5386C268.622 46.6411 268.427 46.6924 268.242 46.6924C267.771 46.7744 267.319 46.7334 266.889 46.5693C266.499 46.4258 266.109 46.3027 265.72 46.2002C265.556 45.9541 265.351 45.749 265.104 45.585C264.735 45.1338 264.469 44.6006 264.305 43.9854C264.141 43.3701 263.977 42.7139 263.812 42.0166C263.443 42.2627 263.136 42.5293 262.89 42.8164C262.644 43.124 262.274 43.3906 261.782 43.6162C261.372 44.0059 260.952 44.3955 260.521 44.7852C260.09 45.1543 259.639 45.5132 259.167 45.8618C258.716 46.2104 258.255 46.5796 257.783 46.9692C257.312 47.3384 256.84 47.7178 256.368 48.1074C256.04 48.4355 255.814 48.5586 255.691 48.4766C255.322 48.9277 254.666 49.0713 253.723 48.9072C253.395 48.7432 253.025 48.5996 252.615 48.4766C252.328 48.3945 252 48.2715 251.631 48.1074C250.934 47.9844 250.349 47.6768 249.877 47.1846C249.406 46.6924 249.006 46.1182 248.678 45.4619C248.555 45.1133 248.462 44.8057 248.401 44.5391C248.38 44.3955 248.35 44.2417 248.309 44.0776C248.268 43.9136 248.227 43.7393 248.186 43.5547C248.165 43.2061 248.104 42.9292 248.001 42.7241C247.919 42.4985 247.919 42.2832 248.001 42.0781C247.919 41.9756 247.898 41.8423 247.939 41.6782C247.98 41.4731 248.001 41.3193 248.001 41.2168C247.96 40.6426 248.011 40.0273 248.155 39.3711C248.298 38.7148 248.493 38.1201 248.739 37.5869C248.862 37.3818 249.026 37.1768 249.231 36.9717C249.334 36.8486 249.396 36.7256 249.416 36.6025C249.437 36.5 249.498 36.3975 249.601 36.2949C249.703 36.1719 249.826 36.0488 249.97 35.9258C250.175 35.7617 250.318 35.6387 250.4 35.5566C250.503 35.4131 250.605 35.2798 250.708 35.1567C250.831 35.0132 250.964 34.8901 251.108 34.7876C251.251 34.6851 251.385 34.5723 251.508 34.4492C251.631 34.3262 251.754 34.2031 251.877 34.0801C252.021 33.9365 252.133 33.793 252.215 33.6494C252.318 33.4854 252.472 33.3623 252.677 33.2803C252.841 32.9932 253.025 32.7573 253.23 32.5728C253.436 32.3882 253.661 32.1934 253.907 31.9883C254.604 31.1475 255.466 30.4297 256.491 29.835C257.537 29.2402 258.46 28.584 259.26 27.8662C259.547 27.7432 259.793 27.5996 259.998 27.4355C260.203 27.2715 260.408 27.1074 260.613 26.9434C261.126 26.4922 261.68 26.3486 262.274 26.5127L263.874 26.9434C264.284 27.3125 264.684 27.6816 265.074 28.0508C265.463 28.4199 265.802 28.8301 266.089 29.2812C266.232 29.2607 266.386 29.2505 266.55 29.2505C266.714 29.23 266.889 29.23 267.073 29.2505C267.442 29.2915 267.832 29.2607 268.242 29.1582C268.365 29.1582 268.488 29.1274 268.611 29.0659C268.734 29.0044 268.837 28.9736 268.919 28.9736C269.534 29.1787 269.842 29.4863 269.842 29.8965ZM261.721 30.8193C260.613 31.3525 259.608 31.978 258.706 32.6958C257.804 33.4136 256.942 34.1826 256.122 35.0029C256.02 35.1055 255.907 35.208 255.784 35.3105C255.681 35.3926 255.579 35.4849 255.476 35.5874C255.374 35.6694 255.271 35.7617 255.168 35.8643C255.066 35.9668 254.974 36.0693 254.892 36.1719C254.728 36.377 254.574 36.623 254.43 36.9102C254.287 37.1973 254.153 37.4639 254.03 37.71C253.989 37.792 253.948 37.874 253.907 37.9561C253.866 38.0176 253.825 38.0688 253.784 38.1099C253.743 38.1509 253.702 38.2021 253.661 38.2637C253.62 38.3252 253.579 38.3867 253.538 38.4482C253.456 38.6533 253.425 38.8584 253.446 39.0635C253.466 39.207 253.477 39.4326 253.477 39.7402V40.3555C253.477 40.4785 253.497 40.6836 253.538 40.9707C253.661 41.4219 253.723 41.873 253.723 42.3242C253.723 42.6523 253.753 43.0522 253.815 43.5239C253.876 43.9956 254.03 44.3135 254.276 44.4775C254.543 44.6416 254.799 44.6826 255.045 44.6006C255.333 44.498 255.568 44.4365 255.753 44.416C257.188 43.3086 258.542 42.1499 259.813 40.9399C261.085 39.73 262.213 38.3662 263.197 36.8486C263.115 35.8438 263.105 34.8081 263.167 33.7417C263.228 32.7368 263.136 31.8037 262.89 30.9424C262.726 30.8398 262.531 30.8091 262.305 30.8501C262.141 30.8706 261.946 30.8604 261.721 30.8193Z" fill="white"/>
</svg>
